G75*
%MOIN*%
%OFA0B0*%
%FSLAX25Y25*%
%IPPOS*%
%LPD*%
%AMOC8*
5,1,8,0,0,1.08239X$1,22.5*
%
%ADD10C,0.01200*%
%ADD11C,0.00200*%
%ADD12C,0.02500*%
%ADD13C,0.00000*%
%ADD14C,0.00600*%
%ADD15C,0.00500*%
%ADD16R,0.00787X0.00787*%
%ADD17C,0.00394*%
%ADD18C,0.00400*%
D10*
X0040433Y0036433D02*
X0040433Y0208134D01*
X0157860Y0208134D01*
X0158591Y0208119D01*
X0159321Y0208087D01*
X0160050Y0208036D01*
X0160778Y0207969D01*
X0161504Y0207883D01*
X0162227Y0207780D01*
X0162948Y0207660D01*
X0163666Y0207522D01*
X0164380Y0207368D01*
X0165091Y0207195D01*
X0165797Y0207006D01*
X0166498Y0206800D01*
X0167194Y0206576D01*
X0167884Y0206337D01*
X0168568Y0206080D01*
X0169246Y0205807D01*
X0169918Y0205518D01*
X0170582Y0205212D01*
X0171238Y0204891D01*
X0171886Y0204554D01*
X0172527Y0204201D01*
X0173158Y0203833D01*
X0173780Y0203449D01*
X0174393Y0203051D01*
X0174996Y0202638D01*
X0175589Y0202211D01*
X0176172Y0201769D01*
X0176743Y0201314D01*
X0177304Y0200845D01*
X0177853Y0200362D01*
X0178390Y0199866D01*
X0178915Y0199358D01*
X0179427Y0198837D01*
X0179927Y0198304D01*
X0180414Y0197758D01*
X0180887Y0197202D01*
X0181347Y0196633D01*
X0181793Y0196054D01*
X0182225Y0195465D01*
X0182642Y0194865D01*
X0183045Y0194255D01*
X0183433Y0193636D01*
X0183806Y0193007D01*
X0184164Y0192370D01*
X0184506Y0191724D01*
X0184832Y0191070D01*
X0185143Y0190408D01*
X0185437Y0189739D01*
X0185715Y0189063D01*
X0185977Y0188381D01*
X0186222Y0187692D01*
X0186451Y0186998D01*
X0186663Y0186299D01*
X0186857Y0185594D01*
X0187035Y0184885D01*
X0187195Y0184172D01*
X0187339Y0183455D01*
X0187464Y0182735D01*
X0187573Y0182013D01*
X0187664Y0181287D01*
X0187737Y0180560D01*
X0187793Y0179831D01*
X0187831Y0179101D01*
X0187851Y0178371D01*
X0187854Y0177640D01*
X0187854Y0036433D01*
X0040433Y0036433D01*
D11*
X0060350Y0082533D02*
X0061551Y0084335D01*
X0062191Y0083734D02*
X0062792Y0084335D01*
X0062792Y0082533D01*
X0062191Y0082533D02*
X0063393Y0082533D01*
X0061551Y0082533D02*
X0060350Y0084335D01*
X0059933Y0102933D02*
X0059933Y0103933D01*
X0069433Y0103933D01*
X0069433Y0102933D01*
X0086032Y0112650D02*
X0086332Y0112350D01*
X0086632Y0112350D01*
X0086932Y0112650D01*
X0086932Y0113251D01*
X0087233Y0113551D01*
X0087533Y0113551D01*
X0087833Y0113251D01*
X0087833Y0112650D01*
X0087533Y0112350D01*
X0086032Y0112650D02*
X0086032Y0113251D01*
X0086332Y0113551D01*
X0086632Y0114191D02*
X0086032Y0114792D01*
X0087833Y0114792D01*
X0087833Y0114191D02*
X0087833Y0115393D01*
X0069933Y0125933D02*
X0069933Y0126933D01*
X0069933Y0125933D02*
X0059933Y0125933D01*
X0059933Y0126933D01*
X0065612Y0133096D02*
X0065012Y0133697D01*
X0066813Y0133697D01*
X0066813Y0134297D02*
X0066813Y0133096D01*
X0067587Y0133896D02*
X0067887Y0133596D01*
X0069088Y0133596D01*
X0069388Y0133896D01*
X0069388Y0134497D01*
X0069088Y0134797D01*
X0069088Y0135438D02*
X0068788Y0135438D01*
X0068487Y0135738D01*
X0068487Y0136338D01*
X0068788Y0136639D01*
X0069088Y0136639D01*
X0069388Y0136338D01*
X0069388Y0135738D01*
X0069088Y0135438D01*
X0068487Y0135738D02*
X0068187Y0135438D01*
X0067887Y0135438D01*
X0067587Y0135738D01*
X0067587Y0136338D01*
X0067887Y0136639D01*
X0068187Y0136639D01*
X0068487Y0136338D01*
X0067887Y0134797D02*
X0067587Y0134497D01*
X0067587Y0133896D01*
X0066513Y0134938D02*
X0065312Y0136139D01*
X0066513Y0136139D01*
X0066813Y0135838D01*
X0066813Y0135238D01*
X0066513Y0134938D01*
X0065312Y0134938D01*
X0065012Y0135238D01*
X0065012Y0135838D01*
X0065312Y0136139D01*
X0065312Y0136779D02*
X0065012Y0137079D01*
X0065012Y0137680D01*
X0065312Y0137980D01*
X0066513Y0136779D01*
X0066813Y0137079D01*
X0066813Y0137680D01*
X0066513Y0137980D01*
X0065312Y0137980D01*
X0065612Y0138621D02*
X0065612Y0139522D01*
X0065913Y0139822D01*
X0066813Y0139822D01*
X0066813Y0140763D02*
X0065312Y0140763D01*
X0065012Y0141063D01*
X0065913Y0141063D02*
X0065913Y0140462D01*
X0065612Y0138621D02*
X0066813Y0138621D01*
X0066513Y0136779D02*
X0065312Y0136779D01*
X0070396Y0147978D02*
X0070997Y0147978D01*
X0071297Y0148278D01*
X0071938Y0148278D02*
X0071938Y0147978D01*
X0071938Y0148278D02*
X0073139Y0149479D01*
X0073139Y0149779D01*
X0071938Y0149779D01*
X0071297Y0149479D02*
X0070997Y0149779D01*
X0070396Y0149779D01*
X0070096Y0149479D01*
X0070096Y0148278D01*
X0070396Y0147978D01*
X0075096Y0148053D02*
X0076297Y0149254D01*
X0076297Y0149554D01*
X0075997Y0149854D01*
X0075396Y0149854D01*
X0075096Y0149554D01*
X0075096Y0148053D02*
X0076297Y0148053D01*
X0076938Y0148053D02*
X0077238Y0148053D01*
X0077238Y0148353D01*
X0076938Y0148353D01*
X0076938Y0148053D01*
X0077858Y0148053D02*
X0079059Y0149254D01*
X0079059Y0149554D01*
X0078759Y0149854D01*
X0078159Y0149854D01*
X0077858Y0149554D01*
X0077858Y0148053D02*
X0079059Y0148053D01*
X0079700Y0148053D02*
X0080601Y0148053D01*
X0080901Y0148353D01*
X0080901Y0148954D01*
X0080601Y0149254D01*
X0079700Y0149254D01*
X0079700Y0147452D01*
X0081542Y0148954D02*
X0082142Y0148954D01*
X0081842Y0149554D02*
X0082142Y0149854D01*
X0081842Y0149554D02*
X0081842Y0148053D01*
X0089532Y0154142D02*
X0090733Y0154142D01*
X0091333Y0154743D01*
X0090733Y0155343D01*
X0089532Y0155343D01*
X0089832Y0155984D02*
X0091033Y0155984D01*
X0091333Y0156284D01*
X0091333Y0156884D01*
X0091033Y0157185D01*
X0091033Y0157825D02*
X0091333Y0158125D01*
X0091333Y0158726D01*
X0091033Y0159026D01*
X0091033Y0159667D02*
X0091333Y0159967D01*
X0091333Y0160568D01*
X0091033Y0160868D01*
X0091033Y0161508D02*
X0091333Y0161809D01*
X0091333Y0162409D01*
X0091033Y0162709D01*
X0089832Y0162709D01*
X0089532Y0162409D01*
X0089532Y0161809D01*
X0089832Y0161508D01*
X0091033Y0161508D01*
X0089832Y0160868D02*
X0089532Y0160568D01*
X0089532Y0159967D01*
X0089832Y0159667D01*
X0091033Y0159667D01*
X0089832Y0159026D02*
X0089532Y0158726D01*
X0089532Y0158125D01*
X0089832Y0157825D01*
X0091033Y0157825D01*
X0089832Y0157185D02*
X0089532Y0156884D01*
X0089532Y0156284D01*
X0089832Y0155984D01*
X0089532Y0163350D02*
X0089532Y0164251D01*
X0089832Y0164551D01*
X0090432Y0164551D01*
X0090733Y0164251D01*
X0090733Y0163350D01*
X0091333Y0163350D02*
X0089532Y0163350D01*
X0090733Y0163950D02*
X0091333Y0164551D01*
X0091333Y0165191D02*
X0091333Y0166393D01*
X0090432Y0165792D02*
X0090432Y0165191D01*
X0089532Y0165191D02*
X0091333Y0165191D01*
X0089532Y0165191D02*
X0089532Y0166393D01*
X0085842Y0172553D02*
X0085842Y0174054D01*
X0086142Y0174354D01*
X0086142Y0173454D02*
X0085542Y0173454D01*
X0084901Y0173454D02*
X0084901Y0172853D01*
X0084601Y0172553D01*
X0083700Y0172553D01*
X0083700Y0171952D02*
X0083700Y0173754D01*
X0084601Y0173754D01*
X0084901Y0173454D01*
X0083059Y0173754D02*
X0083059Y0174054D01*
X0082759Y0174354D01*
X0082159Y0174354D01*
X0081858Y0174054D01*
X0083059Y0173754D02*
X0081858Y0172553D01*
X0083059Y0172553D01*
X0081238Y0172553D02*
X0080938Y0172553D01*
X0080938Y0172853D01*
X0081238Y0172853D01*
X0081238Y0172553D01*
X0080297Y0172553D02*
X0079096Y0172553D01*
X0080297Y0173754D01*
X0080297Y0174054D01*
X0079997Y0174354D01*
X0079396Y0174354D01*
X0079096Y0174054D01*
X0075639Y0173979D02*
X0075639Y0173679D01*
X0075338Y0173379D01*
X0075639Y0173078D01*
X0075639Y0172778D01*
X0075338Y0172478D01*
X0074738Y0172478D01*
X0074438Y0172778D01*
X0073797Y0172778D02*
X0073497Y0172478D01*
X0072896Y0172478D01*
X0072596Y0172778D01*
X0072596Y0173979D01*
X0072896Y0174279D01*
X0073497Y0174279D01*
X0073797Y0173979D01*
X0074438Y0173979D02*
X0074738Y0174279D01*
X0075338Y0174279D01*
X0075639Y0173979D01*
X0075338Y0173379D02*
X0075038Y0173379D01*
X0080901Y0182413D02*
X0080901Y0184214D01*
X0081802Y0184214D01*
X0082102Y0183914D01*
X0082102Y0183314D01*
X0081802Y0183013D01*
X0080901Y0183013D01*
X0080260Y0183013D02*
X0079059Y0183013D01*
X0079660Y0183013D02*
X0079660Y0184815D01*
X0079059Y0184214D01*
X0075830Y0183989D02*
X0074929Y0183989D01*
X0074629Y0184289D01*
X0074629Y0184589D01*
X0074929Y0184890D01*
X0075529Y0184890D01*
X0075830Y0184589D01*
X0075830Y0183388D01*
X0075529Y0183088D01*
X0074929Y0183088D01*
X0074629Y0183388D01*
X0073988Y0183388D02*
X0073688Y0183088D01*
X0073087Y0183088D01*
X0072787Y0183388D01*
X0072787Y0184589D01*
X0073087Y0184890D01*
X0073688Y0184890D01*
X0073988Y0184589D01*
X0082742Y0183914D02*
X0083343Y0183914D01*
X0083043Y0184515D02*
X0083343Y0184815D01*
X0083043Y0184515D02*
X0083043Y0183013D01*
X0067813Y0164763D02*
X0066312Y0164763D01*
X0066012Y0165063D01*
X0066913Y0165063D02*
X0066913Y0164462D01*
X0066913Y0163822D02*
X0067813Y0163822D01*
X0066913Y0163822D02*
X0066612Y0163522D01*
X0066612Y0162621D01*
X0067813Y0162621D01*
X0067513Y0161980D02*
X0067813Y0161680D01*
X0067813Y0161079D01*
X0067513Y0160779D01*
X0066312Y0161980D01*
X0067513Y0161980D01*
X0068587Y0161838D02*
X0069487Y0160938D01*
X0069487Y0162139D01*
X0070388Y0161838D02*
X0068587Y0161838D01*
X0067513Y0160779D02*
X0066312Y0160779D01*
X0066012Y0161079D01*
X0066012Y0161680D01*
X0066312Y0161980D01*
X0066312Y0160139D02*
X0067513Y0158938D01*
X0067813Y0159238D01*
X0067813Y0159838D01*
X0067513Y0160139D01*
X0066312Y0160139D01*
X0066012Y0159838D01*
X0066012Y0159238D01*
X0066312Y0158938D01*
X0067513Y0158938D01*
X0067813Y0158297D02*
X0067813Y0157096D01*
X0067813Y0157697D02*
X0066012Y0157697D01*
X0066612Y0157096D01*
X0068887Y0159096D02*
X0070088Y0159096D01*
X0070388Y0159396D01*
X0070388Y0159997D01*
X0070088Y0160297D01*
X0068887Y0160297D02*
X0068587Y0159997D01*
X0068587Y0159396D01*
X0068887Y0159096D01*
X0046333Y0157259D02*
X0046333Y0156058D01*
X0045132Y0157259D01*
X0044832Y0157259D01*
X0044532Y0156959D01*
X0044532Y0156358D01*
X0044832Y0156058D01*
X0044832Y0155417D02*
X0044532Y0155117D01*
X0044532Y0154216D01*
X0046333Y0154216D01*
X0046333Y0155117D01*
X0046033Y0155417D01*
X0044832Y0155417D01*
X0044532Y0153576D02*
X0044532Y0152375D01*
X0046333Y0152375D01*
X0046333Y0153576D01*
X0045432Y0152975D02*
X0045432Y0152375D01*
X0046333Y0151734D02*
X0046333Y0150533D01*
X0044532Y0150533D01*
X0044533Y0142893D02*
X0043332Y0142893D01*
X0044533Y0141691D01*
X0044833Y0141992D01*
X0044833Y0142592D01*
X0044533Y0142893D01*
X0043332Y0142893D02*
X0043032Y0142592D01*
X0043032Y0141992D01*
X0043332Y0141691D01*
X0044533Y0141691D01*
X0044533Y0141051D02*
X0044833Y0140751D01*
X0044833Y0140150D01*
X0044533Y0139850D01*
X0044533Y0139209D02*
X0044833Y0138909D01*
X0044833Y0138309D01*
X0044533Y0138008D01*
X0043932Y0138609D02*
X0043932Y0138909D01*
X0044233Y0139209D01*
X0044533Y0139209D01*
X0043932Y0138909D02*
X0043632Y0139209D01*
X0043332Y0139209D01*
X0043032Y0138909D01*
X0043032Y0138309D01*
X0043332Y0138008D01*
X0043332Y0139850D02*
X0043032Y0140150D01*
X0043032Y0140751D01*
X0043332Y0141051D01*
X0043632Y0141051D01*
X0043932Y0140751D01*
X0044233Y0141051D01*
X0044533Y0141051D01*
X0043932Y0140751D02*
X0043932Y0140450D01*
X0045532Y0139934D02*
X0045832Y0140234D01*
X0046432Y0140234D01*
X0046733Y0139934D01*
X0046733Y0139033D01*
X0047333Y0139033D02*
X0045532Y0139033D01*
X0045532Y0139934D01*
X0046733Y0139634D02*
X0047333Y0140234D01*
X0047033Y0140875D02*
X0047333Y0141175D01*
X0047333Y0141775D01*
X0047033Y0142076D01*
X0046733Y0142076D01*
X0046432Y0141775D01*
X0046432Y0140875D01*
X0047033Y0140875D01*
X0046432Y0140875D02*
X0045832Y0141475D01*
X0045532Y0142076D01*
X0045032Y0166667D02*
X0046833Y0166667D01*
X0046833Y0167868D01*
X0046833Y0168508D02*
X0046833Y0169709D01*
X0046833Y0170350D02*
X0046833Y0171251D01*
X0046533Y0171551D01*
X0045332Y0171551D01*
X0045032Y0171251D01*
X0045032Y0170350D01*
X0046833Y0170350D01*
X0045932Y0169109D02*
X0045932Y0168508D01*
X0045032Y0168508D02*
X0046833Y0168508D01*
X0045032Y0168508D02*
X0045032Y0169709D01*
X0045632Y0172191D02*
X0045032Y0172792D01*
X0046833Y0172792D01*
X0046833Y0172191D02*
X0046833Y0173393D01*
X0050033Y0190033D02*
X0050033Y0191835D01*
X0050934Y0191835D01*
X0051234Y0191534D01*
X0051234Y0190934D01*
X0050934Y0190634D01*
X0050033Y0190634D01*
X0050634Y0190634D02*
X0051234Y0190033D01*
X0051875Y0190333D02*
X0052175Y0190033D01*
X0052775Y0190033D01*
X0053076Y0190333D01*
X0053076Y0190934D01*
X0052775Y0191234D01*
X0052475Y0191234D01*
X0051875Y0190934D01*
X0051875Y0191835D01*
X0053076Y0191835D01*
X0057533Y0191534D02*
X0057833Y0191835D01*
X0058434Y0191835D01*
X0058734Y0191534D01*
X0058734Y0191234D01*
X0058434Y0190934D01*
X0058734Y0190634D01*
X0058734Y0190333D01*
X0058434Y0190033D01*
X0057833Y0190033D01*
X0057533Y0190333D01*
X0058134Y0190934D02*
X0058434Y0190934D01*
X0059375Y0191534D02*
X0059675Y0191835D01*
X0060275Y0191835D01*
X0060576Y0191534D01*
X0060576Y0191234D01*
X0060275Y0190934D01*
X0060576Y0190634D01*
X0060576Y0190333D01*
X0060275Y0190033D01*
X0059675Y0190033D01*
X0059375Y0190333D01*
X0059975Y0190934D02*
X0060275Y0190934D01*
X0061216Y0191534D02*
X0061516Y0191835D01*
X0062117Y0191835D01*
X0062417Y0191534D01*
X0061216Y0190333D01*
X0061516Y0190033D01*
X0062117Y0190033D01*
X0062417Y0190333D01*
X0062417Y0191534D01*
X0061216Y0191534D02*
X0061216Y0190333D01*
X0089833Y0093335D02*
X0089533Y0093034D01*
X0089533Y0091833D01*
X0089833Y0091533D01*
X0090434Y0091533D01*
X0090734Y0091833D01*
X0090734Y0092434D01*
X0090134Y0092434D01*
X0090734Y0093034D02*
X0090434Y0093335D01*
X0089833Y0093335D01*
X0091375Y0093335D02*
X0092576Y0091533D01*
X0092576Y0093335D01*
X0093216Y0093335D02*
X0093216Y0091533D01*
X0094117Y0091533D01*
X0094417Y0091833D01*
X0094417Y0093034D01*
X0094117Y0093335D01*
X0093216Y0093335D01*
X0091375Y0093335D02*
X0091375Y0091533D01*
X0095058Y0092434D02*
X0096259Y0092434D01*
X0096899Y0092434D02*
X0098100Y0092434D01*
X0098741Y0093034D02*
X0098741Y0091833D01*
X0099041Y0091533D01*
X0099642Y0091533D01*
X0099942Y0091833D01*
X0099942Y0093034D02*
X0099642Y0093335D01*
X0099041Y0093335D01*
X0098741Y0093034D01*
X0100583Y0093335D02*
X0101784Y0093335D01*
X0101183Y0093335D02*
X0101183Y0091533D01*
X0102424Y0091833D02*
X0102724Y0091533D01*
X0103325Y0091533D01*
X0103625Y0091833D01*
X0103625Y0092134D01*
X0103325Y0092434D01*
X0102724Y0092434D01*
X0102424Y0092734D01*
X0102424Y0093034D01*
X0102724Y0093335D01*
X0103325Y0093335D01*
X0103625Y0093034D01*
X0104266Y0092734D02*
X0105166Y0092734D01*
X0105467Y0092734D01*
X0105467Y0092134D02*
X0104266Y0092134D01*
X0104566Y0091533D02*
X0104566Y0093335D01*
X0105166Y0093335D02*
X0105166Y0091533D01*
X0123885Y0074835D02*
X0124786Y0074835D01*
X0125086Y0074534D01*
X0125086Y0073333D01*
X0124786Y0073033D01*
X0123885Y0073033D01*
X0123885Y0074835D01*
X0125726Y0074835D02*
X0125726Y0073033D01*
X0126927Y0073033D01*
X0127568Y0073333D02*
X0127868Y0073033D01*
X0128469Y0073033D01*
X0128769Y0073333D01*
X0128769Y0073634D01*
X0128469Y0073934D01*
X0127868Y0073934D01*
X0127568Y0074234D01*
X0127568Y0074534D01*
X0127868Y0074835D01*
X0128469Y0074835D01*
X0128769Y0074534D01*
X0129409Y0074835D02*
X0130010Y0074835D01*
X0129710Y0074835D02*
X0129710Y0073033D01*
X0130010Y0073033D02*
X0129409Y0073033D01*
X0129409Y0071835D02*
X0130010Y0071835D01*
X0129710Y0071835D02*
X0129710Y0070033D01*
X0130010Y0070033D02*
X0129409Y0070033D01*
X0128769Y0070033D02*
X0128168Y0070634D01*
X0128469Y0070634D02*
X0127568Y0070634D01*
X0127568Y0070033D02*
X0127568Y0071835D01*
X0128469Y0071835D01*
X0128769Y0071534D01*
X0128769Y0070934D01*
X0128469Y0070634D01*
X0126927Y0070333D02*
X0126927Y0071835D01*
X0125726Y0071835D02*
X0125726Y0070333D01*
X0126027Y0070033D01*
X0126627Y0070033D01*
X0126927Y0070333D01*
X0125086Y0070333D02*
X0125086Y0070934D01*
X0124485Y0070934D01*
X0123885Y0071534D02*
X0123885Y0070333D01*
X0124185Y0070033D01*
X0124786Y0070033D01*
X0125086Y0070333D01*
X0125086Y0071534D02*
X0124786Y0071835D01*
X0124185Y0071835D01*
X0123885Y0071534D01*
X0125726Y0073934D02*
X0126327Y0073934D01*
X0126927Y0074835D02*
X0125726Y0074835D01*
X0130637Y0074534D02*
X0130637Y0073333D01*
X0130937Y0073033D01*
X0131538Y0073033D01*
X0131838Y0073333D01*
X0131838Y0073934D01*
X0131238Y0073934D01*
X0131838Y0074534D02*
X0131538Y0074835D01*
X0130937Y0074835D01*
X0130637Y0074534D01*
X0132479Y0074835D02*
X0133680Y0073033D01*
X0133680Y0074835D01*
X0134320Y0074835D02*
X0134320Y0073033D01*
X0135521Y0073033D01*
X0136162Y0073033D02*
X0137063Y0073033D01*
X0137363Y0073333D01*
X0137363Y0074534D01*
X0137063Y0074835D01*
X0136162Y0074835D01*
X0136162Y0073033D01*
X0136162Y0071835D02*
X0137063Y0071835D01*
X0137363Y0071534D01*
X0137363Y0070934D01*
X0137063Y0070634D01*
X0136162Y0070634D01*
X0136762Y0070634D02*
X0137363Y0070033D01*
X0136162Y0070033D02*
X0136162Y0071835D01*
X0135521Y0071835D02*
X0134320Y0071835D01*
X0134320Y0070033D01*
X0135521Y0070033D01*
X0134921Y0070934D02*
X0134320Y0070934D01*
X0133680Y0071534D02*
X0133380Y0071835D01*
X0132479Y0071835D01*
X0132479Y0070033D01*
X0133380Y0070033D01*
X0133680Y0070333D01*
X0133680Y0071534D01*
X0131838Y0071835D02*
X0131838Y0070033D01*
X0130637Y0071835D01*
X0130637Y0070033D01*
X0132479Y0073033D02*
X0132479Y0074835D01*
X0134320Y0074835D02*
X0135521Y0074835D01*
X0134921Y0073934D02*
X0134320Y0073934D01*
X0139845Y0073934D02*
X0140746Y0073934D01*
X0141046Y0073634D01*
X0141046Y0073333D01*
X0140746Y0073033D01*
X0139845Y0073033D01*
X0139845Y0074835D01*
X0140746Y0074835D01*
X0141046Y0074534D01*
X0141046Y0074234D01*
X0140746Y0073934D01*
X0141687Y0074534D02*
X0142287Y0073934D01*
X0142287Y0073033D01*
X0142287Y0073934D02*
X0142888Y0074534D01*
X0142888Y0074835D01*
X0141687Y0074835D02*
X0141687Y0074534D01*
X0141687Y0071835D02*
X0142287Y0071835D01*
X0141987Y0071835D02*
X0141987Y0070033D01*
X0141687Y0070033D02*
X0142287Y0070033D01*
X0142914Y0070033D02*
X0142914Y0071835D01*
X0144115Y0070033D01*
X0144115Y0071835D01*
X0144756Y0071534D02*
X0144756Y0070333D01*
X0145056Y0070033D01*
X0145657Y0070033D01*
X0145957Y0070333D01*
X0145957Y0070934D01*
X0145356Y0070934D01*
X0144756Y0071534D02*
X0145056Y0071835D01*
X0145657Y0071835D01*
X0145957Y0071534D01*
X0146597Y0071835D02*
X0146597Y0070033D01*
X0146597Y0070934D02*
X0147798Y0070934D01*
X0147798Y0071835D02*
X0147798Y0070033D01*
X0150281Y0070333D02*
X0150581Y0070033D01*
X0151181Y0070033D01*
X0151482Y0070333D01*
X0151482Y0070934D01*
X0150881Y0070934D01*
X0150281Y0071534D02*
X0150281Y0070333D01*
X0150281Y0071534D02*
X0150581Y0071835D01*
X0151181Y0071835D01*
X0151482Y0071534D01*
X0152122Y0071835D02*
X0152723Y0071835D01*
X0152422Y0071835D02*
X0152422Y0070033D01*
X0152122Y0070033D02*
X0152723Y0070033D01*
X0153350Y0070033D02*
X0154551Y0070033D01*
X0155191Y0070033D02*
X0156392Y0070033D01*
X0155191Y0070033D02*
X0155191Y0071835D01*
X0153350Y0071835D02*
X0153350Y0070033D01*
X0158167Y0068034D02*
X0158167Y0067734D01*
X0158467Y0067434D01*
X0159068Y0067434D01*
X0159368Y0067134D01*
X0159368Y0066833D01*
X0159068Y0066533D01*
X0158467Y0066533D01*
X0158167Y0066833D01*
X0158167Y0068034D02*
X0158467Y0068335D01*
X0159068Y0068335D01*
X0159368Y0068034D01*
X0160008Y0068034D02*
X0160008Y0066833D01*
X0160309Y0066533D01*
X0160909Y0066533D01*
X0161209Y0066833D01*
X0161850Y0066533D02*
X0163051Y0066533D01*
X0163691Y0066533D02*
X0163691Y0068335D01*
X0163992Y0067434D02*
X0164893Y0066533D01*
X0163691Y0067134D02*
X0164893Y0068335D01*
X0161850Y0068335D02*
X0161850Y0066533D01*
X0161209Y0068034D02*
X0160909Y0068335D01*
X0160309Y0068335D01*
X0160008Y0068034D01*
X0160309Y0077033D02*
X0160008Y0077333D01*
X0160309Y0077033D02*
X0160909Y0077033D01*
X0161209Y0077333D01*
X0161209Y0077634D01*
X0160909Y0077934D01*
X0160309Y0077934D01*
X0160008Y0078234D01*
X0160008Y0078534D01*
X0160309Y0078835D01*
X0160909Y0078835D01*
X0161209Y0078534D01*
X0161850Y0078835D02*
X0161850Y0077033D01*
X0161850Y0077934D02*
X0162450Y0077934D01*
X0161850Y0078835D02*
X0163051Y0078835D01*
X0163691Y0078534D02*
X0163691Y0078234D01*
X0163992Y0077934D01*
X0164592Y0077934D01*
X0164893Y0077634D01*
X0164893Y0077333D01*
X0164592Y0077033D01*
X0163992Y0077033D01*
X0163691Y0077333D01*
X0163691Y0078534D02*
X0163992Y0078835D01*
X0164592Y0078835D01*
X0164893Y0078534D01*
X0164592Y0087033D02*
X0164893Y0087333D01*
X0164893Y0088534D01*
X0164592Y0088835D01*
X0163691Y0088835D01*
X0163691Y0087033D01*
X0164592Y0087033D01*
X0162450Y0087033D02*
X0162450Y0088835D01*
X0161850Y0088835D02*
X0163051Y0088835D01*
X0161209Y0088534D02*
X0160909Y0088835D01*
X0160309Y0088835D01*
X0160008Y0088534D01*
X0160008Y0088234D01*
X0160309Y0087934D01*
X0160909Y0087934D01*
X0161209Y0087634D01*
X0161209Y0087333D01*
X0160909Y0087033D01*
X0160309Y0087033D01*
X0160008Y0087333D01*
X0160309Y0097033D02*
X0160008Y0097333D01*
X0160309Y0097033D02*
X0160909Y0097033D01*
X0161209Y0097333D01*
X0161209Y0097634D01*
X0160909Y0097934D01*
X0160309Y0097934D01*
X0160008Y0098234D01*
X0160008Y0098534D01*
X0160309Y0098835D01*
X0160909Y0098835D01*
X0161209Y0098534D01*
X0161850Y0098835D02*
X0162751Y0098835D01*
X0163051Y0098534D01*
X0163051Y0097934D01*
X0162751Y0097634D01*
X0161850Y0097634D01*
X0162450Y0097634D02*
X0163051Y0097033D01*
X0163691Y0097033D02*
X0163691Y0098835D01*
X0164592Y0098835D01*
X0164893Y0098534D01*
X0164893Y0097333D01*
X0164592Y0097033D01*
X0163691Y0097033D01*
X0161850Y0097033D02*
X0161850Y0098835D01*
X0161850Y0104533D02*
X0161850Y0106335D01*
X0163051Y0104533D01*
X0163051Y0106335D01*
X0163691Y0106335D02*
X0163691Y0104533D01*
X0164592Y0104533D01*
X0164893Y0104833D01*
X0164893Y0106034D01*
X0164592Y0106335D01*
X0163691Y0106335D01*
X0161209Y0106034D02*
X0160909Y0106335D01*
X0160309Y0106335D01*
X0160008Y0106034D01*
X0160008Y0104833D01*
X0160309Y0104533D01*
X0160909Y0104533D01*
X0161209Y0104833D01*
X0161209Y0105434D01*
X0160609Y0105434D01*
X0174790Y0125533D02*
X0175691Y0126434D01*
X0175991Y0126134D02*
X0174790Y0127335D01*
X0175991Y0127335D02*
X0175991Y0125533D01*
X0176632Y0125533D02*
X0177833Y0125533D01*
X0177233Y0125533D02*
X0177233Y0127335D01*
X0177833Y0126734D01*
X0174833Y0153533D02*
X0173032Y0153533D01*
X0173032Y0154434D01*
X0173332Y0154734D01*
X0173932Y0154734D01*
X0174233Y0154434D01*
X0174233Y0153533D01*
X0174233Y0154134D02*
X0174833Y0154734D01*
X0174533Y0155375D02*
X0173932Y0155375D01*
X0173632Y0155675D01*
X0173632Y0156275D01*
X0173932Y0156576D01*
X0174233Y0156576D01*
X0174233Y0155375D01*
X0174533Y0155375D02*
X0174833Y0155675D01*
X0174833Y0156275D01*
X0173632Y0157216D02*
X0174833Y0157817D01*
X0173632Y0158417D01*
X0171833Y0158417D02*
X0170032Y0157216D01*
X0170032Y0156576D02*
X0171833Y0156576D01*
X0171833Y0157216D02*
X0170032Y0158417D01*
X0170332Y0159058D02*
X0170632Y0159058D01*
X0170932Y0159358D01*
X0170932Y0160259D01*
X0170332Y0160259D02*
X0170032Y0159959D01*
X0170032Y0159358D01*
X0170332Y0159058D01*
X0170332Y0160259D02*
X0171533Y0160259D01*
X0171833Y0159959D01*
X0171833Y0159358D01*
X0171533Y0159058D01*
X0171533Y0160899D02*
X0171233Y0160899D01*
X0170932Y0161200D01*
X0170932Y0161800D01*
X0171233Y0162100D01*
X0171533Y0162100D01*
X0171833Y0161800D01*
X0171833Y0161200D01*
X0171533Y0160899D01*
X0170932Y0161200D02*
X0170632Y0160899D01*
X0170332Y0160899D01*
X0170032Y0161200D01*
X0170032Y0161800D01*
X0170332Y0162100D01*
X0170632Y0162100D01*
X0170932Y0161800D01*
X0170332Y0162741D02*
X0170032Y0163041D01*
X0170032Y0163642D01*
X0170332Y0163942D01*
X0170632Y0163942D01*
X0170932Y0163642D01*
X0171233Y0163942D01*
X0171533Y0163942D01*
X0171833Y0163642D01*
X0171833Y0163041D01*
X0171533Y0162741D01*
X0170932Y0163341D02*
X0170932Y0163642D01*
X0170632Y0164583D02*
X0170332Y0164583D01*
X0170032Y0164883D01*
X0170032Y0165483D01*
X0170332Y0165784D01*
X0170632Y0165784D01*
X0170932Y0165483D01*
X0170932Y0164883D01*
X0170632Y0164583D01*
X0170932Y0164883D02*
X0171233Y0164583D01*
X0171533Y0164583D01*
X0171833Y0164883D01*
X0171833Y0165483D01*
X0171533Y0165784D01*
X0171233Y0165784D01*
X0170932Y0165483D01*
X0173032Y0164562D02*
X0173332Y0164863D01*
X0174533Y0163662D01*
X0174833Y0163962D01*
X0174833Y0164562D01*
X0174533Y0164863D01*
X0173332Y0164863D01*
X0173032Y0164562D02*
X0173032Y0163962D01*
X0173332Y0163662D01*
X0174533Y0163662D01*
X0174533Y0163041D02*
X0174833Y0163041D01*
X0174833Y0162741D01*
X0174533Y0162741D01*
X0174533Y0163041D01*
X0174833Y0162100D02*
X0174833Y0160899D01*
X0174833Y0161500D02*
X0173032Y0161500D01*
X0173632Y0160899D01*
X0170032Y0156576D02*
X0170632Y0155975D01*
X0170032Y0155375D01*
X0171833Y0155375D01*
X0171833Y0154734D02*
X0171833Y0153533D01*
X0170032Y0153533D01*
X0167921Y0156553D02*
X0167921Y0158054D01*
X0168221Y0158354D01*
X0168221Y0157454D02*
X0167621Y0157454D01*
X0166980Y0157454D02*
X0166980Y0156853D01*
X0166680Y0156553D01*
X0165779Y0156553D01*
X0165779Y0155952D02*
X0165779Y0157754D01*
X0166680Y0157754D01*
X0166980Y0157454D01*
X0165139Y0157754D02*
X0163938Y0156553D01*
X0165139Y0156553D01*
X0165139Y0157754D02*
X0165139Y0158054D01*
X0164838Y0158354D01*
X0164238Y0158354D01*
X0163938Y0158054D01*
X0163297Y0158054D02*
X0162997Y0158354D01*
X0162396Y0158354D01*
X0162096Y0158054D01*
X0163297Y0158054D02*
X0163297Y0157754D01*
X0162096Y0156553D01*
X0163297Y0156553D01*
X0160139Y0156478D02*
X0158938Y0156478D01*
X0159538Y0156478D02*
X0159538Y0158279D01*
X0158938Y0157679D01*
X0158297Y0157979D02*
X0157997Y0158279D01*
X0157396Y0158279D01*
X0157096Y0157979D01*
X0157096Y0156778D01*
X0157396Y0156478D01*
X0157997Y0156478D01*
X0158297Y0156778D01*
X0170032Y0168266D02*
X0170032Y0169166D01*
X0170332Y0169467D01*
X0170632Y0169467D01*
X0170932Y0169166D01*
X0170932Y0168266D01*
X0170932Y0169166D02*
X0171233Y0169467D01*
X0171533Y0169467D01*
X0171833Y0169166D01*
X0171833Y0168266D01*
X0170032Y0168266D01*
X0170632Y0170107D02*
X0171833Y0170107D01*
X0171233Y0170107D02*
X0170632Y0170708D01*
X0170632Y0171008D01*
X0170932Y0171642D02*
X0170632Y0171942D01*
X0170632Y0172543D01*
X0170932Y0172843D01*
X0171233Y0172843D01*
X0171233Y0171642D01*
X0171533Y0171642D02*
X0170932Y0171642D01*
X0171533Y0171642D02*
X0171833Y0171942D01*
X0171833Y0172543D01*
X0171533Y0173483D02*
X0171233Y0173784D01*
X0171233Y0174684D01*
X0170932Y0174684D02*
X0171833Y0174684D01*
X0171833Y0173784D01*
X0171533Y0173483D01*
X0170632Y0173784D02*
X0170632Y0174384D01*
X0170932Y0174684D01*
X0171233Y0175325D02*
X0170632Y0176226D01*
X0170932Y0176860D02*
X0171533Y0176860D01*
X0171833Y0177160D01*
X0171833Y0177760D01*
X0171533Y0178061D01*
X0170932Y0178061D01*
X0170632Y0177760D01*
X0170632Y0177160D01*
X0170932Y0176860D01*
X0171833Y0176226D02*
X0171233Y0175325D01*
X0171833Y0175325D02*
X0170032Y0175325D01*
X0170632Y0178701D02*
X0171533Y0178701D01*
X0171833Y0179001D01*
X0171833Y0179902D01*
X0170632Y0179902D01*
X0170632Y0180543D02*
X0170632Y0181143D01*
X0170332Y0180843D02*
X0171533Y0180843D01*
X0171833Y0181143D01*
X0167421Y0183053D02*
X0167421Y0184554D01*
X0167721Y0184854D01*
X0167721Y0183954D02*
X0167121Y0183954D01*
X0166480Y0183954D02*
X0166480Y0183353D01*
X0166180Y0183053D01*
X0165279Y0183053D01*
X0165279Y0182452D02*
X0165279Y0184254D01*
X0166180Y0184254D01*
X0166480Y0183954D01*
X0164639Y0184254D02*
X0164639Y0184554D01*
X0164338Y0184854D01*
X0163738Y0184854D01*
X0163438Y0184554D01*
X0162797Y0184554D02*
X0162497Y0184854D01*
X0161896Y0184854D01*
X0161596Y0184554D01*
X0162797Y0184554D02*
X0162797Y0184254D01*
X0161596Y0183053D01*
X0162797Y0183053D01*
X0163438Y0183053D02*
X0164639Y0184254D01*
X0164639Y0183053D02*
X0163438Y0183053D01*
X0157639Y0182978D02*
X0156438Y0182978D01*
X0157639Y0184179D01*
X0157639Y0184479D01*
X0157338Y0184779D01*
X0156738Y0184779D01*
X0156438Y0184479D01*
X0155797Y0184479D02*
X0155497Y0184779D01*
X0154896Y0184779D01*
X0154596Y0184479D01*
X0154596Y0183278D01*
X0154896Y0182978D01*
X0155497Y0182978D01*
X0155797Y0183278D01*
X0182032Y0091893D02*
X0183833Y0091893D01*
X0182032Y0090691D01*
X0183833Y0090691D01*
X0183833Y0090051D02*
X0182032Y0090051D01*
X0182032Y0088850D02*
X0183833Y0090051D01*
X0183833Y0088850D02*
X0182032Y0088850D01*
X0182332Y0088209D02*
X0182032Y0087909D01*
X0182032Y0087309D01*
X0182332Y0087008D01*
X0183533Y0087008D01*
X0183833Y0087309D01*
X0183833Y0087909D01*
X0183533Y0088209D01*
X0182332Y0088209D01*
X0182332Y0086368D02*
X0182032Y0086068D01*
X0182032Y0085467D01*
X0182332Y0085167D01*
X0183533Y0085167D01*
X0183833Y0085467D01*
X0183833Y0086068D01*
X0183533Y0086368D01*
X0184133Y0084526D02*
X0184133Y0083325D01*
X0183533Y0082685D02*
X0182332Y0082685D01*
X0182032Y0082384D01*
X0182032Y0081784D01*
X0182332Y0081484D01*
X0183533Y0081484D01*
X0183833Y0081784D01*
X0183833Y0082384D01*
X0183533Y0082685D01*
X0183833Y0080856D02*
X0183833Y0080256D01*
X0183833Y0080556D02*
X0182032Y0080556D01*
X0182032Y0080256D02*
X0182032Y0080856D01*
X0182332Y0079615D02*
X0182032Y0079315D01*
X0182032Y0078414D01*
X0183833Y0078414D01*
X0183833Y0079315D01*
X0183533Y0079615D01*
X0182332Y0079615D01*
X0182032Y0077774D02*
X0183533Y0077774D01*
X0183833Y0077474D01*
X0183833Y0076873D01*
X0183533Y0076573D01*
X0182032Y0076573D01*
X0182632Y0075932D02*
X0182032Y0075332D01*
X0182632Y0074731D01*
X0183833Y0074731D01*
X0182932Y0074731D02*
X0182932Y0075932D01*
X0182632Y0075932D02*
X0183833Y0075932D01*
X0164893Y0058534D02*
X0164592Y0058835D01*
X0163992Y0058835D01*
X0163691Y0058534D01*
X0163691Y0057333D01*
X0163992Y0057033D01*
X0164592Y0057033D01*
X0164893Y0057333D01*
X0163051Y0057333D02*
X0162751Y0057033D01*
X0162150Y0057033D01*
X0161850Y0057333D01*
X0161850Y0058534D01*
X0162150Y0058835D01*
X0162751Y0058835D01*
X0163051Y0058534D01*
X0161209Y0058835D02*
X0161209Y0057634D01*
X0160609Y0057033D01*
X0160008Y0057634D01*
X0160008Y0058835D01*
X0146833Y0058475D02*
X0145032Y0058475D01*
X0145032Y0057875D02*
X0145032Y0059076D01*
X0145332Y0059716D02*
X0145632Y0059716D01*
X0145932Y0060016D01*
X0145932Y0060617D01*
X0146233Y0060917D01*
X0146533Y0060917D01*
X0146833Y0060617D01*
X0146833Y0060016D01*
X0146533Y0059716D01*
X0145332Y0059716D02*
X0145032Y0060016D01*
X0145032Y0060617D01*
X0145332Y0060917D01*
X0145632Y0061558D02*
X0145632Y0062459D01*
X0145632Y0062759D01*
X0146233Y0062759D02*
X0146233Y0061558D01*
X0146833Y0061858D02*
X0145032Y0061858D01*
X0145032Y0062459D02*
X0146833Y0062459D01*
X0146533Y0057234D02*
X0146833Y0056934D01*
X0146833Y0056333D01*
X0146533Y0056033D01*
X0145332Y0056033D01*
X0145032Y0056333D01*
X0145032Y0056934D01*
X0145332Y0057234D01*
X0139333Y0057734D02*
X0138733Y0057134D01*
X0138733Y0057434D02*
X0138733Y0056533D01*
X0139333Y0056533D02*
X0137532Y0056533D01*
X0137532Y0057434D01*
X0137832Y0057734D01*
X0138432Y0057734D01*
X0138733Y0057434D01*
X0137532Y0058375D02*
X0137532Y0059576D01*
X0137532Y0058975D02*
X0139333Y0058975D01*
X0139033Y0060216D02*
X0139333Y0060516D01*
X0139333Y0061117D01*
X0139033Y0061417D01*
X0138733Y0061417D01*
X0138432Y0061117D01*
X0138432Y0060516D01*
X0138132Y0060216D01*
X0137832Y0060216D01*
X0137532Y0060516D01*
X0137532Y0061117D01*
X0137832Y0061417D01*
X0138132Y0062058D02*
X0138132Y0062959D01*
X0138132Y0063259D01*
X0138733Y0063259D02*
X0138733Y0062058D01*
X0139333Y0062358D02*
X0137532Y0062358D01*
X0137532Y0062959D02*
X0139333Y0062959D01*
X0140145Y0070033D02*
X0139845Y0070333D01*
X0140145Y0070033D02*
X0140746Y0070033D01*
X0141046Y0070333D01*
X0141046Y0070634D01*
X0140746Y0070934D01*
X0140145Y0070934D01*
X0139845Y0071234D01*
X0139845Y0071534D01*
X0140145Y0071835D01*
X0140746Y0071835D01*
X0141046Y0071534D01*
X0129333Y0061117D02*
X0129033Y0061417D01*
X0127832Y0061417D01*
X0127532Y0061117D01*
X0127532Y0060216D01*
X0129333Y0060216D01*
X0129333Y0061117D01*
X0129333Y0059576D02*
X0127532Y0058375D01*
X0127532Y0057734D02*
X0127532Y0056533D01*
X0127532Y0057134D02*
X0129333Y0057134D01*
X0129333Y0058375D02*
X0127532Y0059576D01*
X0119333Y0059576D02*
X0117532Y0058375D01*
X0117832Y0057734D02*
X0118432Y0057734D01*
X0118733Y0057434D01*
X0118733Y0056533D01*
X0119333Y0056533D02*
X0117532Y0056533D01*
X0117532Y0057434D01*
X0117832Y0057734D01*
X0118733Y0057134D02*
X0119333Y0057734D01*
X0119333Y0058375D02*
X0117532Y0059576D01*
X0117532Y0060216D02*
X0117532Y0061117D01*
X0117832Y0061417D01*
X0119033Y0061417D01*
X0119333Y0061117D01*
X0119333Y0060216D01*
X0117532Y0060216D01*
X0109833Y0060216D02*
X0109833Y0061117D01*
X0109533Y0061417D01*
X0108332Y0061417D01*
X0108032Y0061117D01*
X0108032Y0060216D01*
X0109833Y0060216D01*
X0109833Y0059576D02*
X0108032Y0059576D01*
X0108032Y0058375D02*
X0109833Y0059576D01*
X0109833Y0058375D02*
X0108032Y0058375D01*
X0108332Y0057734D02*
X0108032Y0057434D01*
X0108032Y0056833D01*
X0108332Y0056533D01*
X0109533Y0056533D01*
X0109833Y0056833D01*
X0109833Y0057434D01*
X0109533Y0057734D01*
X0108932Y0057734D01*
X0108932Y0057134D01*
X0099833Y0057634D02*
X0099233Y0058234D01*
X0098032Y0058234D01*
X0098332Y0058875D02*
X0099533Y0058875D01*
X0099833Y0059175D01*
X0099833Y0059775D01*
X0099533Y0060076D01*
X0099533Y0060716D02*
X0098332Y0060716D01*
X0098032Y0061016D01*
X0098032Y0061617D01*
X0098332Y0061917D01*
X0099533Y0061917D02*
X0099833Y0061617D01*
X0099833Y0061016D01*
X0099533Y0060716D01*
X0098332Y0060076D02*
X0098032Y0059775D01*
X0098032Y0059175D01*
X0098332Y0058875D01*
X0098032Y0057033D02*
X0099233Y0057033D01*
X0099833Y0057634D01*
X0090333Y0057734D02*
X0089733Y0057134D01*
X0089733Y0057434D02*
X0089733Y0056533D01*
X0090333Y0056533D02*
X0088532Y0056533D01*
X0088532Y0057434D01*
X0088832Y0057734D01*
X0089432Y0057734D01*
X0089733Y0057434D01*
X0090033Y0058375D02*
X0090333Y0058675D01*
X0090333Y0059275D01*
X0090033Y0059576D01*
X0089733Y0059576D01*
X0089432Y0059275D01*
X0089432Y0058675D01*
X0089132Y0058375D01*
X0088832Y0058375D01*
X0088532Y0058675D01*
X0088532Y0059275D01*
X0088832Y0059576D01*
X0088532Y0060216D02*
X0088532Y0061417D01*
X0088532Y0060817D02*
X0090333Y0060817D01*
X0089733Y0062058D02*
X0089733Y0063259D01*
X0089132Y0063259D02*
X0089132Y0062959D01*
X0089132Y0062058D01*
X0088532Y0062358D02*
X0090333Y0062358D01*
X0090333Y0062959D02*
X0088532Y0062959D01*
X0112033Y0040835D02*
X0112033Y0039333D01*
X0112333Y0039033D01*
X0112934Y0039033D01*
X0113234Y0039333D01*
X0113234Y0040835D01*
X0113875Y0040234D02*
X0114475Y0040835D01*
X0115076Y0040234D01*
X0115076Y0039033D01*
X0115716Y0039033D02*
X0115716Y0040835D01*
X0116617Y0040835D01*
X0116917Y0040534D01*
X0116917Y0039934D01*
X0116617Y0039634D01*
X0115716Y0039634D01*
X0116317Y0039634D02*
X0116917Y0039033D01*
X0118158Y0039033D02*
X0118158Y0040835D01*
X0117558Y0040835D02*
X0118759Y0040835D01*
X0119399Y0038733D02*
X0120600Y0038733D01*
X0121241Y0039333D02*
X0121541Y0039033D01*
X0122142Y0039033D01*
X0122442Y0039333D01*
X0123083Y0039333D02*
X0123383Y0039033D01*
X0123983Y0039033D01*
X0124284Y0039333D01*
X0124284Y0040534D01*
X0123983Y0040835D01*
X0123383Y0040835D01*
X0123083Y0040534D01*
X0123083Y0039333D01*
X0122442Y0040534D02*
X0122142Y0040835D01*
X0121541Y0040835D01*
X0121241Y0040534D01*
X0121241Y0039333D01*
X0124924Y0039033D02*
X0124924Y0040835D01*
X0126125Y0039033D01*
X0126125Y0040835D01*
X0126766Y0040835D02*
X0127967Y0039033D01*
X0127967Y0040835D01*
X0126766Y0040835D02*
X0126766Y0039033D01*
X0115076Y0039934D02*
X0113875Y0039934D01*
X0113875Y0040234D02*
X0113875Y0039033D01*
D12*
X0105433Y0189933D02*
X0105433Y0198433D01*
X0136933Y0198433D01*
D13*
X0165933Y0198933D02*
X0165935Y0199010D01*
X0165941Y0199087D01*
X0165951Y0199164D01*
X0165965Y0199240D01*
X0165982Y0199315D01*
X0166004Y0199389D01*
X0166029Y0199462D01*
X0166059Y0199534D01*
X0166091Y0199604D01*
X0166128Y0199672D01*
X0166167Y0199738D01*
X0166210Y0199802D01*
X0166257Y0199864D01*
X0166306Y0199923D01*
X0166359Y0199980D01*
X0166414Y0200034D01*
X0166472Y0200085D01*
X0166533Y0200133D01*
X0166596Y0200178D01*
X0166661Y0200219D01*
X0166728Y0200257D01*
X0166797Y0200292D01*
X0166868Y0200322D01*
X0166940Y0200350D01*
X0167014Y0200373D01*
X0167088Y0200393D01*
X0167164Y0200409D01*
X0167240Y0200421D01*
X0167317Y0200429D01*
X0167394Y0200433D01*
X0167472Y0200433D01*
X0167549Y0200429D01*
X0167626Y0200421D01*
X0167702Y0200409D01*
X0167778Y0200393D01*
X0167852Y0200373D01*
X0167926Y0200350D01*
X0167998Y0200322D01*
X0168069Y0200292D01*
X0168138Y0200257D01*
X0168205Y0200219D01*
X0168270Y0200178D01*
X0168333Y0200133D01*
X0168394Y0200085D01*
X0168452Y0200034D01*
X0168507Y0199980D01*
X0168560Y0199923D01*
X0168609Y0199864D01*
X0168656Y0199802D01*
X0168699Y0199738D01*
X0168738Y0199672D01*
X0168775Y0199604D01*
X0168807Y0199534D01*
X0168837Y0199462D01*
X0168862Y0199389D01*
X0168884Y0199315D01*
X0168901Y0199240D01*
X0168915Y0199164D01*
X0168925Y0199087D01*
X0168931Y0199010D01*
X0168933Y0198933D01*
X0168931Y0198856D01*
X0168925Y0198779D01*
X0168915Y0198702D01*
X0168901Y0198626D01*
X0168884Y0198551D01*
X0168862Y0198477D01*
X0168837Y0198404D01*
X0168807Y0198332D01*
X0168775Y0198262D01*
X0168738Y0198194D01*
X0168699Y0198128D01*
X0168656Y0198064D01*
X0168609Y0198002D01*
X0168560Y0197943D01*
X0168507Y0197886D01*
X0168452Y0197832D01*
X0168394Y0197781D01*
X0168333Y0197733D01*
X0168270Y0197688D01*
X0168205Y0197647D01*
X0168138Y0197609D01*
X0168069Y0197574D01*
X0167998Y0197544D01*
X0167926Y0197516D01*
X0167852Y0197493D01*
X0167778Y0197473D01*
X0167702Y0197457D01*
X0167626Y0197445D01*
X0167549Y0197437D01*
X0167472Y0197433D01*
X0167394Y0197433D01*
X0167317Y0197437D01*
X0167240Y0197445D01*
X0167164Y0197457D01*
X0167088Y0197473D01*
X0167014Y0197493D01*
X0166940Y0197516D01*
X0166868Y0197544D01*
X0166797Y0197574D01*
X0166728Y0197609D01*
X0166661Y0197647D01*
X0166596Y0197688D01*
X0166533Y0197733D01*
X0166472Y0197781D01*
X0166414Y0197832D01*
X0166359Y0197886D01*
X0166306Y0197943D01*
X0166257Y0198002D01*
X0166210Y0198064D01*
X0166167Y0198128D01*
X0166128Y0198194D01*
X0166091Y0198262D01*
X0166059Y0198332D01*
X0166029Y0198404D01*
X0166004Y0198477D01*
X0165982Y0198551D01*
X0165965Y0198626D01*
X0165951Y0198702D01*
X0165941Y0198779D01*
X0165935Y0198856D01*
X0165933Y0198933D01*
X0168933Y0196433D02*
X0168935Y0196510D01*
X0168941Y0196587D01*
X0168951Y0196664D01*
X0168965Y0196740D01*
X0168982Y0196815D01*
X0169004Y0196889D01*
X0169029Y0196962D01*
X0169059Y0197034D01*
X0169091Y0197104D01*
X0169128Y0197172D01*
X0169167Y0197238D01*
X0169210Y0197302D01*
X0169257Y0197364D01*
X0169306Y0197423D01*
X0169359Y0197480D01*
X0169414Y0197534D01*
X0169472Y0197585D01*
X0169533Y0197633D01*
X0169596Y0197678D01*
X0169661Y0197719D01*
X0169728Y0197757D01*
X0169797Y0197792D01*
X0169868Y0197822D01*
X0169940Y0197850D01*
X0170014Y0197873D01*
X0170088Y0197893D01*
X0170164Y0197909D01*
X0170240Y0197921D01*
X0170317Y0197929D01*
X0170394Y0197933D01*
X0170472Y0197933D01*
X0170549Y0197929D01*
X0170626Y0197921D01*
X0170702Y0197909D01*
X0170778Y0197893D01*
X0170852Y0197873D01*
X0170926Y0197850D01*
X0170998Y0197822D01*
X0171069Y0197792D01*
X0171138Y0197757D01*
X0171205Y0197719D01*
X0171270Y0197678D01*
X0171333Y0197633D01*
X0171394Y0197585D01*
X0171452Y0197534D01*
X0171507Y0197480D01*
X0171560Y0197423D01*
X0171609Y0197364D01*
X0171656Y0197302D01*
X0171699Y0197238D01*
X0171738Y0197172D01*
X0171775Y0197104D01*
X0171807Y0197034D01*
X0171837Y0196962D01*
X0171862Y0196889D01*
X0171884Y0196815D01*
X0171901Y0196740D01*
X0171915Y0196664D01*
X0171925Y0196587D01*
X0171931Y0196510D01*
X0171933Y0196433D01*
X0171931Y0196356D01*
X0171925Y0196279D01*
X0171915Y0196202D01*
X0171901Y0196126D01*
X0171884Y0196051D01*
X0171862Y0195977D01*
X0171837Y0195904D01*
X0171807Y0195832D01*
X0171775Y0195762D01*
X0171738Y0195694D01*
X0171699Y0195628D01*
X0171656Y0195564D01*
X0171609Y0195502D01*
X0171560Y0195443D01*
X0171507Y0195386D01*
X0171452Y0195332D01*
X0171394Y0195281D01*
X0171333Y0195233D01*
X0171270Y0195188D01*
X0171205Y0195147D01*
X0171138Y0195109D01*
X0171069Y0195074D01*
X0170998Y0195044D01*
X0170926Y0195016D01*
X0170852Y0194993D01*
X0170778Y0194973D01*
X0170702Y0194957D01*
X0170626Y0194945D01*
X0170549Y0194937D01*
X0170472Y0194933D01*
X0170394Y0194933D01*
X0170317Y0194937D01*
X0170240Y0194945D01*
X0170164Y0194957D01*
X0170088Y0194973D01*
X0170014Y0194993D01*
X0169940Y0195016D01*
X0169868Y0195044D01*
X0169797Y0195074D01*
X0169728Y0195109D01*
X0169661Y0195147D01*
X0169596Y0195188D01*
X0169533Y0195233D01*
X0169472Y0195281D01*
X0169414Y0195332D01*
X0169359Y0195386D01*
X0169306Y0195443D01*
X0169257Y0195502D01*
X0169210Y0195564D01*
X0169167Y0195628D01*
X0169128Y0195694D01*
X0169091Y0195762D01*
X0169059Y0195832D01*
X0169029Y0195904D01*
X0169004Y0195977D01*
X0168982Y0196051D01*
X0168965Y0196126D01*
X0168951Y0196202D01*
X0168941Y0196279D01*
X0168935Y0196356D01*
X0168933Y0196433D01*
X0171933Y0193433D02*
X0171935Y0193510D01*
X0171941Y0193587D01*
X0171951Y0193664D01*
X0171965Y0193740D01*
X0171982Y0193815D01*
X0172004Y0193889D01*
X0172029Y0193962D01*
X0172059Y0194034D01*
X0172091Y0194104D01*
X0172128Y0194172D01*
X0172167Y0194238D01*
X0172210Y0194302D01*
X0172257Y0194364D01*
X0172306Y0194423D01*
X0172359Y0194480D01*
X0172414Y0194534D01*
X0172472Y0194585D01*
X0172533Y0194633D01*
X0172596Y0194678D01*
X0172661Y0194719D01*
X0172728Y0194757D01*
X0172797Y0194792D01*
X0172868Y0194822D01*
X0172940Y0194850D01*
X0173014Y0194873D01*
X0173088Y0194893D01*
X0173164Y0194909D01*
X0173240Y0194921D01*
X0173317Y0194929D01*
X0173394Y0194933D01*
X0173472Y0194933D01*
X0173549Y0194929D01*
X0173626Y0194921D01*
X0173702Y0194909D01*
X0173778Y0194893D01*
X0173852Y0194873D01*
X0173926Y0194850D01*
X0173998Y0194822D01*
X0174069Y0194792D01*
X0174138Y0194757D01*
X0174205Y0194719D01*
X0174270Y0194678D01*
X0174333Y0194633D01*
X0174394Y0194585D01*
X0174452Y0194534D01*
X0174507Y0194480D01*
X0174560Y0194423D01*
X0174609Y0194364D01*
X0174656Y0194302D01*
X0174699Y0194238D01*
X0174738Y0194172D01*
X0174775Y0194104D01*
X0174807Y0194034D01*
X0174837Y0193962D01*
X0174862Y0193889D01*
X0174884Y0193815D01*
X0174901Y0193740D01*
X0174915Y0193664D01*
X0174925Y0193587D01*
X0174931Y0193510D01*
X0174933Y0193433D01*
X0174931Y0193356D01*
X0174925Y0193279D01*
X0174915Y0193202D01*
X0174901Y0193126D01*
X0174884Y0193051D01*
X0174862Y0192977D01*
X0174837Y0192904D01*
X0174807Y0192832D01*
X0174775Y0192762D01*
X0174738Y0192694D01*
X0174699Y0192628D01*
X0174656Y0192564D01*
X0174609Y0192502D01*
X0174560Y0192443D01*
X0174507Y0192386D01*
X0174452Y0192332D01*
X0174394Y0192281D01*
X0174333Y0192233D01*
X0174270Y0192188D01*
X0174205Y0192147D01*
X0174138Y0192109D01*
X0174069Y0192074D01*
X0173998Y0192044D01*
X0173926Y0192016D01*
X0173852Y0191993D01*
X0173778Y0191973D01*
X0173702Y0191957D01*
X0173626Y0191945D01*
X0173549Y0191937D01*
X0173472Y0191933D01*
X0173394Y0191933D01*
X0173317Y0191937D01*
X0173240Y0191945D01*
X0173164Y0191957D01*
X0173088Y0191973D01*
X0173014Y0191993D01*
X0172940Y0192016D01*
X0172868Y0192044D01*
X0172797Y0192074D01*
X0172728Y0192109D01*
X0172661Y0192147D01*
X0172596Y0192188D01*
X0172533Y0192233D01*
X0172472Y0192281D01*
X0172414Y0192332D01*
X0172359Y0192386D01*
X0172306Y0192443D01*
X0172257Y0192502D01*
X0172210Y0192564D01*
X0172167Y0192628D01*
X0172128Y0192694D01*
X0172091Y0192762D01*
X0172059Y0192832D01*
X0172029Y0192904D01*
X0172004Y0192977D01*
X0171982Y0193051D01*
X0171965Y0193126D01*
X0171951Y0193202D01*
X0171941Y0193279D01*
X0171935Y0193356D01*
X0171933Y0193433D01*
X0063161Y0071823D02*
X0063163Y0071907D01*
X0063169Y0071990D01*
X0063179Y0072073D01*
X0063193Y0072156D01*
X0063210Y0072238D01*
X0063232Y0072319D01*
X0063257Y0072398D01*
X0063286Y0072477D01*
X0063319Y0072554D01*
X0063355Y0072629D01*
X0063395Y0072703D01*
X0063438Y0072775D01*
X0063485Y0072844D01*
X0063535Y0072911D01*
X0063588Y0072976D01*
X0063644Y0073038D01*
X0063702Y0073098D01*
X0063764Y0073155D01*
X0063828Y0073208D01*
X0063895Y0073259D01*
X0063964Y0073306D01*
X0064035Y0073351D01*
X0064108Y0073391D01*
X0064183Y0073428D01*
X0064260Y0073462D01*
X0064338Y0073492D01*
X0064417Y0073518D01*
X0064498Y0073541D01*
X0064580Y0073559D01*
X0064662Y0073574D01*
X0064745Y0073585D01*
X0064828Y0073592D01*
X0064912Y0073595D01*
X0064996Y0073594D01*
X0065079Y0073589D01*
X0065163Y0073580D01*
X0065245Y0073567D01*
X0065327Y0073551D01*
X0065408Y0073530D01*
X0065489Y0073506D01*
X0065567Y0073478D01*
X0065645Y0073446D01*
X0065721Y0073410D01*
X0065795Y0073371D01*
X0065867Y0073329D01*
X0065937Y0073283D01*
X0066005Y0073234D01*
X0066070Y0073182D01*
X0066133Y0073127D01*
X0066193Y0073069D01*
X0066251Y0073008D01*
X0066305Y0072944D01*
X0066357Y0072878D01*
X0066405Y0072810D01*
X0066450Y0072739D01*
X0066491Y0072666D01*
X0066530Y0072592D01*
X0066564Y0072516D01*
X0066595Y0072438D01*
X0066622Y0072359D01*
X0066646Y0072278D01*
X0066665Y0072197D01*
X0066681Y0072115D01*
X0066693Y0072032D01*
X0066701Y0071948D01*
X0066705Y0071865D01*
X0066705Y0071781D01*
X0066701Y0071698D01*
X0066693Y0071614D01*
X0066681Y0071531D01*
X0066665Y0071449D01*
X0066646Y0071368D01*
X0066622Y0071287D01*
X0066595Y0071208D01*
X0066564Y0071130D01*
X0066530Y0071054D01*
X0066491Y0070980D01*
X0066450Y0070907D01*
X0066405Y0070836D01*
X0066357Y0070768D01*
X0066305Y0070702D01*
X0066251Y0070638D01*
X0066193Y0070577D01*
X0066133Y0070519D01*
X0066070Y0070464D01*
X0066005Y0070412D01*
X0065937Y0070363D01*
X0065867Y0070317D01*
X0065795Y0070275D01*
X0065721Y0070236D01*
X0065645Y0070200D01*
X0065567Y0070168D01*
X0065489Y0070140D01*
X0065408Y0070116D01*
X0065327Y0070095D01*
X0065245Y0070079D01*
X0065163Y0070066D01*
X0065079Y0070057D01*
X0064996Y0070052D01*
X0064912Y0070051D01*
X0064828Y0070054D01*
X0064745Y0070061D01*
X0064662Y0070072D01*
X0064580Y0070087D01*
X0064498Y0070105D01*
X0064417Y0070128D01*
X0064338Y0070154D01*
X0064260Y0070184D01*
X0064183Y0070218D01*
X0064108Y0070255D01*
X0064035Y0070295D01*
X0063964Y0070340D01*
X0063895Y0070387D01*
X0063828Y0070438D01*
X0063764Y0070491D01*
X0063702Y0070548D01*
X0063644Y0070608D01*
X0063588Y0070670D01*
X0063535Y0070735D01*
X0063485Y0070802D01*
X0063438Y0070871D01*
X0063395Y0070943D01*
X0063355Y0071017D01*
X0063319Y0071092D01*
X0063286Y0071169D01*
X0063257Y0071248D01*
X0063232Y0071327D01*
X0063210Y0071408D01*
X0063193Y0071490D01*
X0063179Y0071573D01*
X0063169Y0071656D01*
X0063163Y0071739D01*
X0063161Y0071823D01*
X0054421Y0072913D02*
X0054423Y0072994D01*
X0054429Y0073076D01*
X0054439Y0073157D01*
X0054453Y0073237D01*
X0054470Y0073316D01*
X0054492Y0073395D01*
X0054517Y0073472D01*
X0054546Y0073549D01*
X0054579Y0073623D01*
X0054616Y0073696D01*
X0054655Y0073767D01*
X0054699Y0073836D01*
X0054745Y0073903D01*
X0054795Y0073967D01*
X0054848Y0074029D01*
X0054904Y0074089D01*
X0054962Y0074145D01*
X0055024Y0074199D01*
X0055088Y0074250D01*
X0055154Y0074297D01*
X0055222Y0074341D01*
X0055293Y0074382D01*
X0055365Y0074419D01*
X0055440Y0074453D01*
X0055515Y0074483D01*
X0055593Y0074509D01*
X0055671Y0074532D01*
X0055750Y0074550D01*
X0055830Y0074565D01*
X0055911Y0074576D01*
X0055992Y0074583D01*
X0056074Y0074586D01*
X0056155Y0074585D01*
X0056236Y0074580D01*
X0056317Y0074571D01*
X0056398Y0074558D01*
X0056478Y0074541D01*
X0056556Y0074521D01*
X0056634Y0074496D01*
X0056711Y0074468D01*
X0056786Y0074436D01*
X0056859Y0074401D01*
X0056930Y0074362D01*
X0057000Y0074319D01*
X0057067Y0074274D01*
X0057133Y0074225D01*
X0057195Y0074173D01*
X0057255Y0074117D01*
X0057312Y0074059D01*
X0057367Y0073999D01*
X0057418Y0073935D01*
X0057466Y0073870D01*
X0057511Y0073802D01*
X0057553Y0073732D01*
X0057591Y0073660D01*
X0057626Y0073586D01*
X0057657Y0073511D01*
X0057684Y0073434D01*
X0057707Y0073356D01*
X0057727Y0073277D01*
X0057743Y0073197D01*
X0057755Y0073116D01*
X0057763Y0073035D01*
X0057767Y0072954D01*
X0057767Y0072872D01*
X0057763Y0072791D01*
X0057755Y0072710D01*
X0057743Y0072629D01*
X0057727Y0072549D01*
X0057707Y0072470D01*
X0057684Y0072392D01*
X0057657Y0072315D01*
X0057626Y0072240D01*
X0057591Y0072166D01*
X0057553Y0072094D01*
X0057511Y0072024D01*
X0057466Y0071956D01*
X0057418Y0071891D01*
X0057367Y0071827D01*
X0057312Y0071767D01*
X0057255Y0071709D01*
X0057195Y0071653D01*
X0057133Y0071601D01*
X0057067Y0071552D01*
X0057000Y0071507D01*
X0056931Y0071464D01*
X0056859Y0071425D01*
X0056786Y0071390D01*
X0056711Y0071358D01*
X0056634Y0071330D01*
X0056556Y0071305D01*
X0056478Y0071285D01*
X0056398Y0071268D01*
X0056317Y0071255D01*
X0056236Y0071246D01*
X0056155Y0071241D01*
X0056074Y0071240D01*
X0055992Y0071243D01*
X0055911Y0071250D01*
X0055830Y0071261D01*
X0055750Y0071276D01*
X0055671Y0071294D01*
X0055593Y0071317D01*
X0055515Y0071343D01*
X0055440Y0071373D01*
X0055365Y0071407D01*
X0055293Y0071444D01*
X0055222Y0071485D01*
X0055154Y0071529D01*
X0055088Y0071576D01*
X0055024Y0071627D01*
X0054962Y0071681D01*
X0054904Y0071737D01*
X0054848Y0071797D01*
X0054795Y0071859D01*
X0054745Y0071923D01*
X0054699Y0071990D01*
X0054655Y0072059D01*
X0054616Y0072130D01*
X0054579Y0072203D01*
X0054546Y0072277D01*
X0054517Y0072354D01*
X0054492Y0072431D01*
X0054470Y0072510D01*
X0054453Y0072589D01*
X0054439Y0072669D01*
X0054429Y0072750D01*
X0054423Y0072832D01*
X0054421Y0072913D01*
X0063161Y0058043D02*
X0063163Y0058127D01*
X0063169Y0058210D01*
X0063179Y0058293D01*
X0063193Y0058376D01*
X0063210Y0058458D01*
X0063232Y0058539D01*
X0063257Y0058618D01*
X0063286Y0058697D01*
X0063319Y0058774D01*
X0063355Y0058849D01*
X0063395Y0058923D01*
X0063438Y0058995D01*
X0063485Y0059064D01*
X0063535Y0059131D01*
X0063588Y0059196D01*
X0063644Y0059258D01*
X0063702Y0059318D01*
X0063764Y0059375D01*
X0063828Y0059428D01*
X0063895Y0059479D01*
X0063964Y0059526D01*
X0064035Y0059571D01*
X0064108Y0059611D01*
X0064183Y0059648D01*
X0064260Y0059682D01*
X0064338Y0059712D01*
X0064417Y0059738D01*
X0064498Y0059761D01*
X0064580Y0059779D01*
X0064662Y0059794D01*
X0064745Y0059805D01*
X0064828Y0059812D01*
X0064912Y0059815D01*
X0064996Y0059814D01*
X0065079Y0059809D01*
X0065163Y0059800D01*
X0065245Y0059787D01*
X0065327Y0059771D01*
X0065408Y0059750D01*
X0065489Y0059726D01*
X0065567Y0059698D01*
X0065645Y0059666D01*
X0065721Y0059630D01*
X0065795Y0059591D01*
X0065867Y0059549D01*
X0065937Y0059503D01*
X0066005Y0059454D01*
X0066070Y0059402D01*
X0066133Y0059347D01*
X0066193Y0059289D01*
X0066251Y0059228D01*
X0066305Y0059164D01*
X0066357Y0059098D01*
X0066405Y0059030D01*
X0066450Y0058959D01*
X0066491Y0058886D01*
X0066530Y0058812D01*
X0066564Y0058736D01*
X0066595Y0058658D01*
X0066622Y0058579D01*
X0066646Y0058498D01*
X0066665Y0058417D01*
X0066681Y0058335D01*
X0066693Y0058252D01*
X0066701Y0058168D01*
X0066705Y0058085D01*
X0066705Y0058001D01*
X0066701Y0057918D01*
X0066693Y0057834D01*
X0066681Y0057751D01*
X0066665Y0057669D01*
X0066646Y0057588D01*
X0066622Y0057507D01*
X0066595Y0057428D01*
X0066564Y0057350D01*
X0066530Y0057274D01*
X0066491Y0057200D01*
X0066450Y0057127D01*
X0066405Y0057056D01*
X0066357Y0056988D01*
X0066305Y0056922D01*
X0066251Y0056858D01*
X0066193Y0056797D01*
X0066133Y0056739D01*
X0066070Y0056684D01*
X0066005Y0056632D01*
X0065937Y0056583D01*
X0065867Y0056537D01*
X0065795Y0056495D01*
X0065721Y0056456D01*
X0065645Y0056420D01*
X0065567Y0056388D01*
X0065489Y0056360D01*
X0065408Y0056336D01*
X0065327Y0056315D01*
X0065245Y0056299D01*
X0065163Y0056286D01*
X0065079Y0056277D01*
X0064996Y0056272D01*
X0064912Y0056271D01*
X0064828Y0056274D01*
X0064745Y0056281D01*
X0064662Y0056292D01*
X0064580Y0056307D01*
X0064498Y0056325D01*
X0064417Y0056348D01*
X0064338Y0056374D01*
X0064260Y0056404D01*
X0064183Y0056438D01*
X0064108Y0056475D01*
X0064035Y0056515D01*
X0063964Y0056560D01*
X0063895Y0056607D01*
X0063828Y0056658D01*
X0063764Y0056711D01*
X0063702Y0056768D01*
X0063644Y0056828D01*
X0063588Y0056890D01*
X0063535Y0056955D01*
X0063485Y0057022D01*
X0063438Y0057091D01*
X0063395Y0057163D01*
X0063355Y0057237D01*
X0063319Y0057312D01*
X0063286Y0057389D01*
X0063257Y0057468D01*
X0063232Y0057547D01*
X0063210Y0057628D01*
X0063193Y0057710D01*
X0063179Y0057793D01*
X0063169Y0057876D01*
X0063163Y0057959D01*
X0063161Y0058043D01*
X0054421Y0057953D02*
X0054423Y0058034D01*
X0054429Y0058116D01*
X0054439Y0058197D01*
X0054453Y0058277D01*
X0054470Y0058356D01*
X0054492Y0058435D01*
X0054517Y0058512D01*
X0054546Y0058589D01*
X0054579Y0058663D01*
X0054616Y0058736D01*
X0054655Y0058807D01*
X0054699Y0058876D01*
X0054745Y0058943D01*
X0054795Y0059007D01*
X0054848Y0059069D01*
X0054904Y0059129D01*
X0054962Y0059185D01*
X0055024Y0059239D01*
X0055088Y0059290D01*
X0055154Y0059337D01*
X0055222Y0059381D01*
X0055293Y0059422D01*
X0055365Y0059459D01*
X0055440Y0059493D01*
X0055515Y0059523D01*
X0055593Y0059549D01*
X0055671Y0059572D01*
X0055750Y0059590D01*
X0055830Y0059605D01*
X0055911Y0059616D01*
X0055992Y0059623D01*
X0056074Y0059626D01*
X0056155Y0059625D01*
X0056236Y0059620D01*
X0056317Y0059611D01*
X0056398Y0059598D01*
X0056478Y0059581D01*
X0056556Y0059561D01*
X0056634Y0059536D01*
X0056711Y0059508D01*
X0056786Y0059476D01*
X0056859Y0059441D01*
X0056930Y0059402D01*
X0057000Y0059359D01*
X0057067Y0059314D01*
X0057133Y0059265D01*
X0057195Y0059213D01*
X0057255Y0059157D01*
X0057312Y0059099D01*
X0057367Y0059039D01*
X0057418Y0058975D01*
X0057466Y0058910D01*
X0057511Y0058842D01*
X0057553Y0058772D01*
X0057591Y0058700D01*
X0057626Y0058626D01*
X0057657Y0058551D01*
X0057684Y0058474D01*
X0057707Y0058396D01*
X0057727Y0058317D01*
X0057743Y0058237D01*
X0057755Y0058156D01*
X0057763Y0058075D01*
X0057767Y0057994D01*
X0057767Y0057912D01*
X0057763Y0057831D01*
X0057755Y0057750D01*
X0057743Y0057669D01*
X0057727Y0057589D01*
X0057707Y0057510D01*
X0057684Y0057432D01*
X0057657Y0057355D01*
X0057626Y0057280D01*
X0057591Y0057206D01*
X0057553Y0057134D01*
X0057511Y0057064D01*
X0057466Y0056996D01*
X0057418Y0056931D01*
X0057367Y0056867D01*
X0057312Y0056807D01*
X0057255Y0056749D01*
X0057195Y0056693D01*
X0057133Y0056641D01*
X0057067Y0056592D01*
X0057000Y0056547D01*
X0056931Y0056504D01*
X0056859Y0056465D01*
X0056786Y0056430D01*
X0056711Y0056398D01*
X0056634Y0056370D01*
X0056556Y0056345D01*
X0056478Y0056325D01*
X0056398Y0056308D01*
X0056317Y0056295D01*
X0056236Y0056286D01*
X0056155Y0056281D01*
X0056074Y0056280D01*
X0055992Y0056283D01*
X0055911Y0056290D01*
X0055830Y0056301D01*
X0055750Y0056316D01*
X0055671Y0056334D01*
X0055593Y0056357D01*
X0055515Y0056383D01*
X0055440Y0056413D01*
X0055365Y0056447D01*
X0055293Y0056484D01*
X0055222Y0056525D01*
X0055154Y0056569D01*
X0055088Y0056616D01*
X0055024Y0056667D01*
X0054962Y0056721D01*
X0054904Y0056777D01*
X0054848Y0056837D01*
X0054795Y0056899D01*
X0054745Y0056963D01*
X0054699Y0057030D01*
X0054655Y0057099D01*
X0054616Y0057170D01*
X0054579Y0057243D01*
X0054546Y0057317D01*
X0054517Y0057394D01*
X0054492Y0057471D01*
X0054470Y0057550D01*
X0054453Y0057629D01*
X0054439Y0057709D01*
X0054429Y0057790D01*
X0054423Y0057872D01*
X0054421Y0057953D01*
X0044433Y0041933D02*
X0044435Y0042010D01*
X0044441Y0042087D01*
X0044451Y0042164D01*
X0044465Y0042240D01*
X0044482Y0042315D01*
X0044504Y0042389D01*
X0044529Y0042462D01*
X0044559Y0042534D01*
X0044591Y0042604D01*
X0044628Y0042672D01*
X0044667Y0042738D01*
X0044710Y0042802D01*
X0044757Y0042864D01*
X0044806Y0042923D01*
X0044859Y0042980D01*
X0044914Y0043034D01*
X0044972Y0043085D01*
X0045033Y0043133D01*
X0045096Y0043178D01*
X0045161Y0043219D01*
X0045228Y0043257D01*
X0045297Y0043292D01*
X0045368Y0043322D01*
X0045440Y0043350D01*
X0045514Y0043373D01*
X0045588Y0043393D01*
X0045664Y0043409D01*
X0045740Y0043421D01*
X0045817Y0043429D01*
X0045894Y0043433D01*
X0045972Y0043433D01*
X0046049Y0043429D01*
X0046126Y0043421D01*
X0046202Y0043409D01*
X0046278Y0043393D01*
X0046352Y0043373D01*
X0046426Y0043350D01*
X0046498Y0043322D01*
X0046569Y0043292D01*
X0046638Y0043257D01*
X0046705Y0043219D01*
X0046770Y0043178D01*
X0046833Y0043133D01*
X0046894Y0043085D01*
X0046952Y0043034D01*
X0047007Y0042980D01*
X0047060Y0042923D01*
X0047109Y0042864D01*
X0047156Y0042802D01*
X0047199Y0042738D01*
X0047238Y0042672D01*
X0047275Y0042604D01*
X0047307Y0042534D01*
X0047337Y0042462D01*
X0047362Y0042389D01*
X0047384Y0042315D01*
X0047401Y0042240D01*
X0047415Y0042164D01*
X0047425Y0042087D01*
X0047431Y0042010D01*
X0047433Y0041933D01*
X0047431Y0041856D01*
X0047425Y0041779D01*
X0047415Y0041702D01*
X0047401Y0041626D01*
X0047384Y0041551D01*
X0047362Y0041477D01*
X0047337Y0041404D01*
X0047307Y0041332D01*
X0047275Y0041262D01*
X0047238Y0041194D01*
X0047199Y0041128D01*
X0047156Y0041064D01*
X0047109Y0041002D01*
X0047060Y0040943D01*
X0047007Y0040886D01*
X0046952Y0040832D01*
X0046894Y0040781D01*
X0046833Y0040733D01*
X0046770Y0040688D01*
X0046705Y0040647D01*
X0046638Y0040609D01*
X0046569Y0040574D01*
X0046498Y0040544D01*
X0046426Y0040516D01*
X0046352Y0040493D01*
X0046278Y0040473D01*
X0046202Y0040457D01*
X0046126Y0040445D01*
X0046049Y0040437D01*
X0045972Y0040433D01*
X0045894Y0040433D01*
X0045817Y0040437D01*
X0045740Y0040445D01*
X0045664Y0040457D01*
X0045588Y0040473D01*
X0045514Y0040493D01*
X0045440Y0040516D01*
X0045368Y0040544D01*
X0045297Y0040574D01*
X0045228Y0040609D01*
X0045161Y0040647D01*
X0045096Y0040688D01*
X0045033Y0040733D01*
X0044972Y0040781D01*
X0044914Y0040832D01*
X0044859Y0040886D01*
X0044806Y0040943D01*
X0044757Y0041002D01*
X0044710Y0041064D01*
X0044667Y0041128D01*
X0044628Y0041194D01*
X0044591Y0041262D01*
X0044559Y0041332D01*
X0044529Y0041404D01*
X0044504Y0041477D01*
X0044482Y0041551D01*
X0044465Y0041626D01*
X0044451Y0041702D01*
X0044441Y0041779D01*
X0044435Y0041856D01*
X0044433Y0041933D01*
X0180433Y0042933D02*
X0180435Y0043010D01*
X0180441Y0043087D01*
X0180451Y0043164D01*
X0180465Y0043240D01*
X0180482Y0043315D01*
X0180504Y0043389D01*
X0180529Y0043462D01*
X0180559Y0043534D01*
X0180591Y0043604D01*
X0180628Y0043672D01*
X0180667Y0043738D01*
X0180710Y0043802D01*
X0180757Y0043864D01*
X0180806Y0043923D01*
X0180859Y0043980D01*
X0180914Y0044034D01*
X0180972Y0044085D01*
X0181033Y0044133D01*
X0181096Y0044178D01*
X0181161Y0044219D01*
X0181228Y0044257D01*
X0181297Y0044292D01*
X0181368Y0044322D01*
X0181440Y0044350D01*
X0181514Y0044373D01*
X0181588Y0044393D01*
X0181664Y0044409D01*
X0181740Y0044421D01*
X0181817Y0044429D01*
X0181894Y0044433D01*
X0181972Y0044433D01*
X0182049Y0044429D01*
X0182126Y0044421D01*
X0182202Y0044409D01*
X0182278Y0044393D01*
X0182352Y0044373D01*
X0182426Y0044350D01*
X0182498Y0044322D01*
X0182569Y0044292D01*
X0182638Y0044257D01*
X0182705Y0044219D01*
X0182770Y0044178D01*
X0182833Y0044133D01*
X0182894Y0044085D01*
X0182952Y0044034D01*
X0183007Y0043980D01*
X0183060Y0043923D01*
X0183109Y0043864D01*
X0183156Y0043802D01*
X0183199Y0043738D01*
X0183238Y0043672D01*
X0183275Y0043604D01*
X0183307Y0043534D01*
X0183337Y0043462D01*
X0183362Y0043389D01*
X0183384Y0043315D01*
X0183401Y0043240D01*
X0183415Y0043164D01*
X0183425Y0043087D01*
X0183431Y0043010D01*
X0183433Y0042933D01*
X0183431Y0042856D01*
X0183425Y0042779D01*
X0183415Y0042702D01*
X0183401Y0042626D01*
X0183384Y0042551D01*
X0183362Y0042477D01*
X0183337Y0042404D01*
X0183307Y0042332D01*
X0183275Y0042262D01*
X0183238Y0042194D01*
X0183199Y0042128D01*
X0183156Y0042064D01*
X0183109Y0042002D01*
X0183060Y0041943D01*
X0183007Y0041886D01*
X0182952Y0041832D01*
X0182894Y0041781D01*
X0182833Y0041733D01*
X0182770Y0041688D01*
X0182705Y0041647D01*
X0182638Y0041609D01*
X0182569Y0041574D01*
X0182498Y0041544D01*
X0182426Y0041516D01*
X0182352Y0041493D01*
X0182278Y0041473D01*
X0182202Y0041457D01*
X0182126Y0041445D01*
X0182049Y0041437D01*
X0181972Y0041433D01*
X0181894Y0041433D01*
X0181817Y0041437D01*
X0181740Y0041445D01*
X0181664Y0041457D01*
X0181588Y0041473D01*
X0181514Y0041493D01*
X0181440Y0041516D01*
X0181368Y0041544D01*
X0181297Y0041574D01*
X0181228Y0041609D01*
X0181161Y0041647D01*
X0181096Y0041688D01*
X0181033Y0041733D01*
X0180972Y0041781D01*
X0180914Y0041832D01*
X0180859Y0041886D01*
X0180806Y0041943D01*
X0180757Y0042002D01*
X0180710Y0042064D01*
X0180667Y0042128D01*
X0180628Y0042194D01*
X0180591Y0042262D01*
X0180559Y0042332D01*
X0180529Y0042404D01*
X0180504Y0042477D01*
X0180482Y0042551D01*
X0180465Y0042626D01*
X0180451Y0042702D01*
X0180441Y0042779D01*
X0180435Y0042856D01*
X0180433Y0042933D01*
X0046433Y0200433D02*
X0046435Y0200510D01*
X0046441Y0200587D01*
X0046451Y0200664D01*
X0046465Y0200740D01*
X0046482Y0200815D01*
X0046504Y0200889D01*
X0046529Y0200962D01*
X0046559Y0201034D01*
X0046591Y0201104D01*
X0046628Y0201172D01*
X0046667Y0201238D01*
X0046710Y0201302D01*
X0046757Y0201364D01*
X0046806Y0201423D01*
X0046859Y0201480D01*
X0046914Y0201534D01*
X0046972Y0201585D01*
X0047033Y0201633D01*
X0047096Y0201678D01*
X0047161Y0201719D01*
X0047228Y0201757D01*
X0047297Y0201792D01*
X0047368Y0201822D01*
X0047440Y0201850D01*
X0047514Y0201873D01*
X0047588Y0201893D01*
X0047664Y0201909D01*
X0047740Y0201921D01*
X0047817Y0201929D01*
X0047894Y0201933D01*
X0047972Y0201933D01*
X0048049Y0201929D01*
X0048126Y0201921D01*
X0048202Y0201909D01*
X0048278Y0201893D01*
X0048352Y0201873D01*
X0048426Y0201850D01*
X0048498Y0201822D01*
X0048569Y0201792D01*
X0048638Y0201757D01*
X0048705Y0201719D01*
X0048770Y0201678D01*
X0048833Y0201633D01*
X0048894Y0201585D01*
X0048952Y0201534D01*
X0049007Y0201480D01*
X0049060Y0201423D01*
X0049109Y0201364D01*
X0049156Y0201302D01*
X0049199Y0201238D01*
X0049238Y0201172D01*
X0049275Y0201104D01*
X0049307Y0201034D01*
X0049337Y0200962D01*
X0049362Y0200889D01*
X0049384Y0200815D01*
X0049401Y0200740D01*
X0049415Y0200664D01*
X0049425Y0200587D01*
X0049431Y0200510D01*
X0049433Y0200433D01*
X0049431Y0200356D01*
X0049425Y0200279D01*
X0049415Y0200202D01*
X0049401Y0200126D01*
X0049384Y0200051D01*
X0049362Y0199977D01*
X0049337Y0199904D01*
X0049307Y0199832D01*
X0049275Y0199762D01*
X0049238Y0199694D01*
X0049199Y0199628D01*
X0049156Y0199564D01*
X0049109Y0199502D01*
X0049060Y0199443D01*
X0049007Y0199386D01*
X0048952Y0199332D01*
X0048894Y0199281D01*
X0048833Y0199233D01*
X0048770Y0199188D01*
X0048705Y0199147D01*
X0048638Y0199109D01*
X0048569Y0199074D01*
X0048498Y0199044D01*
X0048426Y0199016D01*
X0048352Y0198993D01*
X0048278Y0198973D01*
X0048202Y0198957D01*
X0048126Y0198945D01*
X0048049Y0198937D01*
X0047972Y0198933D01*
X0047894Y0198933D01*
X0047817Y0198937D01*
X0047740Y0198945D01*
X0047664Y0198957D01*
X0047588Y0198973D01*
X0047514Y0198993D01*
X0047440Y0199016D01*
X0047368Y0199044D01*
X0047297Y0199074D01*
X0047228Y0199109D01*
X0047161Y0199147D01*
X0047096Y0199188D01*
X0047033Y0199233D01*
X0046972Y0199281D01*
X0046914Y0199332D01*
X0046859Y0199386D01*
X0046806Y0199443D01*
X0046757Y0199502D01*
X0046710Y0199564D01*
X0046667Y0199628D01*
X0046628Y0199694D01*
X0046591Y0199762D01*
X0046559Y0199832D01*
X0046529Y0199904D01*
X0046504Y0199977D01*
X0046482Y0200051D01*
X0046465Y0200126D01*
X0046451Y0200202D01*
X0046441Y0200279D01*
X0046435Y0200356D01*
X0046433Y0200433D01*
D14*
X0056433Y0126933D02*
X0059933Y0126933D01*
X0069933Y0126933D01*
X0073433Y0126933D01*
X0076933Y0118933D02*
X0076933Y0117933D01*
X0077933Y0117933D01*
X0077933Y0111933D01*
X0076933Y0111933D01*
X0076933Y0110933D01*
X0073433Y0102933D02*
X0069433Y0102933D01*
X0059933Y0102933D01*
X0056433Y0102933D01*
X0052933Y0110933D02*
X0052933Y0111933D01*
X0051933Y0111933D01*
X0051933Y0117933D01*
X0052933Y0117933D01*
X0052933Y0118933D01*
X0063933Y0114933D02*
X0063935Y0114996D01*
X0063941Y0115058D01*
X0063951Y0115120D01*
X0063964Y0115182D01*
X0063982Y0115242D01*
X0064003Y0115301D01*
X0064028Y0115359D01*
X0064057Y0115415D01*
X0064089Y0115469D01*
X0064124Y0115521D01*
X0064162Y0115570D01*
X0064204Y0115618D01*
X0064248Y0115662D01*
X0064296Y0115704D01*
X0064345Y0115742D01*
X0064397Y0115777D01*
X0064451Y0115809D01*
X0064507Y0115838D01*
X0064565Y0115863D01*
X0064624Y0115884D01*
X0064684Y0115902D01*
X0064746Y0115915D01*
X0064808Y0115925D01*
X0064870Y0115931D01*
X0064933Y0115933D01*
X0064996Y0115931D01*
X0065058Y0115925D01*
X0065120Y0115915D01*
X0065182Y0115902D01*
X0065242Y0115884D01*
X0065301Y0115863D01*
X0065359Y0115838D01*
X0065415Y0115809D01*
X0065469Y0115777D01*
X0065521Y0115742D01*
X0065570Y0115704D01*
X0065618Y0115662D01*
X0065662Y0115618D01*
X0065704Y0115570D01*
X0065742Y0115521D01*
X0065777Y0115469D01*
X0065809Y0115415D01*
X0065838Y0115359D01*
X0065863Y0115301D01*
X0065884Y0115242D01*
X0065902Y0115182D01*
X0065915Y0115120D01*
X0065925Y0115058D01*
X0065931Y0114996D01*
X0065933Y0114933D01*
X0065931Y0114870D01*
X0065925Y0114808D01*
X0065915Y0114746D01*
X0065902Y0114684D01*
X0065884Y0114624D01*
X0065863Y0114565D01*
X0065838Y0114507D01*
X0065809Y0114451D01*
X0065777Y0114397D01*
X0065742Y0114345D01*
X0065704Y0114296D01*
X0065662Y0114248D01*
X0065618Y0114204D01*
X0065570Y0114162D01*
X0065521Y0114124D01*
X0065469Y0114089D01*
X0065415Y0114057D01*
X0065359Y0114028D01*
X0065301Y0114003D01*
X0065242Y0113982D01*
X0065182Y0113964D01*
X0065120Y0113951D01*
X0065058Y0113941D01*
X0064996Y0113935D01*
X0064933Y0113933D01*
X0064870Y0113935D01*
X0064808Y0113941D01*
X0064746Y0113951D01*
X0064684Y0113964D01*
X0064624Y0113982D01*
X0064565Y0114003D01*
X0064507Y0114028D01*
X0064451Y0114057D01*
X0064397Y0114089D01*
X0064345Y0114124D01*
X0064296Y0114162D01*
X0064248Y0114204D01*
X0064204Y0114248D01*
X0064162Y0114296D01*
X0064124Y0114345D01*
X0064089Y0114397D01*
X0064057Y0114451D01*
X0064028Y0114507D01*
X0064003Y0114565D01*
X0063982Y0114624D01*
X0063964Y0114684D01*
X0063951Y0114746D01*
X0063941Y0114808D01*
X0063935Y0114870D01*
X0063933Y0114933D01*
X0057933Y0114933D02*
X0057935Y0115105D01*
X0057941Y0115276D01*
X0057952Y0115448D01*
X0057967Y0115619D01*
X0057986Y0115790D01*
X0058009Y0115960D01*
X0058036Y0116130D01*
X0058068Y0116299D01*
X0058103Y0116467D01*
X0058143Y0116634D01*
X0058187Y0116800D01*
X0058234Y0116965D01*
X0058286Y0117129D01*
X0058342Y0117291D01*
X0058402Y0117452D01*
X0058466Y0117612D01*
X0058534Y0117770D01*
X0058605Y0117926D01*
X0058680Y0118080D01*
X0058760Y0118233D01*
X0058842Y0118383D01*
X0058929Y0118532D01*
X0059019Y0118678D01*
X0059113Y0118822D01*
X0059210Y0118964D01*
X0059311Y0119103D01*
X0059415Y0119240D01*
X0059522Y0119374D01*
X0059633Y0119505D01*
X0059746Y0119634D01*
X0059863Y0119760D01*
X0059983Y0119883D01*
X0060106Y0120003D01*
X0060232Y0120120D01*
X0060361Y0120233D01*
X0060492Y0120344D01*
X0060626Y0120451D01*
X0060763Y0120555D01*
X0060902Y0120656D01*
X0061044Y0120753D01*
X0061188Y0120847D01*
X0061334Y0120937D01*
X0061483Y0121024D01*
X0061633Y0121106D01*
X0061786Y0121186D01*
X0061940Y0121261D01*
X0062096Y0121332D01*
X0062254Y0121400D01*
X0062414Y0121464D01*
X0062575Y0121524D01*
X0062737Y0121580D01*
X0062901Y0121632D01*
X0063066Y0121679D01*
X0063232Y0121723D01*
X0063399Y0121763D01*
X0063567Y0121798D01*
X0063736Y0121830D01*
X0063906Y0121857D01*
X0064076Y0121880D01*
X0064247Y0121899D01*
X0064418Y0121914D01*
X0064590Y0121925D01*
X0064761Y0121931D01*
X0064933Y0121933D01*
X0065105Y0121931D01*
X0065276Y0121925D01*
X0065448Y0121914D01*
X0065619Y0121899D01*
X0065790Y0121880D01*
X0065960Y0121857D01*
X0066130Y0121830D01*
X0066299Y0121798D01*
X0066467Y0121763D01*
X0066634Y0121723D01*
X0066800Y0121679D01*
X0066965Y0121632D01*
X0067129Y0121580D01*
X0067291Y0121524D01*
X0067452Y0121464D01*
X0067612Y0121400D01*
X0067770Y0121332D01*
X0067926Y0121261D01*
X0068080Y0121186D01*
X0068233Y0121106D01*
X0068383Y0121024D01*
X0068532Y0120937D01*
X0068678Y0120847D01*
X0068822Y0120753D01*
X0068964Y0120656D01*
X0069103Y0120555D01*
X0069240Y0120451D01*
X0069374Y0120344D01*
X0069505Y0120233D01*
X0069634Y0120120D01*
X0069760Y0120003D01*
X0069883Y0119883D01*
X0070003Y0119760D01*
X0070120Y0119634D01*
X0070233Y0119505D01*
X0070344Y0119374D01*
X0070451Y0119240D01*
X0070555Y0119103D01*
X0070656Y0118964D01*
X0070753Y0118822D01*
X0070847Y0118678D01*
X0070937Y0118532D01*
X0071024Y0118383D01*
X0071106Y0118233D01*
X0071186Y0118080D01*
X0071261Y0117926D01*
X0071332Y0117770D01*
X0071400Y0117612D01*
X0071464Y0117452D01*
X0071524Y0117291D01*
X0071580Y0117129D01*
X0071632Y0116965D01*
X0071679Y0116800D01*
X0071723Y0116634D01*
X0071763Y0116467D01*
X0071798Y0116299D01*
X0071830Y0116130D01*
X0071857Y0115960D01*
X0071880Y0115790D01*
X0071899Y0115619D01*
X0071914Y0115448D01*
X0071925Y0115276D01*
X0071931Y0115105D01*
X0071933Y0114933D01*
X0071931Y0114761D01*
X0071925Y0114590D01*
X0071914Y0114418D01*
X0071899Y0114247D01*
X0071880Y0114076D01*
X0071857Y0113906D01*
X0071830Y0113736D01*
X0071798Y0113567D01*
X0071763Y0113399D01*
X0071723Y0113232D01*
X0071679Y0113066D01*
X0071632Y0112901D01*
X0071580Y0112737D01*
X0071524Y0112575D01*
X0071464Y0112414D01*
X0071400Y0112254D01*
X0071332Y0112096D01*
X0071261Y0111940D01*
X0071186Y0111786D01*
X0071106Y0111633D01*
X0071024Y0111483D01*
X0070937Y0111334D01*
X0070847Y0111188D01*
X0070753Y0111044D01*
X0070656Y0110902D01*
X0070555Y0110763D01*
X0070451Y0110626D01*
X0070344Y0110492D01*
X0070233Y0110361D01*
X0070120Y0110232D01*
X0070003Y0110106D01*
X0069883Y0109983D01*
X0069760Y0109863D01*
X0069634Y0109746D01*
X0069505Y0109633D01*
X0069374Y0109522D01*
X0069240Y0109415D01*
X0069103Y0109311D01*
X0068964Y0109210D01*
X0068822Y0109113D01*
X0068678Y0109019D01*
X0068532Y0108929D01*
X0068383Y0108842D01*
X0068233Y0108760D01*
X0068080Y0108680D01*
X0067926Y0108605D01*
X0067770Y0108534D01*
X0067612Y0108466D01*
X0067452Y0108402D01*
X0067291Y0108342D01*
X0067129Y0108286D01*
X0066965Y0108234D01*
X0066800Y0108187D01*
X0066634Y0108143D01*
X0066467Y0108103D01*
X0066299Y0108068D01*
X0066130Y0108036D01*
X0065960Y0108009D01*
X0065790Y0107986D01*
X0065619Y0107967D01*
X0065448Y0107952D01*
X0065276Y0107941D01*
X0065105Y0107935D01*
X0064933Y0107933D01*
X0064761Y0107935D01*
X0064590Y0107941D01*
X0064418Y0107952D01*
X0064247Y0107967D01*
X0064076Y0107986D01*
X0063906Y0108009D01*
X0063736Y0108036D01*
X0063567Y0108068D01*
X0063399Y0108103D01*
X0063232Y0108143D01*
X0063066Y0108187D01*
X0062901Y0108234D01*
X0062737Y0108286D01*
X0062575Y0108342D01*
X0062414Y0108402D01*
X0062254Y0108466D01*
X0062096Y0108534D01*
X0061940Y0108605D01*
X0061786Y0108680D01*
X0061633Y0108760D01*
X0061483Y0108842D01*
X0061334Y0108929D01*
X0061188Y0109019D01*
X0061044Y0109113D01*
X0060902Y0109210D01*
X0060763Y0109311D01*
X0060626Y0109415D01*
X0060492Y0109522D01*
X0060361Y0109633D01*
X0060232Y0109746D01*
X0060106Y0109863D01*
X0059983Y0109983D01*
X0059863Y0110106D01*
X0059746Y0110232D01*
X0059633Y0110361D01*
X0059522Y0110492D01*
X0059415Y0110626D01*
X0059311Y0110763D01*
X0059210Y0110902D01*
X0059113Y0111044D01*
X0059019Y0111188D01*
X0058929Y0111334D01*
X0058842Y0111483D01*
X0058760Y0111633D01*
X0058680Y0111786D01*
X0058605Y0111940D01*
X0058534Y0112096D01*
X0058466Y0112254D01*
X0058402Y0112414D01*
X0058342Y0112575D01*
X0058286Y0112737D01*
X0058234Y0112901D01*
X0058187Y0113066D01*
X0058143Y0113232D01*
X0058103Y0113399D01*
X0058068Y0113567D01*
X0058036Y0113736D01*
X0058009Y0113906D01*
X0057986Y0114076D01*
X0057967Y0114247D01*
X0057952Y0114418D01*
X0057941Y0114590D01*
X0057935Y0114761D01*
X0057933Y0114933D01*
X0086433Y0105433D02*
X0086433Y0097433D01*
X0087433Y0096433D01*
X0095433Y0096433D01*
X0096433Y0097433D01*
X0097433Y0096433D01*
X0105433Y0096433D01*
X0106433Y0097433D01*
X0106433Y0105433D01*
X0105433Y0106433D01*
X0097433Y0106433D01*
X0096433Y0105433D01*
X0095433Y0106433D01*
X0087433Y0106433D01*
X0086433Y0105433D01*
X0086433Y0053933D02*
X0083933Y0051433D01*
X0083933Y0046433D01*
X0086433Y0043933D01*
X0091433Y0043933D01*
X0093933Y0046433D01*
X0096433Y0043933D01*
X0101433Y0043933D01*
X0103933Y0046433D01*
X0106433Y0043933D01*
X0111433Y0043933D01*
X0113933Y0046433D01*
X0116433Y0043933D01*
X0121433Y0043933D01*
X0123933Y0046433D01*
X0126433Y0043933D01*
X0131433Y0043933D01*
X0133933Y0046433D01*
X0136433Y0043933D01*
X0141433Y0043933D01*
X0143933Y0046433D01*
X0146433Y0043933D01*
X0151433Y0043933D01*
X0153933Y0046433D01*
X0153933Y0051433D01*
X0151433Y0053933D01*
X0146433Y0053933D01*
X0143933Y0051433D01*
X0141433Y0053933D01*
X0136433Y0053933D01*
X0133933Y0051433D01*
X0131433Y0053933D01*
X0126433Y0053933D01*
X0123933Y0051433D01*
X0121433Y0053933D01*
X0116433Y0053933D01*
X0113933Y0051433D01*
X0111433Y0053933D01*
X0106433Y0053933D01*
X0103933Y0051433D01*
X0101433Y0053933D01*
X0096433Y0053933D01*
X0093933Y0051433D01*
X0091433Y0053933D01*
X0086433Y0053933D01*
X0167433Y0055433D02*
X0167433Y0060433D01*
X0169933Y0062933D01*
X0167433Y0065433D01*
X0167433Y0070433D01*
X0169933Y0072933D01*
X0167433Y0075433D01*
X0167433Y0080433D01*
X0169933Y0082933D01*
X0167433Y0085433D01*
X0167433Y0090433D01*
X0169933Y0092933D01*
X0167433Y0095433D01*
X0167433Y0100433D01*
X0169933Y0102933D01*
X0167433Y0105433D01*
X0167433Y0110433D01*
X0169933Y0112933D01*
X0174933Y0112933D01*
X0177433Y0110433D01*
X0177433Y0105433D01*
X0174933Y0102933D01*
X0177433Y0100433D01*
X0177433Y0095433D01*
X0174933Y0092933D01*
X0177433Y0090433D01*
X0177433Y0085433D01*
X0174933Y0082933D01*
X0177433Y0080433D01*
X0177433Y0075433D01*
X0174933Y0072933D01*
X0177433Y0070433D01*
X0177433Y0065433D01*
X0174933Y0062933D01*
X0177433Y0060433D01*
X0177433Y0055433D01*
X0174933Y0052933D01*
X0169933Y0052933D01*
X0167433Y0055433D01*
D15*
X0179179Y0059082D02*
X0179930Y0057580D01*
X0181431Y0056079D01*
X0181431Y0058331D01*
X0182182Y0059082D01*
X0182932Y0059082D01*
X0183683Y0058331D01*
X0183683Y0056830D01*
X0182932Y0056079D01*
X0181431Y0056079D01*
X0150686Y0059436D02*
X0147683Y0056434D01*
X0147683Y0055683D01*
X0150686Y0059436D02*
X0150686Y0060187D01*
X0147683Y0060187D01*
X0162681Y0106079D02*
X0161179Y0107580D01*
X0165683Y0107580D01*
X0165683Y0106079D02*
X0165683Y0109082D01*
X0089686Y0037683D02*
X0086683Y0037683D01*
X0088184Y0037683D02*
X0088184Y0042187D01*
X0086683Y0040686D01*
X0096233Y0200033D02*
X0102133Y0205933D01*
D16*
X0050933Y0170039D03*
X0050933Y0153327D03*
D17*
X0096165Y0128286D02*
X0096165Y0200018D01*
X0102150Y0206002D02*
X0145142Y0206002D01*
X0145142Y0128286D01*
X0096165Y0128286D01*
D18*
X0071169Y0084222D02*
X0071169Y0084222D01*
X0071121Y0084220D01*
X0071074Y0084215D01*
X0071027Y0084206D01*
X0070981Y0084193D01*
X0070936Y0084176D01*
X0070893Y0084156D01*
X0070851Y0084133D01*
X0070811Y0084107D01*
X0070774Y0084077D01*
X0070739Y0084045D01*
X0070706Y0084010D01*
X0070677Y0083972D01*
X0070650Y0083932D01*
X0070627Y0083891D01*
X0070607Y0083847D01*
X0070590Y0083802D01*
X0070578Y0083756D01*
X0070568Y0083710D01*
X0070563Y0083662D01*
X0070561Y0083614D01*
X0070562Y0083615D02*
X0070562Y0079917D01*
X0072714Y0082069D02*
X0072825Y0082069D01*
X0072882Y0082071D01*
X0072940Y0082077D01*
X0072997Y0082086D01*
X0073053Y0082099D01*
X0073109Y0082116D01*
X0073163Y0082136D01*
X0073215Y0082160D01*
X0073266Y0082187D01*
X0073315Y0082218D01*
X0073362Y0082251D01*
X0073407Y0082288D01*
X0073449Y0082328D01*
X0073489Y0082370D01*
X0073526Y0082415D01*
X0073559Y0082462D01*
X0073590Y0082511D01*
X0073617Y0082562D01*
X0073641Y0082614D01*
X0073661Y0082668D01*
X0073678Y0082724D01*
X0073691Y0082780D01*
X0073700Y0082837D01*
X0073706Y0082895D01*
X0073708Y0082952D01*
X0073708Y0083615D01*
X0073710Y0083663D01*
X0073715Y0083710D01*
X0073725Y0083757D01*
X0073738Y0083803D01*
X0073754Y0083847D01*
X0073774Y0083891D01*
X0073797Y0083932D01*
X0073824Y0083972D01*
X0073853Y0084009D01*
X0073886Y0084044D01*
X0073921Y0084077D01*
X0073958Y0084106D01*
X0073998Y0084133D01*
X0074039Y0084156D01*
X0074083Y0084176D01*
X0074127Y0084192D01*
X0074173Y0084205D01*
X0074220Y0084215D01*
X0074267Y0084220D01*
X0074315Y0084222D01*
X0074315Y0084221D02*
X0074364Y0084219D01*
X0074414Y0084214D01*
X0074462Y0084204D01*
X0074510Y0084192D01*
X0074557Y0084175D01*
X0074602Y0084155D01*
X0074646Y0084132D01*
X0074688Y0084106D01*
X0074728Y0084077D01*
X0074765Y0084044D01*
X0074800Y0084009D01*
X0074833Y0083972D01*
X0074862Y0083932D01*
X0074888Y0083890D01*
X0074911Y0083846D01*
X0074931Y0083801D01*
X0074948Y0083754D01*
X0074960Y0083706D01*
X0074970Y0083658D01*
X0074975Y0083608D01*
X0074977Y0083559D01*
X0074977Y0079861D01*
X0074977Y0079917D02*
X0074977Y0074950D01*
X0074977Y0074949D02*
X0074975Y0074877D01*
X0074970Y0074804D01*
X0074961Y0074732D01*
X0074948Y0074660D01*
X0074931Y0074590D01*
X0074911Y0074520D01*
X0074888Y0074451D01*
X0074861Y0074383D01*
X0074830Y0074317D01*
X0074797Y0074253D01*
X0074760Y0074190D01*
X0074720Y0074129D01*
X0074677Y0074071D01*
X0074631Y0074014D01*
X0074582Y0073960D01*
X0074531Y0073909D01*
X0074477Y0073860D01*
X0074420Y0073814D01*
X0074362Y0073771D01*
X0074301Y0073731D01*
X0074238Y0073694D01*
X0074174Y0073661D01*
X0074108Y0073630D01*
X0074040Y0073603D01*
X0073971Y0073580D01*
X0073901Y0073560D01*
X0073831Y0073543D01*
X0073759Y0073530D01*
X0073687Y0073521D01*
X0073614Y0073516D01*
X0073542Y0073514D01*
X0073542Y0073515D02*
X0071444Y0073515D01*
X0074977Y0079917D02*
X0039930Y0079917D01*
X0039930Y0049947D01*
X0054169Y0049947D01*
X0054169Y0046249D01*
X0054167Y0046201D01*
X0054162Y0046154D01*
X0054153Y0046107D01*
X0054140Y0046061D01*
X0054123Y0046016D01*
X0054103Y0045973D01*
X0054080Y0045931D01*
X0054054Y0045892D01*
X0054024Y0045854D01*
X0053992Y0045819D01*
X0053957Y0045787D01*
X0053919Y0045757D01*
X0053879Y0045731D01*
X0053838Y0045707D01*
X0053794Y0045688D01*
X0053750Y0045671D01*
X0053704Y0045658D01*
X0053657Y0045649D01*
X0053609Y0045644D01*
X0053562Y0045642D01*
X0053561Y0045642D01*
X0053562Y0045642D02*
X0053513Y0045644D01*
X0053463Y0045649D01*
X0053415Y0045659D01*
X0053367Y0045671D01*
X0053320Y0045688D01*
X0053275Y0045708D01*
X0053231Y0045731D01*
X0053189Y0045757D01*
X0053149Y0045786D01*
X0053112Y0045819D01*
X0053077Y0045854D01*
X0053044Y0045891D01*
X0053015Y0045931D01*
X0052989Y0045973D01*
X0052966Y0046017D01*
X0052946Y0046062D01*
X0052929Y0046109D01*
X0052917Y0046157D01*
X0052907Y0046205D01*
X0052902Y0046255D01*
X0052900Y0046304D01*
X0052900Y0046911D01*
X0052899Y0046911D02*
X0052897Y0046969D01*
X0052892Y0047026D01*
X0052882Y0047083D01*
X0052869Y0047140D01*
X0052852Y0047195D01*
X0052832Y0047249D01*
X0052808Y0047302D01*
X0052781Y0047353D01*
X0052750Y0047402D01*
X0052717Y0047449D01*
X0052680Y0047493D01*
X0052641Y0047536D01*
X0052598Y0047575D01*
X0052554Y0047612D01*
X0052507Y0047645D01*
X0052458Y0047676D01*
X0052407Y0047703D01*
X0052354Y0047727D01*
X0052300Y0047747D01*
X0052245Y0047764D01*
X0052188Y0047777D01*
X0052131Y0047787D01*
X0052074Y0047792D01*
X0052016Y0047794D01*
X0052017Y0047794D02*
X0051906Y0047794D01*
X0051848Y0047792D01*
X0051790Y0047786D01*
X0051733Y0047777D01*
X0051677Y0047764D01*
X0051622Y0047747D01*
X0051568Y0047727D01*
X0051515Y0047703D01*
X0051464Y0047676D01*
X0051415Y0047645D01*
X0051368Y0047611D01*
X0051324Y0047575D01*
X0051282Y0047535D01*
X0051242Y0047493D01*
X0051206Y0047449D01*
X0051172Y0047402D01*
X0051141Y0047353D01*
X0051114Y0047302D01*
X0051090Y0047249D01*
X0051070Y0047195D01*
X0051053Y0047140D01*
X0051040Y0047084D01*
X0051031Y0047027D01*
X0051025Y0046969D01*
X0051023Y0046911D01*
X0051023Y0046249D01*
X0051021Y0046201D01*
X0051016Y0046154D01*
X0051006Y0046107D01*
X0050993Y0046061D01*
X0050977Y0046017D01*
X0050957Y0045973D01*
X0050934Y0045932D01*
X0050907Y0045892D01*
X0050878Y0045855D01*
X0050845Y0045820D01*
X0050810Y0045787D01*
X0050773Y0045758D01*
X0050733Y0045731D01*
X0050692Y0045708D01*
X0050648Y0045688D01*
X0050604Y0045672D01*
X0050558Y0045659D01*
X0050511Y0045649D01*
X0050464Y0045644D01*
X0050416Y0045642D01*
X0050367Y0045644D01*
X0050317Y0045649D01*
X0050269Y0045659D01*
X0050221Y0045671D01*
X0050174Y0045688D01*
X0050129Y0045708D01*
X0050085Y0045731D01*
X0050043Y0045757D01*
X0050003Y0045786D01*
X0049966Y0045819D01*
X0049931Y0045854D01*
X0049898Y0045891D01*
X0049869Y0045931D01*
X0049843Y0045973D01*
X0049820Y0046017D01*
X0049800Y0046062D01*
X0049783Y0046109D01*
X0049771Y0046157D01*
X0049761Y0046205D01*
X0049756Y0046255D01*
X0049754Y0046304D01*
X0049754Y0049726D01*
X0054169Y0049947D02*
X0074977Y0049947D01*
X0074977Y0046249D01*
X0074975Y0046201D01*
X0074970Y0046154D01*
X0074961Y0046107D01*
X0074948Y0046061D01*
X0074931Y0046016D01*
X0074911Y0045973D01*
X0074888Y0045931D01*
X0074862Y0045892D01*
X0074832Y0045854D01*
X0074800Y0045819D01*
X0074765Y0045787D01*
X0074727Y0045757D01*
X0074687Y0045731D01*
X0074646Y0045707D01*
X0074602Y0045688D01*
X0074558Y0045671D01*
X0074512Y0045658D01*
X0074465Y0045649D01*
X0074417Y0045644D01*
X0074370Y0045642D01*
X0074369Y0045642D01*
X0074370Y0045642D02*
X0074321Y0045644D01*
X0074271Y0045649D01*
X0074223Y0045659D01*
X0074175Y0045671D01*
X0074128Y0045688D01*
X0074083Y0045708D01*
X0074039Y0045731D01*
X0073997Y0045757D01*
X0073957Y0045786D01*
X0073920Y0045819D01*
X0073885Y0045854D01*
X0073852Y0045891D01*
X0073823Y0045931D01*
X0073797Y0045973D01*
X0073774Y0046017D01*
X0073754Y0046062D01*
X0073737Y0046109D01*
X0073725Y0046157D01*
X0073715Y0046205D01*
X0073710Y0046255D01*
X0073708Y0046304D01*
X0073707Y0046304D02*
X0073707Y0046911D01*
X0073708Y0046912D02*
X0073706Y0046970D01*
X0073701Y0047027D01*
X0073691Y0047084D01*
X0073678Y0047141D01*
X0073661Y0047196D01*
X0073641Y0047250D01*
X0073617Y0047303D01*
X0073590Y0047354D01*
X0073560Y0047403D01*
X0073526Y0047450D01*
X0073489Y0047494D01*
X0073450Y0047537D01*
X0073407Y0047576D01*
X0073363Y0047613D01*
X0073316Y0047647D01*
X0073267Y0047677D01*
X0073216Y0047704D01*
X0073163Y0047728D01*
X0073109Y0047748D01*
X0073054Y0047765D01*
X0072997Y0047778D01*
X0072940Y0047788D01*
X0072883Y0047793D01*
X0072825Y0047795D01*
X0072824Y0047794D02*
X0072714Y0047794D01*
X0072656Y0047792D01*
X0072599Y0047786D01*
X0072542Y0047777D01*
X0072485Y0047764D01*
X0072430Y0047747D01*
X0072376Y0047727D01*
X0072323Y0047703D01*
X0072273Y0047676D01*
X0072223Y0047645D01*
X0072176Y0047612D01*
X0072132Y0047575D01*
X0072090Y0047535D01*
X0072050Y0047493D01*
X0072013Y0047449D01*
X0071980Y0047402D01*
X0071949Y0047353D01*
X0071922Y0047302D01*
X0071898Y0047249D01*
X0071878Y0047195D01*
X0071861Y0047140D01*
X0071848Y0047083D01*
X0071839Y0047026D01*
X0071833Y0046969D01*
X0071831Y0046911D01*
X0071831Y0046249D01*
X0071829Y0046201D01*
X0071824Y0046154D01*
X0071814Y0046107D01*
X0071801Y0046061D01*
X0071785Y0046017D01*
X0071765Y0045973D01*
X0071742Y0045932D01*
X0071715Y0045892D01*
X0071686Y0045855D01*
X0071653Y0045820D01*
X0071618Y0045787D01*
X0071581Y0045758D01*
X0071541Y0045731D01*
X0071500Y0045708D01*
X0071456Y0045688D01*
X0071412Y0045672D01*
X0071366Y0045659D01*
X0071319Y0045649D01*
X0071272Y0045644D01*
X0071224Y0045642D01*
X0071175Y0045644D01*
X0071125Y0045649D01*
X0071077Y0045659D01*
X0071029Y0045671D01*
X0070982Y0045688D01*
X0070937Y0045708D01*
X0070893Y0045731D01*
X0070851Y0045757D01*
X0070811Y0045786D01*
X0070774Y0045819D01*
X0070739Y0045854D01*
X0070706Y0045891D01*
X0070677Y0045931D01*
X0070651Y0045973D01*
X0070628Y0046017D01*
X0070608Y0046062D01*
X0070591Y0046109D01*
X0070579Y0046157D01*
X0070569Y0046205D01*
X0070564Y0046255D01*
X0070562Y0046304D01*
X0070561Y0046304D02*
X0070561Y0049726D01*
X0074977Y0049947D02*
X0074977Y0054970D01*
X0074975Y0055042D01*
X0074969Y0055114D01*
X0074960Y0055186D01*
X0074947Y0055257D01*
X0074930Y0055327D01*
X0074910Y0055396D01*
X0074885Y0055464D01*
X0074858Y0055531D01*
X0074827Y0055596D01*
X0074792Y0055660D01*
X0074754Y0055722D01*
X0074713Y0055781D01*
X0074669Y0055838D01*
X0074623Y0055893D01*
X0074573Y0055946D01*
X0074520Y0055996D01*
X0074465Y0056042D01*
X0074408Y0056086D01*
X0074349Y0056127D01*
X0074287Y0056165D01*
X0074223Y0056200D01*
X0074158Y0056231D01*
X0074091Y0056258D01*
X0074023Y0056283D01*
X0073954Y0056303D01*
X0073884Y0056320D01*
X0073813Y0056333D01*
X0073741Y0056342D01*
X0073669Y0056348D01*
X0073597Y0056350D01*
X0071279Y0056350D01*
X0062393Y0062089D02*
X0062393Y0067885D01*
X0062393Y0067884D02*
X0062391Y0067956D01*
X0062385Y0068028D01*
X0062375Y0068099D01*
X0062362Y0068169D01*
X0062345Y0068239D01*
X0062324Y0068307D01*
X0062299Y0068375D01*
X0062270Y0068441D01*
X0062239Y0068505D01*
X0062203Y0068567D01*
X0062165Y0068628D01*
X0062123Y0068686D01*
X0062078Y0068742D01*
X0062030Y0068795D01*
X0061979Y0068846D01*
X0061926Y0068894D01*
X0061870Y0068939D01*
X0061812Y0068981D01*
X0061751Y0069019D01*
X0061689Y0069055D01*
X0061625Y0069086D01*
X0061559Y0069115D01*
X0061491Y0069140D01*
X0061423Y0069161D01*
X0061353Y0069178D01*
X0061283Y0069191D01*
X0061212Y0069201D01*
X0061140Y0069207D01*
X0061068Y0069209D01*
X0045228Y0070037D01*
X0045183Y0070038D01*
X0045139Y0070034D01*
X0045095Y0070027D01*
X0045051Y0070017D01*
X0045009Y0070002D01*
X0044968Y0069984D01*
X0044929Y0069963D01*
X0044892Y0069938D01*
X0044857Y0069911D01*
X0044825Y0069880D01*
X0044795Y0069847D01*
X0044768Y0069811D01*
X0044744Y0069774D01*
X0044724Y0069734D01*
X0044707Y0069693D01*
X0044693Y0069650D01*
X0044683Y0069607D01*
X0044677Y0069563D01*
X0044675Y0069518D01*
X0044676Y0069474D01*
X0044682Y0069429D01*
X0044691Y0069386D01*
X0044703Y0069343D01*
X0044719Y0069302D01*
X0044739Y0069262D01*
X0044762Y0069223D01*
X0044788Y0069187D01*
X0044817Y0069154D01*
X0044849Y0069122D01*
X0044884Y0069094D01*
X0044920Y0069069D01*
X0044959Y0069047D01*
X0044999Y0069028D01*
X0045041Y0069013D01*
X0045084Y0069001D01*
X0045128Y0068993D01*
X0045172Y0068989D01*
X0045173Y0068989D02*
X0057426Y0068326D01*
X0057507Y0068324D01*
X0057589Y0068318D01*
X0057670Y0068309D01*
X0057750Y0068295D01*
X0057829Y0068278D01*
X0057908Y0068257D01*
X0057986Y0068232D01*
X0058062Y0068203D01*
X0058137Y0068171D01*
X0058210Y0068136D01*
X0058282Y0068097D01*
X0058351Y0068054D01*
X0058418Y0068009D01*
X0058484Y0067960D01*
X0058546Y0067908D01*
X0058607Y0067853D01*
X0058664Y0067796D01*
X0058719Y0067735D01*
X0058771Y0067673D01*
X0058820Y0067607D01*
X0058865Y0067540D01*
X0058908Y0067471D01*
X0058947Y0067399D01*
X0058982Y0067326D01*
X0059014Y0067251D01*
X0059043Y0067175D01*
X0059068Y0067097D01*
X0059089Y0067018D01*
X0059106Y0066939D01*
X0059120Y0066859D01*
X0059129Y0066778D01*
X0059135Y0066696D01*
X0059137Y0066615D01*
X0059137Y0063138D01*
X0059135Y0063059D01*
X0059130Y0062981D01*
X0059120Y0062902D01*
X0059107Y0062825D01*
X0059090Y0062748D01*
X0059070Y0062671D01*
X0059046Y0062596D01*
X0059018Y0062523D01*
X0058987Y0062450D01*
X0058953Y0062379D01*
X0058915Y0062310D01*
X0058874Y0062243D01*
X0058830Y0062177D01*
X0058783Y0062114D01*
X0058733Y0062054D01*
X0058680Y0061995D01*
X0058624Y0061939D01*
X0058565Y0061886D01*
X0058505Y0061836D01*
X0058442Y0061789D01*
X0058376Y0061745D01*
X0058309Y0061704D01*
X0058240Y0061666D01*
X0058169Y0061632D01*
X0058096Y0061601D01*
X0058023Y0061573D01*
X0057948Y0061549D01*
X0057871Y0061529D01*
X0057794Y0061512D01*
X0057717Y0061499D01*
X0057638Y0061489D01*
X0057560Y0061484D01*
X0057481Y0061482D01*
X0057205Y0061482D01*
X0045228Y0060930D01*
X0045182Y0060926D01*
X0045136Y0060918D01*
X0045091Y0060906D01*
X0045047Y0060891D01*
X0045004Y0060871D01*
X0044963Y0060848D01*
X0044925Y0060822D01*
X0044888Y0060793D01*
X0044855Y0060760D01*
X0044824Y0060725D01*
X0044796Y0060687D01*
X0044772Y0060648D01*
X0044751Y0060606D01*
X0044733Y0060562D01*
X0044720Y0060518D01*
X0044710Y0060472D01*
X0044704Y0060426D01*
X0044702Y0060379D01*
X0044704Y0060332D01*
X0044710Y0060286D01*
X0044720Y0060240D01*
X0044733Y0060196D01*
X0044751Y0060152D01*
X0044772Y0060110D01*
X0044796Y0060071D01*
X0044824Y0060033D01*
X0044855Y0059998D01*
X0044888Y0059965D01*
X0044925Y0059936D01*
X0044963Y0059910D01*
X0045004Y0059887D01*
X0045047Y0059867D01*
X0045091Y0059852D01*
X0045136Y0059840D01*
X0045182Y0059832D01*
X0045228Y0059828D01*
X0045228Y0059827D02*
X0060958Y0060654D01*
X0061033Y0060656D01*
X0061108Y0060662D01*
X0061182Y0060672D01*
X0061256Y0060685D01*
X0061329Y0060703D01*
X0061401Y0060724D01*
X0061472Y0060749D01*
X0061542Y0060778D01*
X0061609Y0060810D01*
X0061676Y0060846D01*
X0061740Y0060886D01*
X0061801Y0060928D01*
X0061861Y0060974D01*
X0061918Y0061023D01*
X0061973Y0061074D01*
X0062024Y0061129D01*
X0062073Y0061186D01*
X0062119Y0061246D01*
X0062161Y0061307D01*
X0062201Y0061372D01*
X0062237Y0061438D01*
X0062269Y0061505D01*
X0062298Y0061575D01*
X0062323Y0061646D01*
X0062344Y0061718D01*
X0062362Y0061791D01*
X0062375Y0061865D01*
X0062385Y0061939D01*
X0062391Y0062014D01*
X0062393Y0062089D01*
X0060627Y0058281D02*
X0046167Y0057619D01*
X0046001Y0057619D01*
X0046002Y0057619D02*
X0045929Y0057617D01*
X0045857Y0057611D01*
X0045786Y0057602D01*
X0045715Y0057589D01*
X0045645Y0057572D01*
X0045575Y0057551D01*
X0045507Y0057527D01*
X0045441Y0057500D01*
X0045375Y0057469D01*
X0045312Y0057434D01*
X0045250Y0057396D01*
X0045191Y0057355D01*
X0045133Y0057311D01*
X0045079Y0057265D01*
X0045026Y0057215D01*
X0044976Y0057162D01*
X0044930Y0057108D01*
X0044886Y0057050D01*
X0044845Y0056991D01*
X0044807Y0056929D01*
X0044772Y0056866D01*
X0044741Y0056800D01*
X0044714Y0056734D01*
X0044690Y0056666D01*
X0044669Y0056596D01*
X0044652Y0056526D01*
X0044639Y0056455D01*
X0044630Y0056384D01*
X0044624Y0056312D01*
X0044622Y0056239D01*
X0044621Y0056239D02*
X0044621Y0050168D01*
X0047381Y0054307D02*
X0060793Y0053424D01*
X0060792Y0053424D02*
X0060833Y0053420D01*
X0060873Y0053412D01*
X0060912Y0053400D01*
X0060950Y0053386D01*
X0060987Y0053368D01*
X0061022Y0053347D01*
X0061055Y0053323D01*
X0061086Y0053296D01*
X0061114Y0053266D01*
X0061140Y0053235D01*
X0061163Y0053201D01*
X0061183Y0053165D01*
X0061200Y0053128D01*
X0061214Y0053090D01*
X0061224Y0053050D01*
X0061230Y0053010D01*
X0061234Y0052969D01*
X0061233Y0052928D01*
X0061234Y0052928D02*
X0061234Y0050168D01*
X0060682Y0057122D02*
X0047326Y0056239D01*
X0047325Y0056239D02*
X0047264Y0056233D01*
X0047203Y0056223D01*
X0047143Y0056209D01*
X0047083Y0056191D01*
X0047025Y0056170D01*
X0046969Y0056145D01*
X0046914Y0056116D01*
X0046861Y0056084D01*
X0046811Y0056049D01*
X0046762Y0056011D01*
X0046717Y0055969D01*
X0046674Y0055925D01*
X0046634Y0055878D01*
X0046597Y0055828D01*
X0046563Y0055777D01*
X0046532Y0055723D01*
X0046506Y0055667D01*
X0046482Y0055610D01*
X0046463Y0055551D01*
X0046447Y0055492D01*
X0046435Y0055431D01*
X0046427Y0055370D01*
X0046423Y0055308D01*
X0046422Y0055246D01*
X0046426Y0055185D01*
X0046434Y0055123D01*
X0046445Y0055063D01*
X0046461Y0055003D01*
X0046480Y0054944D01*
X0046503Y0054887D01*
X0046529Y0054831D01*
X0046559Y0054777D01*
X0046593Y0054725D01*
X0046629Y0054675D01*
X0046669Y0054628D01*
X0046712Y0054584D01*
X0046757Y0054542D01*
X0046805Y0054503D01*
X0046856Y0054467D01*
X0046908Y0054435D01*
X0046963Y0054406D01*
X0047019Y0054380D01*
X0047077Y0054359D01*
X0047136Y0054341D01*
X0047196Y0054326D01*
X0047257Y0054316D01*
X0047319Y0054310D01*
X0047380Y0054307D01*
X0060683Y0057123D02*
X0060730Y0057127D01*
X0060778Y0057135D01*
X0060824Y0057147D01*
X0060869Y0057163D01*
X0060913Y0057183D01*
X0060955Y0057206D01*
X0060995Y0057232D01*
X0061032Y0057262D01*
X0061067Y0057295D01*
X0061099Y0057330D01*
X0061128Y0057368D01*
X0061154Y0057409D01*
X0061177Y0057451D01*
X0061196Y0057495D01*
X0061211Y0057540D01*
X0061222Y0057587D01*
X0061230Y0057634D01*
X0061234Y0057682D01*
X0061233Y0057730D01*
X0061229Y0057777D01*
X0061221Y0057824D01*
X0061209Y0057871D01*
X0061193Y0057916D01*
X0061174Y0057960D01*
X0061151Y0058002D01*
X0061124Y0058042D01*
X0061095Y0058079D01*
X0061062Y0058114D01*
X0061027Y0058146D01*
X0060989Y0058176D01*
X0060948Y0058202D01*
X0060906Y0058224D01*
X0060862Y0058243D01*
X0060817Y0058259D01*
X0060770Y0058270D01*
X0060723Y0058278D01*
X0060676Y0058282D01*
X0060628Y0058281D01*
X0060627Y0071583D02*
X0046166Y0072245D01*
X0046001Y0072245D01*
X0046000Y0072244D02*
X0045928Y0072246D01*
X0045856Y0072252D01*
X0045784Y0072261D01*
X0045713Y0072274D01*
X0045643Y0072291D01*
X0045574Y0072311D01*
X0045506Y0072336D01*
X0045439Y0072363D01*
X0045374Y0072394D01*
X0045310Y0072429D01*
X0045248Y0072467D01*
X0045189Y0072508D01*
X0045132Y0072552D01*
X0045077Y0072598D01*
X0045024Y0072648D01*
X0044974Y0072701D01*
X0044928Y0072756D01*
X0044884Y0072813D01*
X0044843Y0072872D01*
X0044805Y0072934D01*
X0044770Y0072998D01*
X0044739Y0073063D01*
X0044712Y0073130D01*
X0044687Y0073198D01*
X0044667Y0073267D01*
X0044650Y0073337D01*
X0044637Y0073408D01*
X0044628Y0073480D01*
X0044622Y0073552D01*
X0044620Y0073624D01*
X0044621Y0073625D02*
X0044621Y0079696D01*
X0047380Y0075557D02*
X0060792Y0076440D01*
X0060833Y0076444D01*
X0060873Y0076452D01*
X0060912Y0076464D01*
X0060950Y0076478D01*
X0060987Y0076496D01*
X0061022Y0076517D01*
X0061055Y0076541D01*
X0061086Y0076568D01*
X0061114Y0076598D01*
X0061140Y0076629D01*
X0061163Y0076663D01*
X0061183Y0076699D01*
X0061200Y0076736D01*
X0061214Y0076774D01*
X0061224Y0076814D01*
X0061230Y0076854D01*
X0061234Y0076895D01*
X0061233Y0076936D01*
X0061234Y0076936D02*
X0061234Y0079696D01*
X0060682Y0072742D02*
X0047325Y0073625D01*
X0047264Y0073631D01*
X0047203Y0073641D01*
X0047143Y0073655D01*
X0047083Y0073673D01*
X0047025Y0073694D01*
X0046969Y0073719D01*
X0046914Y0073748D01*
X0046861Y0073780D01*
X0046811Y0073815D01*
X0046762Y0073853D01*
X0046717Y0073895D01*
X0046674Y0073939D01*
X0046634Y0073986D01*
X0046597Y0074036D01*
X0046563Y0074087D01*
X0046532Y0074141D01*
X0046506Y0074197D01*
X0046482Y0074254D01*
X0046463Y0074313D01*
X0046447Y0074372D01*
X0046435Y0074433D01*
X0046427Y0074494D01*
X0046423Y0074556D01*
X0046422Y0074618D01*
X0046426Y0074679D01*
X0046434Y0074741D01*
X0046445Y0074801D01*
X0046461Y0074861D01*
X0046480Y0074920D01*
X0046503Y0074977D01*
X0046529Y0075033D01*
X0046559Y0075087D01*
X0046593Y0075139D01*
X0046629Y0075189D01*
X0046669Y0075236D01*
X0046712Y0075280D01*
X0046757Y0075322D01*
X0046805Y0075361D01*
X0046856Y0075397D01*
X0046908Y0075429D01*
X0046963Y0075458D01*
X0047019Y0075484D01*
X0047077Y0075505D01*
X0047136Y0075523D01*
X0047196Y0075538D01*
X0047257Y0075548D01*
X0047319Y0075554D01*
X0047380Y0075557D01*
X0049754Y0079917D02*
X0049754Y0083615D01*
X0049756Y0083663D01*
X0049761Y0083710D01*
X0049770Y0083757D01*
X0049783Y0083803D01*
X0049800Y0083848D01*
X0049820Y0083891D01*
X0049843Y0083933D01*
X0049869Y0083972D01*
X0049899Y0084010D01*
X0049931Y0084045D01*
X0049966Y0084077D01*
X0050004Y0084107D01*
X0050044Y0084133D01*
X0050085Y0084157D01*
X0050129Y0084176D01*
X0050173Y0084193D01*
X0050219Y0084206D01*
X0050266Y0084215D01*
X0050314Y0084220D01*
X0050361Y0084222D01*
X0050361Y0084222D01*
X0050361Y0084221D02*
X0050410Y0084219D01*
X0050460Y0084214D01*
X0050508Y0084204D01*
X0050556Y0084192D01*
X0050603Y0084175D01*
X0050648Y0084155D01*
X0050692Y0084132D01*
X0050734Y0084106D01*
X0050774Y0084077D01*
X0050811Y0084044D01*
X0050846Y0084009D01*
X0050879Y0083972D01*
X0050908Y0083932D01*
X0050934Y0083890D01*
X0050957Y0083846D01*
X0050977Y0083801D01*
X0050994Y0083754D01*
X0051006Y0083706D01*
X0051016Y0083658D01*
X0051021Y0083608D01*
X0051023Y0083559D01*
X0051023Y0082952D01*
X0051025Y0082895D01*
X0051031Y0082837D01*
X0051040Y0082780D01*
X0051053Y0082724D01*
X0051070Y0082668D01*
X0051090Y0082614D01*
X0051114Y0082562D01*
X0051141Y0082511D01*
X0051172Y0082462D01*
X0051205Y0082415D01*
X0051242Y0082370D01*
X0051282Y0082328D01*
X0051324Y0082288D01*
X0051369Y0082251D01*
X0051416Y0082218D01*
X0051465Y0082187D01*
X0051516Y0082160D01*
X0051568Y0082136D01*
X0051622Y0082116D01*
X0051678Y0082099D01*
X0051734Y0082086D01*
X0051791Y0082077D01*
X0051849Y0082071D01*
X0051906Y0082069D01*
X0052017Y0082069D01*
X0052017Y0082070D02*
X0052075Y0082072D01*
X0052132Y0082077D01*
X0052189Y0082087D01*
X0052246Y0082100D01*
X0052301Y0082117D01*
X0052355Y0082137D01*
X0052408Y0082161D01*
X0052459Y0082188D01*
X0052508Y0082219D01*
X0052555Y0082252D01*
X0052599Y0082289D01*
X0052642Y0082328D01*
X0052681Y0082371D01*
X0052718Y0082415D01*
X0052751Y0082462D01*
X0052782Y0082511D01*
X0052809Y0082562D01*
X0052833Y0082615D01*
X0052853Y0082669D01*
X0052870Y0082724D01*
X0052883Y0082781D01*
X0052893Y0082838D01*
X0052898Y0082895D01*
X0052900Y0082953D01*
X0052900Y0082952D02*
X0052900Y0083615D01*
X0052902Y0083663D01*
X0052907Y0083710D01*
X0052917Y0083757D01*
X0052930Y0083803D01*
X0052946Y0083847D01*
X0052966Y0083891D01*
X0052989Y0083932D01*
X0053016Y0083972D01*
X0053045Y0084009D01*
X0053078Y0084044D01*
X0053113Y0084077D01*
X0053150Y0084106D01*
X0053190Y0084133D01*
X0053231Y0084156D01*
X0053275Y0084176D01*
X0053319Y0084192D01*
X0053365Y0084205D01*
X0053412Y0084215D01*
X0053459Y0084220D01*
X0053507Y0084222D01*
X0053507Y0084221D02*
X0053556Y0084219D01*
X0053606Y0084214D01*
X0053654Y0084204D01*
X0053702Y0084192D01*
X0053749Y0084175D01*
X0053794Y0084155D01*
X0053838Y0084132D01*
X0053880Y0084106D01*
X0053920Y0084077D01*
X0053957Y0084044D01*
X0053992Y0084009D01*
X0054025Y0083972D01*
X0054054Y0083932D01*
X0054080Y0083890D01*
X0054103Y0083846D01*
X0054123Y0083801D01*
X0054140Y0083754D01*
X0054152Y0083706D01*
X0054162Y0083658D01*
X0054167Y0083608D01*
X0054169Y0083559D01*
X0054169Y0080137D01*
X0060682Y0072741D02*
X0060729Y0072737D01*
X0060777Y0072729D01*
X0060823Y0072717D01*
X0060868Y0072701D01*
X0060912Y0072681D01*
X0060954Y0072658D01*
X0060994Y0072632D01*
X0061031Y0072602D01*
X0061066Y0072569D01*
X0061098Y0072534D01*
X0061127Y0072496D01*
X0061153Y0072455D01*
X0061176Y0072413D01*
X0061195Y0072369D01*
X0061210Y0072324D01*
X0061221Y0072277D01*
X0061229Y0072230D01*
X0061233Y0072182D01*
X0061232Y0072134D01*
X0061228Y0072087D01*
X0061220Y0072040D01*
X0061208Y0071993D01*
X0061192Y0071948D01*
X0061173Y0071904D01*
X0061150Y0071862D01*
X0061123Y0071822D01*
X0061094Y0071785D01*
X0061061Y0071750D01*
X0061026Y0071718D01*
X0060988Y0071688D01*
X0060947Y0071662D01*
X0060905Y0071640D01*
X0060861Y0071621D01*
X0060816Y0071605D01*
X0060769Y0071594D01*
X0060722Y0071586D01*
X0060675Y0071582D01*
X0060627Y0071583D01*
X0071831Y0083559D02*
X0071829Y0083608D01*
X0071824Y0083658D01*
X0071814Y0083706D01*
X0071802Y0083754D01*
X0071785Y0083801D01*
X0071765Y0083846D01*
X0071742Y0083890D01*
X0071716Y0083932D01*
X0071687Y0083972D01*
X0071654Y0084009D01*
X0071619Y0084044D01*
X0071582Y0084077D01*
X0071542Y0084106D01*
X0071500Y0084132D01*
X0071456Y0084155D01*
X0071411Y0084175D01*
X0071364Y0084192D01*
X0071316Y0084204D01*
X0071268Y0084214D01*
X0071218Y0084219D01*
X0071169Y0084221D01*
X0071831Y0083559D02*
X0071831Y0082952D01*
X0071833Y0082894D01*
X0071839Y0082837D01*
X0071848Y0082780D01*
X0071861Y0082723D01*
X0071878Y0082668D01*
X0071898Y0082614D01*
X0071922Y0082561D01*
X0071949Y0082511D01*
X0071980Y0082461D01*
X0072013Y0082414D01*
X0072050Y0082370D01*
X0072090Y0082328D01*
X0072132Y0082288D01*
X0072176Y0082251D01*
X0072223Y0082218D01*
X0072273Y0082187D01*
X0072323Y0082160D01*
X0072376Y0082136D01*
X0072430Y0082116D01*
X0072485Y0082099D01*
X0072542Y0082086D01*
X0072599Y0082077D01*
X0072656Y0082071D01*
X0072714Y0082069D01*
X0109022Y0207187D02*
X0108255Y0207954D01*
X0108255Y0211791D01*
X0111324Y0211791D02*
X0111324Y0207954D01*
X0110557Y0207187D01*
X0109022Y0207187D01*
X0112859Y0207954D02*
X0113626Y0207187D01*
X0115161Y0207187D01*
X0115928Y0207954D01*
X0115928Y0208721D01*
X0115161Y0209489D01*
X0113626Y0209489D01*
X0112859Y0210256D01*
X0112859Y0211023D01*
X0113626Y0211791D01*
X0115161Y0211791D01*
X0115928Y0211023D01*
X0117463Y0210256D02*
X0118998Y0211791D01*
X0118998Y0207187D01*
X0120532Y0207187D02*
X0117463Y0207187D01*
X0114394Y0206419D02*
X0114394Y0212558D01*
M02*
