G75*
%MOIN*%
%OFA0B0*%
%FSLAX25Y25*%
%IPPOS*%
%LPD*%
%AMOC8*
5,1,8,0,0,1.08239X$1,22.5*
%
%ADD10C,0.03800*%
%ADD11C,0.06800*%
%ADD12R,0.05918X0.07099*%
%ADD13C,0.05600*%
%ADD14R,0.05918X0.06706*%
%ADD15R,0.05400X0.07100*%
%ADD16R,0.09599X0.05599*%
%ADD17R,0.09461X0.14973*%
%ADD18R,0.06693X0.07874*%
%ADD19R,0.06312X0.02375*%
%ADD20C,0.04146*%
%ADD21C,0.04343*%
%ADD22C,0.06200*%
%ADD23C,0.03700*%
%ADD24C,0.03578*%
%ADD25R,0.03700X0.03700*%
D10*
X0045933Y0041933D03*
X0181933Y0042933D03*
X0173433Y0193433D03*
X0170433Y0196433D03*
X0167433Y0198933D03*
X0047933Y0200433D03*
D11*
X0049133Y0123833D02*
X0055133Y0123833D01*
X0055133Y0106033D02*
X0049133Y0106033D01*
X0074733Y0106033D02*
X0080733Y0106033D01*
X0080733Y0123833D02*
X0074733Y0123833D01*
X0088933Y0051933D02*
X0088933Y0045933D01*
X0098933Y0045933D02*
X0098933Y0051933D01*
X0108933Y0051933D02*
X0108933Y0045933D01*
X0118933Y0045933D02*
X0118933Y0051933D01*
X0128933Y0051933D02*
X0128933Y0045933D01*
X0138933Y0045933D02*
X0138933Y0051933D01*
X0148933Y0051933D02*
X0148933Y0045933D01*
X0169433Y0057933D02*
X0175433Y0057933D01*
X0175433Y0067933D02*
X0169433Y0067933D01*
X0169433Y0077933D02*
X0175433Y0077933D01*
X0175433Y0087933D02*
X0169433Y0087933D01*
X0169433Y0097933D02*
X0175433Y0097933D01*
X0175433Y0107933D02*
X0169433Y0107933D01*
D12*
X0119870Y0065933D03*
X0111996Y0065933D03*
X0102870Y0071933D03*
X0111496Y0077433D03*
X0119370Y0077433D03*
X0102870Y0083933D03*
X0094996Y0083933D03*
X0094996Y0071933D03*
X0084370Y0142933D03*
X0076496Y0142933D03*
X0074996Y0160933D03*
X0082870Y0160933D03*
D13*
X0152933Y0159933D03*
X0152933Y0169933D03*
D14*
X0171693Y0135433D03*
X0179173Y0135433D03*
X0179173Y0121433D03*
X0171693Y0121433D03*
X0097673Y0118433D03*
X0090193Y0118433D03*
X0059173Y0094933D03*
X0051693Y0094933D03*
D15*
X0108433Y0118433D03*
X0114433Y0118433D03*
X0120433Y0118433D03*
X0149933Y0121433D03*
X0155933Y0121433D03*
X0161933Y0121433D03*
X0161433Y0135433D03*
X0155433Y0135433D03*
X0149433Y0135433D03*
D16*
X0122732Y0107031D03*
X0122732Y0097933D03*
X0122732Y0088835D03*
D17*
X0147134Y0097933D03*
D18*
X0047433Y0079937D03*
X0047433Y0050929D03*
D19*
X0058063Y0060315D03*
X0058063Y0062874D03*
X0058063Y0065433D03*
X0058063Y0067992D03*
X0058063Y0070551D03*
D20*
X0056094Y0072913D03*
X0056094Y0057953D03*
D21*
X0064933Y0058043D03*
X0064933Y0071823D03*
D22*
X0091433Y0098733D02*
X0091433Y0104133D01*
X0101433Y0104133D02*
X0101433Y0098733D01*
D23*
X0118933Y0126433D03*
X0130433Y0124933D03*
X0147783Y0157933D03*
X0166433Y0128433D03*
X0084433Y0149933D03*
X0065433Y0167433D03*
X0058433Y0151933D03*
X0058933Y0132933D03*
X0066933Y0099433D03*
X0066933Y0095433D03*
D24*
X0080933Y0071433D03*
X0081767Y0059815D03*
X0128433Y0118933D03*
X0126494Y0122244D03*
D25*
X0091433Y0124433D03*
X0089933Y0128933D03*
X0067933Y0179433D03*
X0064433Y0179433D03*
X0161933Y0187933D03*
X0164933Y0187933D03*
X0167933Y0187933D03*
M02*
