G75*
%MOIN*%
%OFA0B0*%
%FSLAX25Y25*%
%IPPOS*%
%LPD*%
%AMOC8*
5,1,8,0,0,1.08239X$1,22.5*
%
%ADD10C,0.00200*%
%ADD11C,0.06000*%
%ADD12R,0.05118X0.06299*%
%ADD13C,0.04800*%
%ADD14R,0.05118X0.05906*%
%ADD15R,0.04600X0.06300*%
%ADD16R,0.08799X0.04799*%
%ADD17R,0.08661X0.14173*%
%ADD18R,0.05906X0.07087*%
%ADD19R,0.05512X0.01575*%
%ADD20C,0.05400*%
%ADD21C,0.02500*%
%ADD22C,0.01200*%
%ADD23C,0.02900*%
%ADD24C,0.02778*%
%ADD25R,0.02900X0.02900*%
%ADD26C,0.02400*%
%ADD27C,0.02200*%
D10*
X0167840Y0044533D02*
X0169041Y0044533D01*
X0167840Y0045734D01*
X0167840Y0046034D01*
X0168140Y0046335D01*
X0168741Y0046335D01*
X0169041Y0046034D01*
X0169681Y0044533D02*
X0170883Y0044533D01*
X0170883Y0046335D01*
D11*
X0169433Y0057933D02*
X0175433Y0057933D01*
X0175433Y0067933D02*
X0169433Y0067933D01*
X0169433Y0077933D02*
X0175433Y0077933D01*
X0175433Y0087933D02*
X0169433Y0087933D01*
X0169433Y0097933D02*
X0175433Y0097933D01*
X0175433Y0107933D02*
X0169433Y0107933D01*
X0148933Y0051933D02*
X0148933Y0045933D01*
X0138933Y0045933D02*
X0138933Y0051933D01*
X0128933Y0051933D02*
X0128933Y0045933D01*
X0118933Y0045933D02*
X0118933Y0051933D01*
X0108933Y0051933D02*
X0108933Y0045933D01*
X0098933Y0045933D02*
X0098933Y0051933D01*
X0088933Y0051933D02*
X0088933Y0045933D01*
X0080733Y0106033D02*
X0074733Y0106033D01*
X0074733Y0123833D02*
X0080733Y0123833D01*
X0055133Y0123833D02*
X0049133Y0123833D01*
X0049133Y0106033D02*
X0055133Y0106033D01*
D12*
X0076496Y0142933D03*
X0084370Y0142933D03*
X0082870Y0160933D03*
X0074996Y0160933D03*
X0094996Y0083933D03*
X0102870Y0083933D03*
X0111496Y0077433D03*
X0119370Y0077433D03*
X0119870Y0065933D03*
X0111996Y0065933D03*
X0102870Y0071933D03*
X0094996Y0071933D03*
D13*
X0152933Y0159933D03*
X0152933Y0169933D03*
D14*
X0171693Y0135433D03*
X0179173Y0135433D03*
X0179173Y0121433D03*
X0171693Y0121433D03*
X0097673Y0118433D03*
X0090193Y0118433D03*
X0059173Y0094933D03*
X0051693Y0094933D03*
D15*
X0108433Y0118433D03*
X0114433Y0118433D03*
X0120433Y0118433D03*
X0149933Y0121433D03*
X0155933Y0121433D03*
X0161933Y0121433D03*
X0161433Y0135433D03*
X0155433Y0135433D03*
X0149433Y0135433D03*
D16*
X0122732Y0107031D03*
X0122732Y0097933D03*
X0122732Y0088835D03*
D17*
X0147134Y0097933D03*
D18*
X0047433Y0050929D03*
X0047433Y0079937D03*
D19*
X0058063Y0070551D03*
X0058063Y0067992D03*
X0058063Y0065433D03*
X0058063Y0062874D03*
X0058063Y0060315D03*
D20*
X0091433Y0098733D02*
X0091433Y0104133D01*
X0101433Y0104133D02*
X0101433Y0098733D01*
D21*
X0099325Y0093707D02*
X0098346Y0094113D01*
X0096813Y0095646D01*
X0096153Y0097240D01*
X0096020Y0096833D01*
X0095667Y0096139D01*
X0095209Y0095508D01*
X0094658Y0094957D01*
X0094027Y0094499D01*
X0093333Y0094146D01*
X0092592Y0093905D01*
X0091823Y0093783D01*
X0091433Y0093783D01*
X0091433Y0101433D01*
X0091433Y0101433D01*
X0086483Y0101433D01*
X0086483Y0098343D01*
X0086605Y0097574D01*
X0086846Y0096833D01*
X0087199Y0096139D01*
X0087657Y0095508D01*
X0088208Y0094957D01*
X0088839Y0094499D01*
X0089533Y0094146D01*
X0090274Y0093905D01*
X0091043Y0093783D01*
X0091433Y0093783D01*
X0091433Y0101433D01*
X0091433Y0101433D01*
X0086483Y0101433D01*
X0086483Y0104523D01*
X0086605Y0105292D01*
X0086846Y0106033D01*
X0087199Y0106727D01*
X0087657Y0107358D01*
X0088208Y0107909D01*
X0088839Y0108367D01*
X0089533Y0108720D01*
X0090274Y0108961D01*
X0091043Y0109083D01*
X0091433Y0109083D01*
X0091433Y0101433D01*
X0091433Y0101433D01*
X0091433Y0109083D01*
X0091823Y0109083D01*
X0092592Y0108961D01*
X0093333Y0108720D01*
X0094027Y0108367D01*
X0094658Y0107909D01*
X0095209Y0107358D01*
X0095667Y0106727D01*
X0096020Y0106033D01*
X0096153Y0105626D01*
X0096813Y0107220D01*
X0098346Y0108753D01*
X0100349Y0109583D01*
X0102517Y0109583D01*
X0104007Y0108966D01*
X0107423Y0112533D01*
X0105586Y0112533D01*
X0104575Y0112952D01*
X0103802Y0113725D01*
X0103446Y0114583D01*
X0102837Y0114583D01*
X0102564Y0113923D01*
X0101790Y0113149D01*
X0100779Y0112730D01*
X0094567Y0112730D01*
X0093933Y0112993D01*
X0093299Y0112730D01*
X0087087Y0112730D01*
X0086076Y0113149D01*
X0085303Y0113923D01*
X0084884Y0114933D01*
X0084884Y0120614D01*
X0084738Y0120413D01*
X0084153Y0119829D01*
X0083485Y0119343D01*
X0082748Y0118968D01*
X0081962Y0118712D01*
X0081146Y0118583D01*
X0077733Y0118583D01*
X0077733Y0123833D01*
X0077733Y0123833D01*
X0069483Y0123833D01*
X0069483Y0123420D01*
X0069612Y0122604D01*
X0069868Y0121818D01*
X0070243Y0121081D01*
X0070729Y0120413D01*
X0071313Y0119829D01*
X0071981Y0119343D01*
X0072718Y0118968D01*
X0073504Y0118712D01*
X0074320Y0118583D01*
X0077733Y0118583D01*
X0077733Y0123833D01*
X0077733Y0123833D01*
X0081996Y0123833D01*
X0085598Y0125848D02*
X0085223Y0126585D01*
X0084738Y0127253D01*
X0084153Y0127838D01*
X0083485Y0128323D01*
X0082748Y0128698D01*
X0081962Y0128954D01*
X0081146Y0129083D01*
X0077733Y0129083D01*
X0074320Y0129083D01*
X0073504Y0128954D01*
X0072718Y0128698D01*
X0071981Y0128323D01*
X0071313Y0127838D01*
X0070729Y0127253D01*
X0070243Y0126585D01*
X0069868Y0125848D01*
X0069612Y0125062D01*
X0069483Y0124246D01*
X0069483Y0123833D01*
X0077733Y0123833D01*
X0077733Y0129083D01*
X0077733Y0123833D01*
X0077733Y0123833D01*
X0077733Y0123833D01*
X0085983Y0123833D01*
X0085983Y0123624D01*
X0086076Y0123717D01*
X0087087Y0124136D01*
X0087233Y0124136D01*
X0087233Y0124542D01*
X0087047Y0125102D01*
X0086925Y0125152D01*
X0086152Y0125925D01*
X0085733Y0126936D01*
X0085733Y0130930D01*
X0086152Y0131941D01*
X0086925Y0132714D01*
X0087936Y0133133D01*
X0091930Y0133133D01*
X0092941Y0132714D01*
X0093714Y0131941D01*
X0094133Y0130930D01*
X0094133Y0128824D01*
X0094320Y0128265D01*
X0094441Y0128214D01*
X0095214Y0127441D01*
X0095633Y0126430D01*
X0095633Y0124136D01*
X0100779Y0124136D01*
X0101790Y0123717D01*
X0102564Y0122944D01*
X0102837Y0122283D01*
X0103446Y0122283D01*
X0103802Y0123141D01*
X0104575Y0123914D01*
X0105586Y0124333D01*
X0110433Y0124333D01*
X0110433Y0126733D01*
X0099117Y0126733D01*
X0097885Y0127243D01*
X0096943Y0128185D01*
X0094093Y0131035D01*
X0093583Y0132267D01*
X0093583Y0162545D01*
X0092045Y0164083D01*
X0088179Y0164083D01*
X0088179Y0157236D01*
X0087783Y0156280D01*
X0087783Y0152523D01*
X0087994Y0152312D01*
X0088633Y0150769D01*
X0088633Y0149098D01*
X0088370Y0148462D01*
X0088487Y0148414D01*
X0089260Y0147640D01*
X0089679Y0146630D01*
X0089679Y0139236D01*
X0089260Y0138226D01*
X0088487Y0137452D01*
X0087476Y0137033D01*
X0081264Y0137033D01*
X0080253Y0137452D01*
X0079984Y0137722D01*
X0079924Y0137687D01*
X0079351Y0137533D01*
X0076526Y0137533D01*
X0076526Y0142903D01*
X0076467Y0142903D01*
X0076467Y0137533D01*
X0073641Y0137533D01*
X0073069Y0137687D01*
X0072555Y0137983D01*
X0072137Y0138402D01*
X0071840Y0138915D01*
X0071687Y0139487D01*
X0071687Y0142904D01*
X0076466Y0142904D01*
X0076466Y0142963D01*
X0071687Y0142963D01*
X0071687Y0146379D01*
X0071840Y0146951D01*
X0072137Y0147464D01*
X0072555Y0147883D01*
X0073069Y0148179D01*
X0073641Y0148333D01*
X0076467Y0148333D01*
X0076467Y0142963D01*
X0076526Y0142963D01*
X0076526Y0148333D01*
X0079351Y0148333D01*
X0079924Y0148179D01*
X0079984Y0148145D01*
X0080253Y0148414D01*
X0080478Y0148507D01*
X0080233Y0149098D01*
X0080233Y0150769D01*
X0080872Y0152312D01*
X0081083Y0152523D01*
X0081083Y0155033D01*
X0079764Y0155033D01*
X0078753Y0155452D01*
X0078484Y0155722D01*
X0078424Y0155687D01*
X0077851Y0155533D01*
X0075026Y0155533D01*
X0075026Y0160903D01*
X0074967Y0160903D01*
X0074967Y0155533D01*
X0072141Y0155533D01*
X0071569Y0155687D01*
X0071055Y0155983D01*
X0070637Y0156402D01*
X0070340Y0156915D01*
X0070187Y0157487D01*
X0070187Y0160904D01*
X0074966Y0160904D01*
X0074966Y0160963D01*
X0070187Y0160963D01*
X0070187Y0164083D01*
X0069787Y0164083D01*
X0068783Y0164499D01*
X0068783Y0119466D01*
X0068795Y0119435D01*
X0068783Y0118801D01*
X0068783Y0118167D01*
X0068770Y0118136D01*
X0068770Y0118103D01*
X0068516Y0117521D01*
X0068273Y0116935D01*
X0068250Y0116912D01*
X0068236Y0116881D01*
X0067779Y0116442D01*
X0067331Y0115993D01*
X0067300Y0115980D01*
X0061120Y0110033D01*
X0070601Y0110033D01*
X0071476Y0110908D01*
X0073589Y0111783D01*
X0081877Y0111783D01*
X0083990Y0110908D01*
X0085608Y0109290D01*
X0086483Y0107177D01*
X0086483Y0104889D01*
X0085608Y0102776D01*
X0083990Y0101158D01*
X0081877Y0100283D01*
X0073589Y0100283D01*
X0071476Y0101158D01*
X0070601Y0102033D01*
X0070273Y0102033D01*
X0070494Y0101812D01*
X0071133Y0100269D01*
X0071133Y0098598D01*
X0070883Y0097994D01*
X0070883Y0096872D01*
X0071133Y0096269D01*
X0071133Y0094598D01*
X0070494Y0093054D01*
X0069312Y0091872D01*
X0067769Y0091233D01*
X0066462Y0091233D01*
X0066099Y0091083D01*
X0064767Y0091083D01*
X0064400Y0091235D01*
X0064064Y0090423D01*
X0063290Y0089649D01*
X0062279Y0089230D01*
X0056067Y0089230D01*
X0055433Y0089493D01*
X0054799Y0089230D01*
X0048587Y0089230D01*
X0047576Y0089649D01*
X0046803Y0090423D01*
X0046384Y0091433D01*
X0046384Y0098433D01*
X0046803Y0099444D01*
X0047576Y0100217D01*
X0047693Y0100266D01*
X0047693Y0100406D01*
X0045876Y0101158D01*
X0044258Y0102776D01*
X0043783Y0103924D01*
X0043783Y0086168D01*
X0043933Y0086230D01*
X0050933Y0086230D01*
X0051944Y0085812D01*
X0052717Y0085038D01*
X0053136Y0084027D01*
X0053136Y0076210D01*
X0053589Y0076663D01*
X0055215Y0077337D01*
X0056974Y0077337D01*
X0058600Y0076663D01*
X0059844Y0075419D01*
X0060518Y0073793D01*
X0060518Y0073589D01*
X0060770Y0073589D01*
X0061100Y0074384D01*
X0062372Y0075656D01*
X0064034Y0076344D01*
X0065832Y0076344D01*
X0067494Y0075656D01*
X0068766Y0074384D01*
X0069455Y0072722D01*
X0069455Y0070923D01*
X0068766Y0069262D01*
X0067494Y0067990D01*
X0065832Y0067301D01*
X0064034Y0067301D01*
X0063569Y0067494D01*
X0063569Y0063550D01*
X0079316Y0063217D01*
X0079422Y0063324D01*
X0080943Y0063954D01*
X0082279Y0063954D01*
X0089687Y0071362D01*
X0089687Y0075630D01*
X0090106Y0076640D01*
X0090879Y0077414D01*
X0091146Y0077525D01*
X0091146Y0078342D01*
X0090879Y0078452D01*
X0090106Y0079226D01*
X0089687Y0080236D01*
X0089687Y0087630D01*
X0090106Y0088640D01*
X0090879Y0089414D01*
X0091890Y0089833D01*
X0094237Y0089833D01*
X0094447Y0090340D01*
X0095530Y0091423D01*
X0095530Y0091423D01*
X0095970Y0091864D01*
X0095970Y0091864D01*
X0097053Y0092947D01*
X0098468Y0093533D01*
X0099151Y0093533D01*
X0099325Y0093707D01*
X0098862Y0093899D02*
X0092554Y0093899D01*
X0091433Y0093899D02*
X0091433Y0093899D01*
X0090313Y0093899D02*
X0070844Y0093899D01*
X0071080Y0096397D02*
X0087068Y0096397D01*
X0086483Y0098896D02*
X0071133Y0098896D01*
X0071240Y0101394D02*
X0070667Y0101394D01*
X0077733Y0106033D02*
X0052133Y0106033D01*
X0051693Y0106033D01*
X0051693Y0094933D01*
X0046384Y0093899D02*
X0043783Y0093899D01*
X0043783Y0096397D02*
X0046384Y0096397D01*
X0046576Y0098896D02*
X0043783Y0098896D01*
X0043783Y0101394D02*
X0045640Y0101394D01*
X0043796Y0103893D02*
X0043783Y0103893D01*
X0043783Y0108142D02*
X0043783Y0199346D01*
X0044330Y0198026D01*
X0045526Y0196830D01*
X0047088Y0196183D01*
X0048778Y0196183D01*
X0050340Y0196830D01*
X0051536Y0198026D01*
X0052183Y0199588D01*
X0052183Y0201278D01*
X0051536Y0202840D01*
X0050340Y0204036D01*
X0048778Y0204683D01*
X0047088Y0204683D01*
X0045526Y0204036D01*
X0044330Y0202840D01*
X0043783Y0201520D01*
X0043783Y0204784D01*
X0067433Y0204784D01*
X0067433Y0185933D01*
X0144933Y0185933D01*
X0144933Y0204784D01*
X0157835Y0204784D01*
X0160468Y0204633D01*
X0165630Y0203561D01*
X0166555Y0203169D01*
X0165026Y0202536D01*
X0163830Y0201340D01*
X0163183Y0199778D01*
X0163183Y0198088D01*
X0163830Y0196526D01*
X0165026Y0195330D01*
X0166552Y0194698D01*
X0166830Y0194026D01*
X0168026Y0192830D01*
X0169302Y0192302D01*
X0169830Y0191026D01*
X0171026Y0189830D01*
X0172588Y0189183D01*
X0174278Y0189183D01*
X0175840Y0189830D01*
X0177036Y0191026D01*
X0177683Y0192588D01*
X0177683Y0194278D01*
X0177036Y0195840D01*
X0175840Y0197036D01*
X0174565Y0197565D01*
X0174036Y0198840D01*
X0173263Y0199613D01*
X0174844Y0198538D01*
X0178541Y0194780D01*
X0181434Y0190372D01*
X0183411Y0185484D01*
X0184397Y0180305D01*
X0184504Y0177670D01*
X0184504Y0177654D01*
X0184499Y0177001D01*
X0184504Y0176988D01*
X0184504Y0046372D01*
X0184340Y0046536D01*
X0182778Y0047183D01*
X0181088Y0047183D01*
X0179526Y0046536D01*
X0178330Y0045340D01*
X0177683Y0043778D01*
X0177683Y0042088D01*
X0178330Y0040526D01*
X0179073Y0039783D01*
X0049643Y0039783D01*
X0050183Y0041088D01*
X0050183Y0042778D01*
X0049536Y0044340D01*
X0049241Y0044636D01*
X0050933Y0044636D01*
X0051944Y0045054D01*
X0052717Y0045828D01*
X0053136Y0046839D01*
X0053136Y0054656D01*
X0053589Y0054203D01*
X0055215Y0053530D01*
X0056974Y0053530D01*
X0058600Y0054203D01*
X0059844Y0055447D01*
X0060395Y0056778D01*
X0060563Y0056778D01*
X0061100Y0055482D01*
X0062372Y0054210D01*
X0064034Y0053522D01*
X0065832Y0053522D01*
X0067494Y0054210D01*
X0068766Y0055482D01*
X0069282Y0056728D01*
X0079210Y0056518D01*
X0079422Y0056306D01*
X0080943Y0055676D01*
X0082590Y0055676D01*
X0084111Y0056306D01*
X0085276Y0057470D01*
X0085279Y0057478D01*
X0093834Y0066033D01*
X0098102Y0066033D01*
X0099113Y0066452D01*
X0099382Y0066722D01*
X0099443Y0066687D01*
X0100015Y0066533D01*
X0102841Y0066533D01*
X0102841Y0071903D01*
X0102900Y0071903D01*
X0102900Y0066533D01*
X0105725Y0066533D01*
X0106298Y0066687D01*
X0106811Y0066983D01*
X0107187Y0067359D01*
X0107187Y0065963D01*
X0111966Y0065963D01*
X0111966Y0065904D01*
X0107187Y0065904D01*
X0107187Y0062487D01*
X0107340Y0061915D01*
X0107637Y0061402D01*
X0108055Y0060983D01*
X0108569Y0060687D01*
X0109141Y0060533D01*
X0111967Y0060533D01*
X0111967Y0065903D01*
X0112026Y0065903D01*
X0112026Y0060533D01*
X0114851Y0060533D01*
X0115424Y0060687D01*
X0115484Y0060722D01*
X0115753Y0060452D01*
X0116764Y0060033D01*
X0120375Y0060033D01*
X0124768Y0055899D01*
X0124058Y0055190D01*
X0123933Y0054887D01*
X0123808Y0055190D01*
X0122190Y0056808D01*
X0120077Y0057683D01*
X0117789Y0057683D01*
X0115676Y0056808D01*
X0114058Y0055190D01*
X0113658Y0054224D01*
X0113423Y0054685D01*
X0112938Y0055353D01*
X0112353Y0055938D01*
X0111685Y0056423D01*
X0110948Y0056798D01*
X0110162Y0057054D01*
X0109346Y0057183D01*
X0108933Y0057183D01*
X0108520Y0057183D01*
X0107704Y0057054D01*
X0106918Y0056798D01*
X0106181Y0056423D01*
X0105513Y0055938D01*
X0104929Y0055353D01*
X0104443Y0054685D01*
X0104208Y0054224D01*
X0103808Y0055190D01*
X0102190Y0056808D01*
X0100077Y0057683D01*
X0097789Y0057683D01*
X0095676Y0056808D01*
X0094058Y0055190D01*
X0093933Y0054887D01*
X0093808Y0055190D01*
X0092190Y0056808D01*
X0090077Y0057683D01*
X0087789Y0057683D01*
X0085676Y0056808D01*
X0084058Y0055190D01*
X0083183Y0053077D01*
X0083183Y0044789D01*
X0084058Y0042676D01*
X0085676Y0041058D01*
X0087789Y0040183D01*
X0090077Y0040183D01*
X0092190Y0041058D01*
X0093808Y0042676D01*
X0093933Y0042979D01*
X0094058Y0042676D01*
X0095676Y0041058D01*
X0097789Y0040183D01*
X0100077Y0040183D01*
X0102190Y0041058D01*
X0103808Y0042676D01*
X0104208Y0043642D01*
X0104443Y0043181D01*
X0104929Y0042513D01*
X0105513Y0041929D01*
X0106181Y0041443D01*
X0106918Y0041068D01*
X0107704Y0040812D01*
X0108520Y0040683D01*
X0108933Y0040683D01*
X0108933Y0048933D01*
X0108933Y0048933D01*
X0108933Y0040683D01*
X0109346Y0040683D01*
X0110162Y0040812D01*
X0110948Y0041068D01*
X0111685Y0041443D01*
X0112353Y0041929D01*
X0112938Y0042513D01*
X0113423Y0043181D01*
X0113658Y0043642D01*
X0114058Y0042676D01*
X0115676Y0041058D01*
X0117789Y0040183D01*
X0120077Y0040183D01*
X0122190Y0041058D01*
X0123808Y0042676D01*
X0123933Y0042979D01*
X0124058Y0042676D01*
X0125676Y0041058D01*
X0127789Y0040183D01*
X0130077Y0040183D01*
X0132190Y0041058D01*
X0133808Y0042676D01*
X0133933Y0042979D01*
X0134058Y0042676D01*
X0135676Y0041058D01*
X0137789Y0040183D01*
X0140077Y0040183D01*
X0142190Y0041058D01*
X0143808Y0042676D01*
X0143933Y0042979D01*
X0144058Y0042676D01*
X0145676Y0041058D01*
X0147789Y0040183D01*
X0150077Y0040183D01*
X0152190Y0041058D01*
X0153808Y0042676D01*
X0154683Y0044789D01*
X0154683Y0053077D01*
X0154308Y0053983D01*
X0165251Y0053983D01*
X0166176Y0053058D01*
X0168289Y0052183D01*
X0176577Y0052183D01*
X0178690Y0053058D01*
X0180308Y0054676D01*
X0181183Y0056789D01*
X0181183Y0059077D01*
X0180405Y0060955D01*
X0182431Y0062981D01*
X0183373Y0063923D01*
X0183883Y0065154D01*
X0183883Y0115097D01*
X0183401Y0116260D01*
X0184064Y0116923D01*
X0184482Y0117933D01*
X0184482Y0124933D01*
X0184064Y0125944D01*
X0183290Y0126717D01*
X0182279Y0127136D01*
X0176067Y0127136D01*
X0175433Y0126873D01*
X0174799Y0127136D01*
X0170442Y0127136D01*
X0170633Y0127598D01*
X0170633Y0129269D01*
X0170442Y0129730D01*
X0174799Y0129730D01*
X0175433Y0129993D01*
X0176067Y0129730D01*
X0182279Y0129730D01*
X0183290Y0130149D01*
X0184064Y0130923D01*
X0184482Y0131933D01*
X0184482Y0138933D01*
X0184064Y0139944D01*
X0183290Y0140717D01*
X0182279Y0141136D01*
X0176067Y0141136D01*
X0175433Y0140873D01*
X0174799Y0141136D01*
X0168587Y0141136D01*
X0167576Y0140717D01*
X0166803Y0139944D01*
X0166529Y0139283D01*
X0166420Y0139283D01*
X0166064Y0140141D01*
X0165291Y0140914D01*
X0164280Y0141333D01*
X0158783Y0141333D01*
X0158783Y0151303D01*
X0158835Y0151483D01*
X0158783Y0151965D01*
X0158783Y0152449D01*
X0158712Y0152622D01*
X0158691Y0152808D01*
X0158459Y0153233D01*
X0158273Y0153681D01*
X0158141Y0153813D01*
X0158051Y0153976D01*
X0157673Y0154280D01*
X0157331Y0154623D01*
X0157158Y0154695D01*
X0155949Y0155666D01*
X0157299Y0157016D01*
X0158083Y0158909D01*
X0158083Y0160957D01*
X0157299Y0162850D01*
X0155850Y0164299D01*
X0154320Y0164933D01*
X0155850Y0165567D01*
X0157299Y0167016D01*
X0158083Y0168909D01*
X0158083Y0170957D01*
X0157299Y0172850D01*
X0155850Y0174299D01*
X0153957Y0175083D01*
X0151909Y0175083D01*
X0150016Y0174299D01*
X0148567Y0172850D01*
X0147783Y0170957D01*
X0147783Y0168909D01*
X0148567Y0167016D01*
X0150016Y0165567D01*
X0151547Y0164933D01*
X0150016Y0164299D01*
X0148567Y0162850D01*
X0148270Y0162133D01*
X0146948Y0162133D01*
X0145404Y0161494D01*
X0144222Y0160312D01*
X0143583Y0158769D01*
X0143583Y0157098D01*
X0144222Y0155554D01*
X0145404Y0154372D01*
X0146948Y0153733D01*
X0147661Y0153733D01*
X0152083Y0150178D01*
X0152083Y0141125D01*
X0151575Y0140914D01*
X0151494Y0140833D01*
X0149433Y0140833D01*
X0146837Y0140833D01*
X0146265Y0140680D01*
X0145752Y0140384D01*
X0145333Y0139965D01*
X0145036Y0139452D01*
X0144883Y0138879D01*
X0144883Y0135433D01*
X0144883Y0131987D01*
X0145036Y0131415D01*
X0145333Y0130902D01*
X0145752Y0130483D01*
X0146265Y0130186D01*
X0146837Y0130033D01*
X0149433Y0130033D01*
X0149433Y0135433D01*
X0149433Y0135433D01*
X0144883Y0135433D01*
X0149433Y0135433D01*
X0149433Y0135433D01*
X0149433Y0130033D01*
X0151494Y0130033D01*
X0151575Y0129952D01*
X0152586Y0129533D01*
X0156890Y0129533D01*
X0156866Y0129523D01*
X0155923Y0128581D01*
X0154693Y0127351D01*
X0154686Y0127333D01*
X0153086Y0127333D01*
X0152075Y0126914D01*
X0151994Y0126833D01*
X0149933Y0126833D01*
X0147337Y0126833D01*
X0146765Y0126680D01*
X0146252Y0126384D01*
X0145833Y0125965D01*
X0145536Y0125452D01*
X0145383Y0124879D01*
X0145383Y0121433D01*
X0145383Y0117987D01*
X0145536Y0117415D01*
X0145833Y0116902D01*
X0146252Y0116483D01*
X0146765Y0116186D01*
X0147337Y0116033D01*
X0149933Y0116033D01*
X0149933Y0121433D01*
X0149933Y0121433D01*
X0145383Y0121433D01*
X0149933Y0121433D01*
X0149933Y0121433D01*
X0149933Y0116033D01*
X0151994Y0116033D01*
X0152075Y0115952D01*
X0153086Y0115533D01*
X0158780Y0115533D01*
X0158933Y0115596D01*
X0159086Y0115533D01*
X0164780Y0115533D01*
X0165791Y0115952D01*
X0166564Y0116725D01*
X0166724Y0117111D01*
X0166803Y0116923D01*
X0167576Y0116149D01*
X0168587Y0115730D01*
X0174799Y0115730D01*
X0175433Y0115993D01*
X0175823Y0115831D01*
X0175823Y0115124D01*
X0176333Y0113893D01*
X0177183Y0113043D01*
X0177183Y0112885D01*
X0176662Y0113054D01*
X0175846Y0113183D01*
X0172433Y0113183D01*
X0169020Y0113183D01*
X0168204Y0113054D01*
X0167418Y0112798D01*
X0166681Y0112423D01*
X0166013Y0111938D01*
X0165429Y0111353D01*
X0164943Y0110685D01*
X0164568Y0109948D01*
X0164312Y0109162D01*
X0164183Y0108346D01*
X0164183Y0107933D01*
X0164183Y0107520D01*
X0164312Y0106704D01*
X0164568Y0105918D01*
X0164943Y0105181D01*
X0165429Y0104513D01*
X0166013Y0103929D01*
X0166681Y0103443D01*
X0167142Y0103208D01*
X0166176Y0102808D01*
X0164558Y0101190D01*
X0163683Y0099077D01*
X0163683Y0096789D01*
X0164558Y0094676D01*
X0166176Y0093058D01*
X0166479Y0092933D01*
X0166176Y0092808D01*
X0164558Y0091190D01*
X0163683Y0089077D01*
X0163683Y0086789D01*
X0164558Y0084676D01*
X0166176Y0083058D01*
X0166479Y0082933D01*
X0166176Y0082808D01*
X0164558Y0081190D01*
X0163683Y0079077D01*
X0163683Y0076789D01*
X0164558Y0074676D01*
X0166176Y0073058D01*
X0166479Y0072933D01*
X0166176Y0072808D01*
X0164558Y0071190D01*
X0163683Y0069077D01*
X0163683Y0067769D01*
X0143356Y0088096D01*
X0152012Y0088096D01*
X0153022Y0088515D01*
X0153796Y0089289D01*
X0154215Y0090299D01*
X0154215Y0105567D01*
X0153796Y0106577D01*
X0153022Y0107351D01*
X0152012Y0107770D01*
X0142256Y0107770D01*
X0141245Y0107351D01*
X0140472Y0106577D01*
X0140053Y0105567D01*
X0140053Y0091399D01*
X0130171Y0101282D01*
X0129621Y0101509D01*
X0129463Y0101890D01*
X0128871Y0102482D01*
X0129463Y0103074D01*
X0129882Y0104085D01*
X0129882Y0109978D01*
X0129463Y0110989D01*
X0128690Y0111762D01*
X0127679Y0112181D01*
X0127339Y0112181D01*
X0127673Y0112516D01*
X0127970Y0113232D01*
X0129726Y0114989D01*
X0130778Y0115424D01*
X0131942Y0116589D01*
X0132572Y0118110D01*
X0132572Y0119756D01*
X0132036Y0121051D01*
X0132812Y0121372D01*
X0133994Y0122554D01*
X0134633Y0124098D01*
X0134633Y0125769D01*
X0133994Y0127312D01*
X0132812Y0128494D01*
X0131269Y0129133D01*
X0129598Y0129133D01*
X0128054Y0128494D01*
X0127843Y0128283D01*
X0126983Y0128283D01*
X0123285Y0131981D01*
X0122343Y0132923D01*
X0121111Y0133433D01*
X0101171Y0133433D01*
X0100283Y0134321D01*
X0100283Y0164599D01*
X0099773Y0165831D01*
X0098831Y0166773D01*
X0096273Y0169331D01*
X0095331Y0170273D01*
X0094099Y0170783D01*
X0071841Y0170783D01*
X0068801Y0173823D01*
X0067570Y0174333D01*
X0063296Y0174333D01*
X0062065Y0173823D01*
X0055593Y0167351D01*
X0055083Y0166120D01*
X0055083Y0154523D01*
X0054872Y0154312D01*
X0054233Y0152769D01*
X0054233Y0151098D01*
X0054872Y0149554D01*
X0056054Y0148372D01*
X0057598Y0147733D01*
X0059269Y0147733D01*
X0060812Y0148372D01*
X0061994Y0149554D01*
X0062083Y0149770D01*
X0062083Y0135723D01*
X0061312Y0136494D01*
X0059769Y0137133D01*
X0058098Y0137133D01*
X0056554Y0136494D01*
X0055372Y0135312D01*
X0054733Y0133769D01*
X0054733Y0132098D01*
X0055372Y0130554D01*
X0056554Y0129372D01*
X0058098Y0128733D01*
X0059769Y0128733D01*
X0061312Y0129372D01*
X0062083Y0130143D01*
X0062083Y0120258D01*
X0053277Y0111783D01*
X0047989Y0111783D01*
X0045876Y0110908D01*
X0044258Y0109290D01*
X0043783Y0108142D01*
X0043783Y0108890D02*
X0044093Y0108890D01*
X0043783Y0111388D02*
X0047037Y0111388D01*
X0043783Y0113887D02*
X0055463Y0113887D01*
X0058059Y0116385D02*
X0043783Y0116385D01*
X0043783Y0118884D02*
X0047376Y0118884D01*
X0047118Y0118968D02*
X0047904Y0118712D01*
X0048720Y0118583D01*
X0052133Y0118583D01*
X0052133Y0123833D01*
X0052133Y0123833D01*
X0043883Y0123833D01*
X0043883Y0123420D01*
X0044012Y0122604D01*
X0044268Y0121818D01*
X0044643Y0121081D01*
X0045129Y0120413D01*
X0045713Y0119829D01*
X0046381Y0119343D01*
X0047118Y0118968D01*
X0044489Y0121382D02*
X0043783Y0121382D01*
X0043883Y0123833D02*
X0052133Y0123833D01*
X0052133Y0123833D01*
X0052133Y0118583D01*
X0055546Y0118583D01*
X0056362Y0118712D01*
X0057148Y0118968D01*
X0057885Y0119343D01*
X0058553Y0119829D01*
X0059138Y0120413D01*
X0059623Y0121081D01*
X0059998Y0121818D01*
X0060254Y0122604D01*
X0060383Y0123420D01*
X0060383Y0123833D01*
X0052133Y0123833D01*
X0052133Y0129083D01*
X0048720Y0129083D01*
X0047904Y0128954D01*
X0047118Y0128698D01*
X0046381Y0128323D01*
X0045713Y0127838D01*
X0045129Y0127253D01*
X0044643Y0126585D01*
X0044268Y0125848D01*
X0044012Y0125062D01*
X0043883Y0124246D01*
X0043883Y0123833D01*
X0043883Y0123881D02*
X0043783Y0123881D01*
X0043783Y0126379D02*
X0044538Y0126379D01*
X0043783Y0128878D02*
X0047670Y0128878D01*
X0052133Y0128878D02*
X0052133Y0128878D01*
X0052133Y0129083D02*
X0052133Y0123833D01*
X0052133Y0123833D01*
X0052133Y0123833D01*
X0060383Y0123833D01*
X0060383Y0124246D01*
X0060254Y0125062D01*
X0059998Y0125848D01*
X0059623Y0126585D01*
X0059138Y0127253D01*
X0058553Y0127838D01*
X0057885Y0128323D01*
X0057148Y0128698D01*
X0056362Y0128954D01*
X0055546Y0129083D01*
X0052133Y0129083D01*
X0055032Y0131377D02*
X0043783Y0131377D01*
X0043783Y0133875D02*
X0054777Y0133875D01*
X0056434Y0136374D02*
X0043783Y0136374D01*
X0043783Y0138872D02*
X0062083Y0138872D01*
X0062083Y0136374D02*
X0061432Y0136374D01*
X0062083Y0141371D02*
X0043783Y0141371D01*
X0043783Y0143869D02*
X0062083Y0143869D01*
X0062083Y0146368D02*
X0043783Y0146368D01*
X0043783Y0148866D02*
X0055560Y0148866D01*
X0054233Y0151365D02*
X0043783Y0151365D01*
X0043783Y0153863D02*
X0054686Y0153863D01*
X0055083Y0156362D02*
X0043783Y0156362D01*
X0043783Y0158860D02*
X0055083Y0158860D01*
X0055083Y0161359D02*
X0043783Y0161359D01*
X0043783Y0163857D02*
X0055083Y0163857D01*
X0055181Y0166356D02*
X0043783Y0166356D01*
X0043783Y0168854D02*
X0057096Y0168854D01*
X0059595Y0171353D02*
X0043783Y0171353D01*
X0043783Y0173851D02*
X0062133Y0173851D01*
X0068733Y0173851D02*
X0149568Y0173851D01*
X0147947Y0171353D02*
X0071272Y0171353D01*
X0070187Y0163857D02*
X0068783Y0163857D01*
X0068783Y0161359D02*
X0070187Y0161359D01*
X0070187Y0158860D02*
X0068783Y0158860D01*
X0068783Y0156362D02*
X0070677Y0156362D01*
X0068783Y0153863D02*
X0081083Y0153863D01*
X0080480Y0151365D02*
X0068783Y0151365D01*
X0068783Y0148866D02*
X0080329Y0148866D01*
X0076526Y0146368D02*
X0076467Y0146368D01*
X0076467Y0143869D02*
X0076526Y0143869D01*
X0076467Y0141371D02*
X0076526Y0141371D01*
X0076467Y0138872D02*
X0076526Y0138872D01*
X0071865Y0138872D02*
X0068783Y0138872D01*
X0068783Y0136374D02*
X0093583Y0136374D01*
X0093583Y0138872D02*
X0089528Y0138872D01*
X0089679Y0141371D02*
X0093583Y0141371D01*
X0093583Y0143869D02*
X0089679Y0143869D01*
X0089679Y0146368D02*
X0093583Y0146368D01*
X0093583Y0148866D02*
X0088537Y0148866D01*
X0088386Y0151365D02*
X0093583Y0151365D01*
X0093583Y0153863D02*
X0087783Y0153863D01*
X0087817Y0156362D02*
X0093583Y0156362D01*
X0093583Y0158860D02*
X0088179Y0158860D01*
X0088179Y0161359D02*
X0093583Y0161359D01*
X0092271Y0163857D02*
X0088179Y0163857D01*
X0096273Y0169331D02*
X0096273Y0169331D01*
X0096750Y0168854D02*
X0147806Y0168854D01*
X0149227Y0166356D02*
X0099248Y0166356D01*
X0100283Y0163857D02*
X0149574Y0163857D01*
X0145269Y0161359D02*
X0100283Y0161359D01*
X0100283Y0158860D02*
X0143621Y0158860D01*
X0143888Y0156362D02*
X0100283Y0156362D01*
X0100283Y0153863D02*
X0146634Y0153863D01*
X0150607Y0151365D02*
X0100283Y0151365D01*
X0100283Y0148866D02*
X0152083Y0148866D01*
X0152083Y0146368D02*
X0100283Y0146368D01*
X0100283Y0143869D02*
X0152083Y0143869D01*
X0152083Y0141371D02*
X0100283Y0141371D01*
X0100283Y0138872D02*
X0144883Y0138872D01*
X0144883Y0136374D02*
X0100283Y0136374D01*
X0100729Y0133875D02*
X0144883Y0133875D01*
X0145058Y0131377D02*
X0123889Y0131377D01*
X0126388Y0128878D02*
X0128982Y0128878D01*
X0131884Y0128878D02*
X0156221Y0128878D01*
X0149933Y0126833D02*
X0149933Y0121433D01*
X0149933Y0126833D01*
X0149933Y0126379D02*
X0149933Y0126379D01*
X0149933Y0123881D02*
X0149933Y0123881D01*
X0149933Y0121433D02*
X0149933Y0121433D01*
X0149933Y0121382D02*
X0149933Y0121382D01*
X0149933Y0118884D02*
X0149933Y0118884D01*
X0149933Y0116385D02*
X0149933Y0116385D01*
X0146420Y0116385D02*
X0131739Y0116385D01*
X0132572Y0118884D02*
X0145383Y0118884D01*
X0145383Y0121382D02*
X0132822Y0121382D01*
X0134543Y0123881D02*
X0145383Y0123881D01*
X0146248Y0126379D02*
X0134380Y0126379D01*
X0126494Y0122244D02*
X0124894Y0121248D01*
X0124294Y0120648D01*
X0124294Y0119032D01*
X0123814Y0118552D01*
X0123696Y0118433D02*
X0123695Y0118433D01*
X0120433Y0118433D01*
X0120433Y0118433D01*
X0123696Y0118433D01*
X0128625Y0113887D02*
X0176339Y0113887D01*
X0172433Y0113183D02*
X0172433Y0107933D01*
X0164183Y0107933D01*
X0172433Y0107933D01*
X0172433Y0107933D01*
X0172433Y0113183D01*
X0172433Y0111388D02*
X0172433Y0111388D01*
X0172433Y0108890D02*
X0172433Y0108890D01*
X0172433Y0107933D02*
X0172433Y0107933D01*
X0166062Y0103893D02*
X0154215Y0103893D01*
X0154215Y0101394D02*
X0164763Y0101394D01*
X0163683Y0098896D02*
X0154215Y0098896D01*
X0154215Y0096397D02*
X0163845Y0096397D01*
X0165336Y0093899D02*
X0154215Y0093899D01*
X0154215Y0091400D02*
X0164769Y0091400D01*
X0163683Y0088902D02*
X0153409Y0088902D01*
X0147547Y0083905D02*
X0165330Y0083905D01*
X0163843Y0086403D02*
X0145049Y0086403D01*
X0140052Y0091400D02*
X0140053Y0091400D01*
X0140053Y0093899D02*
X0137553Y0093899D01*
X0135055Y0096397D02*
X0140053Y0096397D01*
X0140053Y0098896D02*
X0132556Y0098896D01*
X0129899Y0101394D02*
X0140053Y0101394D01*
X0140053Y0103893D02*
X0129802Y0103893D01*
X0129882Y0106391D02*
X0140395Y0106391D01*
X0129882Y0108890D02*
X0164269Y0108890D01*
X0164414Y0106391D02*
X0153873Y0106391D01*
X0165464Y0111388D02*
X0129064Y0111388D01*
X0114433Y0118433D02*
X0114433Y0126433D01*
X0118933Y0126433D01*
X0110433Y0126379D02*
X0095633Y0126379D01*
X0096251Y0128878D02*
X0094133Y0128878D01*
X0093948Y0131377D02*
X0093952Y0131377D01*
X0093583Y0133875D02*
X0068783Y0133875D01*
X0068783Y0131377D02*
X0085918Y0131377D01*
X0085733Y0128878D02*
X0082196Y0128878D01*
X0085328Y0126379D02*
X0085964Y0126379D01*
X0085598Y0125848D02*
X0085854Y0125062D01*
X0085983Y0124246D01*
X0085983Y0123833D01*
X0077733Y0123833D01*
X0077733Y0123881D02*
X0077733Y0123881D01*
X0077733Y0126379D02*
X0077733Y0126379D01*
X0077733Y0128878D02*
X0077733Y0128878D01*
X0073270Y0128878D02*
X0068783Y0128878D01*
X0068783Y0126379D02*
X0070138Y0126379D01*
X0069483Y0123881D02*
X0068783Y0123881D01*
X0068783Y0121382D02*
X0070089Y0121382D01*
X0068785Y0118884D02*
X0072976Y0118884D01*
X0077733Y0118884D02*
X0077733Y0118884D01*
X0077733Y0121382D02*
X0077733Y0121382D01*
X0082491Y0118884D02*
X0084884Y0118884D01*
X0084884Y0116385D02*
X0067723Y0116385D01*
X0065125Y0113887D02*
X0085338Y0113887D01*
X0082830Y0111388D02*
X0106327Y0111388D01*
X0103735Y0113887D02*
X0102528Y0113887D01*
X0098676Y0108890D02*
X0092812Y0108890D01*
X0091433Y0108890D02*
X0091433Y0108890D01*
X0090055Y0108890D02*
X0085773Y0108890D01*
X0086483Y0106391D02*
X0087028Y0106391D01*
X0086483Y0103893D02*
X0086070Y0103893D01*
X0086483Y0101394D02*
X0084226Y0101394D01*
X0091433Y0101394D02*
X0091433Y0101394D01*
X0091433Y0098896D02*
X0091433Y0098896D01*
X0091433Y0096397D02*
X0091433Y0096397D01*
X0095798Y0096397D02*
X0096502Y0096397D01*
X0095507Y0091400D02*
X0068172Y0091400D01*
X0058854Y0076409D02*
X0090010Y0076409D01*
X0089687Y0073911D02*
X0068962Y0073911D01*
X0069455Y0071412D02*
X0089687Y0071412D01*
X0087239Y0068914D02*
X0068419Y0068914D01*
X0063569Y0066415D02*
X0084741Y0066415D01*
X0080854Y0063917D02*
X0063569Y0063917D01*
X0060711Y0056421D02*
X0060248Y0056421D01*
X0057923Y0053923D02*
X0063066Y0053923D01*
X0066801Y0053923D02*
X0083533Y0053923D01*
X0084226Y0056421D02*
X0085289Y0056421D01*
X0086720Y0058920D02*
X0121558Y0058920D01*
X0122577Y0056421D02*
X0124213Y0056421D01*
X0129937Y0061883D02*
X0125179Y0066361D01*
X0125179Y0069630D01*
X0124760Y0070640D01*
X0123987Y0071414D01*
X0123820Y0071483D01*
X0123820Y0072285D01*
X0124260Y0072726D01*
X0124679Y0073736D01*
X0124679Y0081130D01*
X0124260Y0082140D01*
X0123487Y0082914D01*
X0122476Y0083333D01*
X0116264Y0083333D01*
X0115253Y0082914D01*
X0114984Y0082645D01*
X0114924Y0082679D01*
X0114351Y0082833D01*
X0111526Y0082833D01*
X0111526Y0077463D01*
X0111467Y0077463D01*
X0111467Y0082833D01*
X0108641Y0082833D01*
X0108069Y0082679D01*
X0107679Y0082454D01*
X0107679Y0083904D01*
X0102900Y0083904D01*
X0102900Y0083963D01*
X0107679Y0083963D01*
X0107679Y0087379D01*
X0107526Y0087951D01*
X0107230Y0088464D01*
X0106811Y0088883D01*
X0106298Y0089179D01*
X0105816Y0089308D01*
X0115583Y0099075D01*
X0115583Y0094986D01*
X0116001Y0093976D01*
X0116775Y0093202D01*
X0117046Y0093090D01*
X0116951Y0093035D01*
X0116532Y0092616D01*
X0116236Y0092103D01*
X0116083Y0091530D01*
X0116083Y0088835D01*
X0122732Y0088835D01*
X0122732Y0088835D01*
X0116083Y0088835D01*
X0116083Y0086139D01*
X0116236Y0085567D01*
X0116532Y0085054D01*
X0116951Y0084635D01*
X0117464Y0084338D01*
X0118036Y0084185D01*
X0122732Y0084185D01*
X0122732Y0088835D01*
X0129382Y0088835D01*
X0129382Y0090898D01*
X0158397Y0061883D01*
X0129937Y0061883D01*
X0127776Y0063917D02*
X0156363Y0063917D01*
X0153865Y0066415D02*
X0125179Y0066415D01*
X0125179Y0068914D02*
X0151366Y0068914D01*
X0148868Y0071412D02*
X0123989Y0071412D01*
X0124679Y0073911D02*
X0146369Y0073911D01*
X0143871Y0076409D02*
X0124679Y0076409D01*
X0124679Y0078908D02*
X0141372Y0078908D01*
X0138874Y0081406D02*
X0124565Y0081406D01*
X0122732Y0084185D02*
X0127428Y0084185D01*
X0128000Y0084338D01*
X0128513Y0084635D01*
X0128932Y0085054D01*
X0129229Y0085567D01*
X0129382Y0086139D01*
X0129382Y0088835D01*
X0122732Y0088835D01*
X0122732Y0088835D01*
X0122732Y0088835D01*
X0122732Y0084185D01*
X0122732Y0086403D02*
X0122732Y0086403D01*
X0116083Y0086403D02*
X0107679Y0086403D01*
X0106778Y0088902D02*
X0116083Y0088902D01*
X0116083Y0091400D02*
X0107908Y0091400D01*
X0110407Y0093899D02*
X0116078Y0093899D01*
X0115583Y0096397D02*
X0112905Y0096397D01*
X0115404Y0098896D02*
X0115583Y0098896D01*
X0102900Y0083905D02*
X0136375Y0083905D01*
X0133877Y0086403D02*
X0129382Y0086403D01*
X0129382Y0088902D02*
X0131378Y0088902D01*
X0150046Y0081406D02*
X0164775Y0081406D01*
X0163683Y0078908D02*
X0152544Y0078908D01*
X0155043Y0076409D02*
X0163840Y0076409D01*
X0165324Y0073911D02*
X0157542Y0073911D01*
X0160040Y0071412D02*
X0164780Y0071412D01*
X0163683Y0068914D02*
X0162539Y0068914D01*
X0165312Y0053923D02*
X0154333Y0053923D01*
X0154683Y0051424D02*
X0184504Y0051424D01*
X0184504Y0048926D02*
X0172075Y0048926D01*
X0172497Y0048751D02*
X0171449Y0049185D01*
X0170316Y0049185D01*
X0169812Y0048976D01*
X0169308Y0049185D01*
X0169308Y0049185D01*
X0169308Y0049185D01*
X0168747Y0049185D01*
X0168174Y0049185D01*
X0168174Y0049185D01*
X0167573Y0049185D01*
X0166526Y0048751D01*
X0165724Y0047949D01*
X0165424Y0047649D01*
X0164990Y0046601D01*
X0164990Y0045167D01*
X0165004Y0045134D01*
X0164990Y0045100D01*
X0164990Y0043966D01*
X0165424Y0042919D01*
X0166226Y0042117D01*
X0167273Y0041683D01*
X0171449Y0041683D01*
X0172497Y0042117D01*
X0173299Y0042919D01*
X0173732Y0043966D01*
X0173732Y0045100D01*
X0173732Y0046902D01*
X0173299Y0047949D01*
X0172497Y0048751D01*
X0173732Y0046427D02*
X0179417Y0046427D01*
X0177745Y0043929D02*
X0173717Y0043929D01*
X0177955Y0041430D02*
X0152562Y0041430D01*
X0154327Y0043929D02*
X0165005Y0043929D01*
X0164990Y0046427D02*
X0154683Y0046427D01*
X0154683Y0048926D02*
X0166948Y0048926D01*
X0179554Y0053923D02*
X0184504Y0053923D01*
X0184504Y0056421D02*
X0181031Y0056421D01*
X0181183Y0058920D02*
X0184504Y0058920D01*
X0184504Y0061418D02*
X0180868Y0061418D01*
X0182431Y0062981D02*
X0182431Y0062981D01*
X0183367Y0063917D02*
X0184504Y0063917D01*
X0184504Y0066415D02*
X0183883Y0066415D01*
X0183883Y0068914D02*
X0184504Y0068914D01*
X0184504Y0071412D02*
X0183883Y0071412D01*
X0183883Y0073911D02*
X0184504Y0073911D01*
X0184504Y0076409D02*
X0183883Y0076409D01*
X0183883Y0078908D02*
X0184504Y0078908D01*
X0184504Y0081406D02*
X0183883Y0081406D01*
X0183883Y0083905D02*
X0184504Y0083905D01*
X0184504Y0086403D02*
X0183883Y0086403D01*
X0183883Y0088902D02*
X0184504Y0088902D01*
X0184504Y0091400D02*
X0183883Y0091400D01*
X0183883Y0093899D02*
X0184504Y0093899D01*
X0184504Y0096397D02*
X0183883Y0096397D01*
X0183883Y0098896D02*
X0184504Y0098896D01*
X0184504Y0101394D02*
X0183883Y0101394D01*
X0183883Y0103893D02*
X0184504Y0103893D01*
X0184504Y0106391D02*
X0183883Y0106391D01*
X0183883Y0108890D02*
X0184504Y0108890D01*
X0184504Y0111388D02*
X0183883Y0111388D01*
X0183883Y0113887D02*
X0184504Y0113887D01*
X0184504Y0116385D02*
X0183526Y0116385D01*
X0184482Y0118884D02*
X0184504Y0118884D01*
X0184482Y0121382D02*
X0184504Y0121382D01*
X0184482Y0123881D02*
X0184504Y0123881D01*
X0184504Y0126379D02*
X0183628Y0126379D01*
X0184504Y0128878D02*
X0170633Y0128878D01*
X0167340Y0116385D02*
X0166225Y0116385D01*
X0149433Y0131377D02*
X0149433Y0131377D01*
X0149433Y0133875D02*
X0149433Y0133875D01*
X0149433Y0135433D02*
X0149433Y0140833D01*
X0149433Y0135433D01*
X0149433Y0135433D01*
X0149433Y0136374D02*
X0149433Y0136374D01*
X0149433Y0138872D02*
X0149433Y0138872D01*
X0158783Y0141371D02*
X0184504Y0141371D01*
X0184482Y0138872D02*
X0184504Y0138872D01*
X0184482Y0136374D02*
X0184504Y0136374D01*
X0184482Y0133875D02*
X0184504Y0133875D01*
X0184504Y0131377D02*
X0184252Y0131377D01*
X0184504Y0143869D02*
X0158783Y0143869D01*
X0158783Y0146368D02*
X0184504Y0146368D01*
X0184504Y0148866D02*
X0158783Y0148866D01*
X0158801Y0151365D02*
X0184504Y0151365D01*
X0184504Y0153863D02*
X0158113Y0153863D01*
X0156645Y0156362D02*
X0184504Y0156362D01*
X0184504Y0158860D02*
X0158063Y0158860D01*
X0157917Y0161359D02*
X0184504Y0161359D01*
X0184504Y0163857D02*
X0156292Y0163857D01*
X0156639Y0166356D02*
X0184504Y0166356D01*
X0184504Y0168854D02*
X0158060Y0168854D01*
X0157919Y0171353D02*
X0184504Y0171353D01*
X0184504Y0173851D02*
X0156298Y0173851D01*
X0144933Y0186344D02*
X0183063Y0186344D01*
X0183723Y0183845D02*
X0043783Y0183845D01*
X0043783Y0181347D02*
X0184198Y0181347D01*
X0184456Y0178848D02*
X0043783Y0178848D01*
X0043783Y0176350D02*
X0184504Y0176350D01*
X0182052Y0188842D02*
X0144933Y0188842D01*
X0144933Y0191341D02*
X0169700Y0191341D01*
X0167016Y0193839D02*
X0144933Y0193839D01*
X0144933Y0196338D02*
X0164018Y0196338D01*
X0163183Y0198836D02*
X0144933Y0198836D01*
X0144933Y0201335D02*
X0163828Y0201335D01*
X0164320Y0203833D02*
X0144933Y0203833D01*
X0174038Y0198836D02*
X0174406Y0198836D01*
X0176539Y0196338D02*
X0177008Y0196338D01*
X0177683Y0193839D02*
X0179158Y0193839D01*
X0180798Y0191341D02*
X0177167Y0191341D01*
X0104542Y0123881D02*
X0101395Y0123881D01*
X0086472Y0123881D02*
X0085983Y0123881D01*
X0072637Y0111388D02*
X0062529Y0111388D01*
X0060655Y0118884D02*
X0056891Y0118884D01*
X0059777Y0121382D02*
X0062083Y0121382D01*
X0062083Y0123881D02*
X0060383Y0123881D01*
X0059728Y0126379D02*
X0062083Y0126379D01*
X0062083Y0128878D02*
X0060118Y0128878D01*
X0057748Y0128878D02*
X0056596Y0128878D01*
X0052133Y0126379D02*
X0052133Y0126379D01*
X0052133Y0123881D02*
X0052133Y0123881D01*
X0052133Y0121382D02*
X0052133Y0121382D01*
X0052133Y0118884D02*
X0052133Y0118884D01*
X0068783Y0141371D02*
X0071687Y0141371D01*
X0071687Y0143869D02*
X0068783Y0143869D01*
X0068783Y0146368D02*
X0071687Y0146368D01*
X0074967Y0156362D02*
X0075026Y0156362D01*
X0074967Y0158860D02*
X0075026Y0158860D01*
X0062083Y0148866D02*
X0061306Y0148866D01*
X0067433Y0186344D02*
X0043783Y0186344D01*
X0043783Y0188842D02*
X0067433Y0188842D01*
X0067433Y0191341D02*
X0043783Y0191341D01*
X0043783Y0193839D02*
X0067433Y0193839D01*
X0067433Y0196338D02*
X0049152Y0196338D01*
X0046714Y0196338D02*
X0043783Y0196338D01*
X0043783Y0198836D02*
X0043994Y0198836D01*
X0043783Y0203833D02*
X0045323Y0203833D01*
X0050543Y0203833D02*
X0067433Y0203833D01*
X0067433Y0201335D02*
X0052160Y0201335D01*
X0051872Y0198836D02*
X0067433Y0198836D01*
X0091433Y0106391D02*
X0091433Y0106391D01*
X0091433Y0103893D02*
X0091433Y0103893D01*
X0095838Y0106391D02*
X0096469Y0106391D01*
X0090367Y0088902D02*
X0043783Y0088902D01*
X0043783Y0091400D02*
X0046398Y0091400D01*
X0043783Y0086403D02*
X0089687Y0086403D01*
X0089687Y0083905D02*
X0053136Y0083905D01*
X0053136Y0081406D02*
X0089687Y0081406D01*
X0090424Y0078908D02*
X0053136Y0078908D01*
X0053136Y0076409D02*
X0053335Y0076409D01*
X0060469Y0073911D02*
X0060904Y0073911D01*
X0069155Y0056421D02*
X0079307Y0056421D01*
X0083183Y0051424D02*
X0053136Y0051424D01*
X0053136Y0048926D02*
X0083183Y0048926D01*
X0083183Y0046427D02*
X0052965Y0046427D01*
X0049707Y0043929D02*
X0083540Y0043929D01*
X0085304Y0041430D02*
X0050183Y0041430D01*
X0053136Y0053923D02*
X0054266Y0053923D01*
X0089219Y0061418D02*
X0107627Y0061418D01*
X0107187Y0063917D02*
X0091717Y0063917D01*
X0092577Y0056421D02*
X0095289Y0056421D01*
X0102577Y0056421D02*
X0106179Y0056421D01*
X0108933Y0056421D02*
X0108933Y0056421D01*
X0108933Y0057183D02*
X0108933Y0048933D01*
X0108933Y0048933D01*
X0108933Y0057183D01*
X0111688Y0056421D02*
X0115289Y0056421D01*
X0112026Y0061418D02*
X0111967Y0061418D01*
X0111967Y0063917D02*
X0112026Y0063917D01*
X0112026Y0065963D02*
X0111967Y0065963D01*
X0111967Y0071333D01*
X0109141Y0071333D01*
X0108569Y0071179D01*
X0108055Y0070883D01*
X0107679Y0070507D01*
X0107679Y0071904D01*
X0102900Y0071904D01*
X0102900Y0071963D01*
X0102841Y0071963D01*
X0102841Y0077333D01*
X0100015Y0077333D01*
X0099443Y0077179D01*
X0099382Y0077145D01*
X0099113Y0077414D01*
X0098846Y0077525D01*
X0098846Y0078342D01*
X0099113Y0078452D01*
X0099382Y0078722D01*
X0099443Y0078687D01*
X0100015Y0078533D01*
X0102841Y0078533D01*
X0102841Y0083903D01*
X0102900Y0083903D01*
X0102900Y0078533D01*
X0105725Y0078533D01*
X0106298Y0078687D01*
X0106687Y0078912D01*
X0106687Y0077463D01*
X0111466Y0077463D01*
X0111466Y0077404D01*
X0106687Y0077404D01*
X0106687Y0076955D01*
X0106298Y0077179D01*
X0105725Y0077333D01*
X0102900Y0077333D01*
X0102900Y0071963D01*
X0107679Y0071963D01*
X0107679Y0072412D01*
X0108069Y0072187D01*
X0108641Y0072033D01*
X0111467Y0072033D01*
X0111467Y0077403D01*
X0111526Y0077403D01*
X0111526Y0072033D01*
X0114351Y0072033D01*
X0114924Y0072187D01*
X0114984Y0072222D01*
X0115253Y0071952D01*
X0115920Y0071676D01*
X0115920Y0071483D01*
X0115753Y0071414D01*
X0115484Y0071145D01*
X0115424Y0071179D01*
X0114851Y0071333D01*
X0112026Y0071333D01*
X0112026Y0065963D01*
X0112026Y0066415D02*
X0111967Y0066415D01*
X0111967Y0068914D02*
X0112026Y0068914D01*
X0115752Y0071412D02*
X0107679Y0071412D01*
X0111467Y0073911D02*
X0111526Y0073911D01*
X0111467Y0076409D02*
X0111526Y0076409D01*
X0111467Y0078908D02*
X0111526Y0078908D01*
X0111467Y0081406D02*
X0111526Y0081406D01*
X0106687Y0078908D02*
X0106680Y0078908D01*
X0102900Y0078908D02*
X0102841Y0078908D01*
X0102841Y0081406D02*
X0102900Y0081406D01*
X0102841Y0076409D02*
X0102900Y0076409D01*
X0102841Y0073911D02*
X0102900Y0073911D01*
X0102841Y0071412D02*
X0102900Y0071412D01*
X0102841Y0068914D02*
X0102900Y0068914D01*
X0099024Y0066415D02*
X0107187Y0066415D01*
X0108933Y0053923D02*
X0108933Y0053923D01*
X0108933Y0051424D02*
X0108933Y0051424D01*
X0108933Y0048926D02*
X0108933Y0048926D01*
X0108933Y0046427D02*
X0108933Y0046427D01*
X0108933Y0043929D02*
X0108933Y0043929D01*
X0108933Y0041430D02*
X0108933Y0041430D01*
X0111660Y0041430D02*
X0115304Y0041430D01*
X0122562Y0041430D02*
X0125304Y0041430D01*
X0132562Y0041430D02*
X0135304Y0041430D01*
X0142562Y0041430D02*
X0145304Y0041430D01*
X0184449Y0046427D02*
X0184504Y0046427D01*
X0106207Y0041430D02*
X0102562Y0041430D01*
X0095304Y0041430D02*
X0092562Y0041430D01*
D22*
X0082878Y0059815D02*
X0081767Y0059815D01*
X0058063Y0060315D01*
X0063933Y0068433D02*
X0066933Y0068433D01*
X0069933Y0071433D01*
X0073933Y0071433D01*
X0063933Y0068433D02*
X0062933Y0069433D01*
X0058063Y0070551D01*
X0065433Y0094433D02*
X0064933Y0094933D01*
X0066433Y0094933D01*
X0066933Y0095433D01*
X0064933Y0094933D02*
X0059173Y0094933D01*
X0052133Y0106033D02*
X0065433Y0118833D01*
X0065433Y0167433D01*
X0063963Y0170983D02*
X0058433Y0165454D01*
X0058433Y0151933D01*
X0070454Y0167433D02*
X0066904Y0170983D01*
X0063963Y0170983D01*
X0070454Y0167433D02*
X0093433Y0167433D01*
X0096933Y0163933D01*
X0096933Y0132933D01*
X0099783Y0130083D01*
X0120445Y0130083D01*
X0125595Y0124933D01*
X0130433Y0124933D01*
X0126494Y0122244D02*
X0124383Y0120933D01*
X0123933Y0120933D01*
X0121433Y0118433D01*
X0120433Y0118433D01*
X0124833Y0114833D02*
X0128433Y0118433D01*
X0128433Y0118933D01*
X0124833Y0114833D02*
X0124833Y0114413D01*
X0123603Y0113183D01*
X0112683Y0113183D01*
X0101433Y0101433D01*
X0122732Y0097933D02*
X0127933Y0097933D01*
X0155933Y0121433D02*
X0157533Y0122424D01*
X0157533Y0125453D01*
X0158763Y0126683D01*
X0164414Y0126683D01*
X0166433Y0127933D01*
X0166460Y0127952D01*
X0166485Y0127974D01*
X0166507Y0127999D01*
X0166526Y0128026D01*
X0166543Y0128055D01*
X0166555Y0128085D01*
X0166565Y0128117D01*
X0166570Y0128150D01*
X0166572Y0128183D01*
X0166570Y0128216D01*
X0166565Y0128249D01*
X0166555Y0128281D01*
X0166543Y0128311D01*
X0166526Y0128340D01*
X0166507Y0128367D01*
X0166485Y0128392D01*
X0166460Y0128414D01*
X0166433Y0128433D01*
X0155433Y0135433D02*
X0155433Y0151783D01*
X0147783Y0157933D01*
X0179173Y0121433D02*
X0179173Y0115791D01*
X0180533Y0114431D01*
X0180533Y0065821D01*
X0177546Y0062833D01*
X0177333Y0062833D01*
X0172433Y0057933D01*
X0094996Y0071933D02*
X0082878Y0059815D01*
X0084370Y0142933D02*
X0084384Y0142935D01*
X0084397Y0142939D01*
X0084409Y0142947D01*
X0084419Y0142957D01*
X0084427Y0142969D01*
X0084431Y0142982D01*
X0084433Y0142996D01*
X0084433Y0149933D01*
X0084433Y0159370D01*
X0084431Y0159447D01*
X0084425Y0159523D01*
X0084416Y0159599D01*
X0084403Y0159675D01*
X0084386Y0159750D01*
X0084366Y0159824D01*
X0084342Y0159897D01*
X0084314Y0159968D01*
X0084283Y0160038D01*
X0084248Y0160107D01*
X0084211Y0160174D01*
X0084170Y0160238D01*
X0084125Y0160301D01*
X0084078Y0160362D01*
X0084028Y0160420D01*
X0083975Y0160475D01*
X0083920Y0160528D01*
X0083862Y0160578D01*
X0083801Y0160625D01*
X0083738Y0160670D01*
X0083674Y0160711D01*
X0083607Y0160748D01*
X0083538Y0160783D01*
X0083468Y0160814D01*
X0083397Y0160842D01*
X0083324Y0160866D01*
X0083250Y0160886D01*
X0083175Y0160903D01*
X0083099Y0160916D01*
X0083023Y0160925D01*
X0082947Y0160931D01*
X0082870Y0160933D01*
D23*
X0084433Y0149933D03*
X0065433Y0167433D03*
X0058433Y0151933D03*
X0058933Y0132933D03*
X0066933Y0099433D03*
X0066933Y0095433D03*
X0118933Y0126433D03*
X0130433Y0124933D03*
X0147783Y0157933D03*
X0166433Y0128433D03*
D24*
X0128433Y0118933D03*
X0126494Y0122244D03*
X0080933Y0071433D03*
X0081767Y0059815D03*
D25*
X0091433Y0124433D03*
X0089933Y0128933D03*
X0067933Y0179433D03*
X0064433Y0179433D03*
X0161933Y0187933D03*
X0164933Y0187933D03*
X0167933Y0187933D03*
D26*
X0089933Y0128933D02*
X0091433Y0124433D01*
X0091433Y0119673D01*
X0090193Y0118433D01*
X0066933Y0099433D02*
X0066933Y0095433D01*
X0059673Y0095433D01*
X0059173Y0094933D01*
X0119370Y0077433D02*
X0119870Y0076933D01*
X0119870Y0065933D01*
X0128370Y0057933D01*
X0172433Y0057933D01*
X0167933Y0057933D01*
X0127933Y0097933D01*
D27*
X0122732Y0107031D02*
X0118094Y0107031D01*
X0100746Y0089683D01*
X0099234Y0089683D01*
X0097711Y0088160D01*
X0097711Y0086648D01*
X0094996Y0083933D01*
X0094996Y0071933D01*
X0097673Y0118433D02*
X0108433Y0118433D01*
X0161433Y0135433D02*
X0171693Y0135433D01*
X0171693Y0121433D02*
X0161933Y0121433D01*
M02*
