G75*
%MOIN*%
%OFA0B0*%
%FSLAX25Y25*%
%IPPOS*%
%LPD*%
%AMOC8*
5,1,8,0,0,1.08239X$1,22.5*
%
%ADD10C,0.02400*%
%ADD11C,0.02500*%
%ADD12C,0.03800*%
%ADD13C,0.06800*%
%ADD14R,0.05918X0.07099*%
%ADD15R,0.05524X0.05524*%
%ADD16C,0.05600*%
%ADD17R,0.05918X0.06706*%
%ADD18C,0.05800*%
%ADD19R,0.03556X0.05524*%
%ADD20R,0.05524X0.03556*%
%ADD21C,0.04146*%
%ADD22R,0.09461X0.10643*%
%ADD23R,0.08674X0.02769*%
%ADD24C,0.04343*%
%ADD25C,0.06200*%
%ADD26C,0.03700*%
%ADD27C,0.03578*%
%ADD28R,0.03700X0.03700*%
D10*
X0118433Y0129933D02*
X0118433Y0133933D01*
X0101933Y0153933D02*
X0096933Y0153933D01*
X0098433Y0146433D02*
X0098433Y0141933D01*
X0097433Y0161933D02*
X0102433Y0161933D01*
X0101933Y0165933D02*
X0096933Y0165933D01*
X0096933Y0181433D02*
X0101933Y0181433D01*
X0139433Y0181433D02*
X0144433Y0181433D01*
X0143933Y0177433D02*
X0139933Y0177433D01*
X0139933Y0173433D02*
X0143933Y0173433D01*
X0143933Y0169433D02*
X0139933Y0169433D01*
X0139433Y0149933D02*
X0143933Y0149933D01*
D11*
X0143933Y0153933D02*
X0139933Y0153933D01*
X0140433Y0157933D02*
X0143933Y0157933D01*
X0143933Y0161933D02*
X0140433Y0161933D01*
X0140933Y0165933D02*
X0143933Y0165933D01*
X0142433Y0145933D02*
X0140933Y0145933D01*
X0140933Y0141933D02*
X0141933Y0141933D01*
X0137933Y0132933D02*
X0137933Y0129933D01*
X0134433Y0129933D02*
X0134433Y0132933D01*
X0130433Y0133433D02*
X0130433Y0129933D01*
X0125933Y0129933D02*
X0125933Y0132433D01*
X0114933Y0132433D02*
X0114933Y0129433D01*
X0110933Y0129433D02*
X0110933Y0132433D01*
X0106933Y0132433D02*
X0106933Y0129433D01*
X0102933Y0129433D02*
X0102933Y0133933D01*
X0102433Y0133933D01*
X0101933Y0133933D02*
X0101933Y0138433D01*
X0101433Y0171933D02*
X0097433Y0171933D01*
X0096933Y0177433D02*
X0101433Y0177433D01*
D12*
X0045933Y0041933D03*
X0181933Y0042933D03*
X0173433Y0193433D03*
X0170433Y0196433D03*
X0167433Y0198933D03*
X0047933Y0200433D03*
D13*
X0049133Y0123833D02*
X0055133Y0123833D01*
X0055133Y0106033D02*
X0049133Y0106033D01*
X0074733Y0106033D02*
X0080733Y0106033D01*
X0080733Y0123833D02*
X0074733Y0123833D01*
X0088933Y0051933D02*
X0088933Y0045933D01*
X0098933Y0045933D02*
X0098933Y0051933D01*
X0108933Y0051933D02*
X0108933Y0045933D01*
X0118933Y0045933D02*
X0118933Y0051933D01*
X0128933Y0051933D02*
X0128933Y0045933D01*
X0138933Y0045933D02*
X0138933Y0051933D01*
X0148933Y0051933D02*
X0148933Y0045933D01*
X0169433Y0057933D02*
X0175433Y0057933D01*
X0175433Y0067933D02*
X0169433Y0067933D01*
X0169433Y0077933D02*
X0175433Y0077933D01*
X0175433Y0087933D02*
X0169433Y0087933D01*
X0169433Y0097933D02*
X0175433Y0097933D01*
X0175433Y0107933D02*
X0169433Y0107933D01*
D14*
X0162870Y0151933D03*
X0154996Y0151933D03*
X0156496Y0177933D03*
X0164370Y0177933D03*
X0082370Y0178433D03*
X0074496Y0178433D03*
X0074496Y0167933D03*
X0074496Y0160433D03*
X0082370Y0160433D03*
X0082370Y0167933D03*
X0082370Y0142933D03*
X0082370Y0135433D03*
X0074496Y0135433D03*
X0074496Y0142933D03*
D15*
X0050933Y0148799D03*
X0050933Y0157067D03*
X0050933Y0166299D03*
X0050933Y0174567D03*
D16*
X0152933Y0169933D03*
X0152933Y0159933D03*
D17*
X0059673Y0140433D03*
X0052193Y0140433D03*
X0052193Y0185433D03*
X0059673Y0185433D03*
D18*
X0090433Y0149933D03*
D19*
X0106874Y0134270D03*
X0110811Y0134270D03*
X0114748Y0134270D03*
X0118685Y0134270D03*
X0122622Y0134270D03*
X0126559Y0134270D03*
X0130496Y0134270D03*
X0134433Y0134270D03*
X0134433Y0181908D03*
X0130496Y0181908D03*
X0126559Y0181908D03*
X0122622Y0181908D03*
X0118685Y0181908D03*
X0114748Y0181908D03*
X0110811Y0181908D03*
X0106874Y0181908D03*
D20*
X0102150Y0181514D03*
X0102150Y0177577D03*
X0102150Y0173640D03*
X0102150Y0169703D03*
X0102150Y0165766D03*
X0102150Y0161829D03*
X0102150Y0157892D03*
X0102150Y0153955D03*
X0102150Y0150018D03*
X0102150Y0146081D03*
X0102150Y0142144D03*
X0102150Y0138207D03*
X0139157Y0138207D03*
X0139157Y0142144D03*
X0139157Y0146081D03*
X0139157Y0150018D03*
X0139157Y0153955D03*
X0139157Y0157892D03*
X0139157Y0161829D03*
X0139157Y0165766D03*
X0139157Y0169703D03*
X0139157Y0173640D03*
X0139157Y0177577D03*
X0139157Y0181514D03*
D21*
X0056094Y0072913D03*
X0056094Y0057953D03*
D22*
X0051941Y0048398D03*
X0072807Y0048398D03*
X0072807Y0081469D03*
X0051941Y0081469D03*
D23*
X0073791Y0071232D03*
X0073791Y0068083D03*
X0073791Y0064933D03*
X0073791Y0061783D03*
X0073791Y0058634D03*
D24*
X0064933Y0058043D03*
X0064933Y0071823D03*
D25*
X0091433Y0098733D02*
X0091433Y0104133D01*
X0101433Y0104133D02*
X0101433Y0098733D01*
D26*
X0118933Y0126433D03*
X0130433Y0124933D03*
X0147783Y0157933D03*
X0166433Y0128433D03*
X0084433Y0149933D03*
X0065433Y0167433D03*
X0058433Y0151933D03*
X0058933Y0132933D03*
X0066933Y0099433D03*
X0066933Y0095433D03*
D27*
X0080933Y0071433D03*
X0081767Y0059815D03*
X0128433Y0118933D03*
X0126494Y0122244D03*
D28*
X0091433Y0124433D03*
X0089933Y0128933D03*
X0067933Y0179433D03*
X0064433Y0179433D03*
X0161933Y0187933D03*
X0164933Y0187933D03*
X0167933Y0187933D03*
M02*
