%
M48
M72
T01C0.01378
T02C0.01500
T03C0.03000
T04C0.03200
T05C0.03346
T06C0.03543
T07C0.03600
T08C0.04000
%
T01
X81767Y59815
X80933Y71433
X126494Y122244
X128433Y118933
T02
X130433Y124933
X118933Y126433
X91433Y124433
X89933Y128933
X84433Y149933
X65433Y167433
X64433Y179433
X67933Y179433
X58433Y151933
X58933Y132933
X66933Y99433
X66933Y95433
X147783Y157933
X161933Y187933
X164933Y187933
X167933Y187933
X166433Y128433
T03
X45933Y41933
X181933Y42933
X173433Y193433
X170433Y196433
X167433Y198933
X47933Y200433
T04
X152933Y169933
X152933Y159933
T05
X56094Y72913
X56094Y57953
T06
X64933Y58043
X64933Y71823
T07
X91433Y101433
X101433Y101433
T08
X77733Y106033
X77733Y123833
X52133Y123833
X52133Y106033
X88933Y48933
X98933Y48933
X108933Y48933
X118933Y48933
X128933Y48933
X138933Y48933
X148933Y48933
X172433Y57933
X172433Y67933
X172433Y77933
X172433Y87933
X172433Y97933
X172433Y107933
M30
