G75*
%MOIN*%
%OFA0B0*%
%FSLAX25Y25*%
%IPPOS*%
%LPD*%
%AMOC8*
5,1,8,0,0,1.08239X$1,22.5*
%
%ADD10C,0.01200*%
%ADD11C,0.00200*%
%ADD12C,0.00000*%
%ADD13C,0.06000*%
%ADD14R,0.05118X0.06299*%
%ADD15R,0.04724X0.04724*%
%ADD16C,0.04800*%
%ADD17R,0.05118X0.05906*%
%ADD18C,0.05000*%
%ADD19R,0.02756X0.04724*%
%ADD20R,0.04724X0.02756*%
%ADD21R,0.08661X0.09843*%
%ADD22R,0.07874X0.01969*%
%ADD23C,0.05400*%
%ADD24C,0.02900*%
%ADD25C,0.02778*%
%ADD26C,0.01000*%
%ADD27C,0.02400*%
%ADD28R,0.02900X0.02900*%
%ADD29C,0.02500*%
%ADD30C,0.02200*%
D10*
X0040433Y0036433D02*
X0040433Y0208134D01*
X0157860Y0208134D01*
X0156496Y0177933D02*
X0156496Y0173496D01*
X0152933Y0169933D01*
X0148766Y0165766D01*
X0139157Y0165766D01*
X0139157Y0161829D02*
X0151037Y0161829D01*
X0152933Y0159933D01*
X0154996Y0157870D01*
X0154996Y0151933D01*
X0151567Y0146683D02*
X0166433Y0146683D01*
X0166433Y0128433D01*
X0151567Y0146683D02*
X0145295Y0153955D01*
X0139157Y0153955D01*
X0138698Y0150477D02*
X0135925Y0150477D01*
X0134233Y0152170D01*
X0134233Y0174551D01*
X0135815Y0176133D01*
X0137713Y0176133D01*
X0139157Y0177577D01*
X0157860Y0208134D02*
X0158591Y0208119D01*
X0159321Y0208087D01*
X0160050Y0208036D01*
X0160778Y0207969D01*
X0161504Y0207883D01*
X0162227Y0207780D01*
X0162948Y0207660D01*
X0163666Y0207522D01*
X0164380Y0207368D01*
X0165091Y0207195D01*
X0165797Y0207006D01*
X0166498Y0206800D01*
X0167194Y0206576D01*
X0167884Y0206337D01*
X0168568Y0206080D01*
X0169246Y0205807D01*
X0169918Y0205518D01*
X0170582Y0205212D01*
X0171238Y0204891D01*
X0171886Y0204554D01*
X0172527Y0204201D01*
X0173158Y0203833D01*
X0173780Y0203449D01*
X0174393Y0203051D01*
X0174996Y0202638D01*
X0175589Y0202211D01*
X0176172Y0201769D01*
X0176743Y0201314D01*
X0177304Y0200845D01*
X0177853Y0200362D01*
X0178390Y0199866D01*
X0178915Y0199358D01*
X0179427Y0198837D01*
X0179927Y0198304D01*
X0180414Y0197758D01*
X0180887Y0197202D01*
X0181347Y0196633D01*
X0181793Y0196054D01*
X0182225Y0195465D01*
X0182642Y0194865D01*
X0183045Y0194255D01*
X0183433Y0193636D01*
X0183806Y0193007D01*
X0184164Y0192370D01*
X0184506Y0191724D01*
X0184832Y0191070D01*
X0185143Y0190408D01*
X0185437Y0189739D01*
X0185715Y0189063D01*
X0185977Y0188381D01*
X0186222Y0187692D01*
X0186451Y0186998D01*
X0186663Y0186299D01*
X0186857Y0185594D01*
X0187035Y0184885D01*
X0187195Y0184172D01*
X0187339Y0183455D01*
X0187464Y0182735D01*
X0187573Y0182013D01*
X0187664Y0181287D01*
X0187737Y0180560D01*
X0187793Y0179831D01*
X0187831Y0179101D01*
X0187851Y0178371D01*
X0187854Y0177640D01*
X0187854Y0036433D01*
X0040433Y0036433D01*
X0073791Y0058634D02*
X0073992Y0058433D01*
X0081433Y0058433D01*
X0081433Y0059481D01*
X0081767Y0059815D01*
X0088933Y0051933D02*
X0094433Y0057433D01*
X0094433Y0079433D01*
X0077733Y0096133D01*
X0077733Y0106033D01*
X0077933Y0105833D01*
X0058933Y0132933D02*
X0058933Y0141173D01*
X0058935Y0141120D01*
X0058941Y0141068D01*
X0058950Y0141016D01*
X0058963Y0140965D01*
X0058980Y0140914D01*
X0059000Y0140866D01*
X0059024Y0140818D01*
X0059050Y0140773D01*
X0059081Y0140730D01*
X0059114Y0140688D01*
X0059150Y0140650D01*
X0059188Y0140614D01*
X0059230Y0140581D01*
X0059273Y0140550D01*
X0059318Y0140524D01*
X0059366Y0140500D01*
X0059414Y0140480D01*
X0059465Y0140463D01*
X0059516Y0140450D01*
X0059568Y0140441D01*
X0059620Y0140435D01*
X0059673Y0140433D01*
X0058433Y0151933D02*
X0056067Y0151933D01*
X0050933Y0157067D01*
X0050933Y0166299D02*
X0062049Y0155183D01*
X0085799Y0155183D01*
X0088508Y0157892D01*
X0102150Y0157892D01*
X0102609Y0161370D02*
X0102150Y0161829D01*
X0102609Y0161370D02*
X0105382Y0161370D01*
X0106612Y0160140D01*
X0106612Y0147770D01*
X0105382Y0146540D01*
X0102609Y0146540D01*
X0102150Y0146081D01*
X0102150Y0138207D02*
X0101933Y0138207D01*
X0101933Y0134433D01*
X0103396Y0132970D01*
X0103396Y0125494D01*
X0123110Y0105781D01*
X0123110Y0094433D01*
X0118933Y0090257D01*
X0118933Y0048933D01*
X0128933Y0048933D02*
X0128933Y0090765D01*
X0125810Y0093889D01*
X0125810Y0106899D01*
X0107333Y0125376D01*
X0107333Y0133811D01*
X0106874Y0134270D01*
X0110811Y0134270D02*
X0111270Y0133811D01*
X0111270Y0125257D01*
X0129033Y0107494D01*
X0129033Y0094484D01*
X0138933Y0084584D01*
X0138933Y0048933D01*
X0148933Y0048933D02*
X0148933Y0078402D01*
X0131733Y0095602D01*
X0131733Y0108613D01*
X0131733Y0115633D01*
X0128433Y0118933D01*
X0126494Y0122244D02*
X0126133Y0122605D01*
X0126133Y0133844D01*
X0126559Y0134270D01*
X0126559Y0138732D01*
X0134695Y0138732D01*
X0134695Y0148329D01*
X0136384Y0150018D01*
X0139157Y0150018D01*
X0138698Y0150477D01*
X0139157Y0146081D02*
X0139617Y0145622D01*
X0142390Y0145622D01*
X0146320Y0141692D01*
X0146320Y0131810D01*
X0142533Y0128023D01*
X0142533Y0103933D01*
X0148533Y0097933D01*
X0172433Y0097933D01*
X0172433Y0087933D02*
X0153833Y0087933D01*
X0139833Y0101933D01*
X0139833Y0129142D01*
X0143620Y0132928D01*
X0143620Y0140455D01*
X0142390Y0141685D01*
X0139617Y0141685D01*
X0139157Y0142144D01*
X0139157Y0138207D02*
X0137911Y0136961D01*
X0137911Y0131038D01*
X0137133Y0130260D01*
X0137133Y0098933D01*
X0158133Y0077933D01*
X0172433Y0077933D01*
X0172433Y0067933D02*
X0163221Y0067933D01*
X0134433Y0096721D01*
X0134433Y0134270D01*
X0130496Y0134270D02*
X0130433Y0134207D01*
X0130433Y0124933D01*
X0115207Y0125139D02*
X0131733Y0108613D01*
X0115207Y0125139D02*
X0115207Y0133811D01*
X0114748Y0134270D01*
X0090433Y0149933D02*
X0084433Y0149933D01*
X0074496Y0142933D02*
X0074496Y0135433D01*
X0074496Y0160433D02*
X0074496Y0167933D01*
X0071067Y0173183D02*
X0081183Y0173183D01*
X0082433Y0174433D01*
X0082433Y0178370D01*
X0082370Y0178433D01*
X0085226Y0177577D01*
X0102150Y0177577D01*
X0071067Y0173183D02*
X0067433Y0169549D01*
X0065433Y0167433D01*
X0139157Y0157892D02*
X0149242Y0157892D01*
X0147783Y0157933D01*
X0081433Y0071433D02*
X0080933Y0071433D01*
X0073992Y0071433D01*
X0073791Y0071232D01*
X0088933Y0051933D02*
X0088933Y0048933D01*
D11*
X0155484Y0046335D02*
X0155484Y0044533D01*
X0156685Y0044533D01*
X0157325Y0044533D02*
X0158526Y0044533D01*
X0157926Y0044533D02*
X0157926Y0046335D01*
X0157325Y0045734D01*
D12*
X0180433Y0042933D02*
X0180435Y0043010D01*
X0180441Y0043087D01*
X0180451Y0043164D01*
X0180465Y0043240D01*
X0180482Y0043315D01*
X0180504Y0043389D01*
X0180529Y0043462D01*
X0180559Y0043534D01*
X0180591Y0043604D01*
X0180628Y0043672D01*
X0180667Y0043738D01*
X0180710Y0043802D01*
X0180757Y0043864D01*
X0180806Y0043923D01*
X0180859Y0043980D01*
X0180914Y0044034D01*
X0180972Y0044085D01*
X0181033Y0044133D01*
X0181096Y0044178D01*
X0181161Y0044219D01*
X0181228Y0044257D01*
X0181297Y0044292D01*
X0181368Y0044322D01*
X0181440Y0044350D01*
X0181514Y0044373D01*
X0181588Y0044393D01*
X0181664Y0044409D01*
X0181740Y0044421D01*
X0181817Y0044429D01*
X0181894Y0044433D01*
X0181972Y0044433D01*
X0182049Y0044429D01*
X0182126Y0044421D01*
X0182202Y0044409D01*
X0182278Y0044393D01*
X0182352Y0044373D01*
X0182426Y0044350D01*
X0182498Y0044322D01*
X0182569Y0044292D01*
X0182638Y0044257D01*
X0182705Y0044219D01*
X0182770Y0044178D01*
X0182833Y0044133D01*
X0182894Y0044085D01*
X0182952Y0044034D01*
X0183007Y0043980D01*
X0183060Y0043923D01*
X0183109Y0043864D01*
X0183156Y0043802D01*
X0183199Y0043738D01*
X0183238Y0043672D01*
X0183275Y0043604D01*
X0183307Y0043534D01*
X0183337Y0043462D01*
X0183362Y0043389D01*
X0183384Y0043315D01*
X0183401Y0043240D01*
X0183415Y0043164D01*
X0183425Y0043087D01*
X0183431Y0043010D01*
X0183433Y0042933D01*
X0183431Y0042856D01*
X0183425Y0042779D01*
X0183415Y0042702D01*
X0183401Y0042626D01*
X0183384Y0042551D01*
X0183362Y0042477D01*
X0183337Y0042404D01*
X0183307Y0042332D01*
X0183275Y0042262D01*
X0183238Y0042194D01*
X0183199Y0042128D01*
X0183156Y0042064D01*
X0183109Y0042002D01*
X0183060Y0041943D01*
X0183007Y0041886D01*
X0182952Y0041832D01*
X0182894Y0041781D01*
X0182833Y0041733D01*
X0182770Y0041688D01*
X0182705Y0041647D01*
X0182638Y0041609D01*
X0182569Y0041574D01*
X0182498Y0041544D01*
X0182426Y0041516D01*
X0182352Y0041493D01*
X0182278Y0041473D01*
X0182202Y0041457D01*
X0182126Y0041445D01*
X0182049Y0041437D01*
X0181972Y0041433D01*
X0181894Y0041433D01*
X0181817Y0041437D01*
X0181740Y0041445D01*
X0181664Y0041457D01*
X0181588Y0041473D01*
X0181514Y0041493D01*
X0181440Y0041516D01*
X0181368Y0041544D01*
X0181297Y0041574D01*
X0181228Y0041609D01*
X0181161Y0041647D01*
X0181096Y0041688D01*
X0181033Y0041733D01*
X0180972Y0041781D01*
X0180914Y0041832D01*
X0180859Y0041886D01*
X0180806Y0041943D01*
X0180757Y0042002D01*
X0180710Y0042064D01*
X0180667Y0042128D01*
X0180628Y0042194D01*
X0180591Y0042262D01*
X0180559Y0042332D01*
X0180529Y0042404D01*
X0180504Y0042477D01*
X0180482Y0042551D01*
X0180465Y0042626D01*
X0180451Y0042702D01*
X0180441Y0042779D01*
X0180435Y0042856D01*
X0180433Y0042933D01*
X0063161Y0058043D02*
X0063163Y0058127D01*
X0063169Y0058210D01*
X0063179Y0058293D01*
X0063193Y0058376D01*
X0063210Y0058458D01*
X0063232Y0058539D01*
X0063257Y0058618D01*
X0063286Y0058697D01*
X0063319Y0058774D01*
X0063355Y0058849D01*
X0063395Y0058923D01*
X0063438Y0058995D01*
X0063485Y0059064D01*
X0063535Y0059131D01*
X0063588Y0059196D01*
X0063644Y0059258D01*
X0063702Y0059318D01*
X0063764Y0059375D01*
X0063828Y0059428D01*
X0063895Y0059479D01*
X0063964Y0059526D01*
X0064035Y0059571D01*
X0064108Y0059611D01*
X0064183Y0059648D01*
X0064260Y0059682D01*
X0064338Y0059712D01*
X0064417Y0059738D01*
X0064498Y0059761D01*
X0064580Y0059779D01*
X0064662Y0059794D01*
X0064745Y0059805D01*
X0064828Y0059812D01*
X0064912Y0059815D01*
X0064996Y0059814D01*
X0065079Y0059809D01*
X0065163Y0059800D01*
X0065245Y0059787D01*
X0065327Y0059771D01*
X0065408Y0059750D01*
X0065489Y0059726D01*
X0065567Y0059698D01*
X0065645Y0059666D01*
X0065721Y0059630D01*
X0065795Y0059591D01*
X0065867Y0059549D01*
X0065937Y0059503D01*
X0066005Y0059454D01*
X0066070Y0059402D01*
X0066133Y0059347D01*
X0066193Y0059289D01*
X0066251Y0059228D01*
X0066305Y0059164D01*
X0066357Y0059098D01*
X0066405Y0059030D01*
X0066450Y0058959D01*
X0066491Y0058886D01*
X0066530Y0058812D01*
X0066564Y0058736D01*
X0066595Y0058658D01*
X0066622Y0058579D01*
X0066646Y0058498D01*
X0066665Y0058417D01*
X0066681Y0058335D01*
X0066693Y0058252D01*
X0066701Y0058168D01*
X0066705Y0058085D01*
X0066705Y0058001D01*
X0066701Y0057918D01*
X0066693Y0057834D01*
X0066681Y0057751D01*
X0066665Y0057669D01*
X0066646Y0057588D01*
X0066622Y0057507D01*
X0066595Y0057428D01*
X0066564Y0057350D01*
X0066530Y0057274D01*
X0066491Y0057200D01*
X0066450Y0057127D01*
X0066405Y0057056D01*
X0066357Y0056988D01*
X0066305Y0056922D01*
X0066251Y0056858D01*
X0066193Y0056797D01*
X0066133Y0056739D01*
X0066070Y0056684D01*
X0066005Y0056632D01*
X0065937Y0056583D01*
X0065867Y0056537D01*
X0065795Y0056495D01*
X0065721Y0056456D01*
X0065645Y0056420D01*
X0065567Y0056388D01*
X0065489Y0056360D01*
X0065408Y0056336D01*
X0065327Y0056315D01*
X0065245Y0056299D01*
X0065163Y0056286D01*
X0065079Y0056277D01*
X0064996Y0056272D01*
X0064912Y0056271D01*
X0064828Y0056274D01*
X0064745Y0056281D01*
X0064662Y0056292D01*
X0064580Y0056307D01*
X0064498Y0056325D01*
X0064417Y0056348D01*
X0064338Y0056374D01*
X0064260Y0056404D01*
X0064183Y0056438D01*
X0064108Y0056475D01*
X0064035Y0056515D01*
X0063964Y0056560D01*
X0063895Y0056607D01*
X0063828Y0056658D01*
X0063764Y0056711D01*
X0063702Y0056768D01*
X0063644Y0056828D01*
X0063588Y0056890D01*
X0063535Y0056955D01*
X0063485Y0057022D01*
X0063438Y0057091D01*
X0063395Y0057163D01*
X0063355Y0057237D01*
X0063319Y0057312D01*
X0063286Y0057389D01*
X0063257Y0057468D01*
X0063232Y0057547D01*
X0063210Y0057628D01*
X0063193Y0057710D01*
X0063179Y0057793D01*
X0063169Y0057876D01*
X0063163Y0057959D01*
X0063161Y0058043D01*
X0054421Y0057953D02*
X0054423Y0058034D01*
X0054429Y0058116D01*
X0054439Y0058197D01*
X0054453Y0058277D01*
X0054470Y0058356D01*
X0054492Y0058435D01*
X0054517Y0058512D01*
X0054546Y0058589D01*
X0054579Y0058663D01*
X0054616Y0058736D01*
X0054655Y0058807D01*
X0054699Y0058876D01*
X0054745Y0058943D01*
X0054795Y0059007D01*
X0054848Y0059069D01*
X0054904Y0059129D01*
X0054962Y0059185D01*
X0055024Y0059239D01*
X0055088Y0059290D01*
X0055154Y0059337D01*
X0055222Y0059381D01*
X0055293Y0059422D01*
X0055365Y0059459D01*
X0055440Y0059493D01*
X0055515Y0059523D01*
X0055593Y0059549D01*
X0055671Y0059572D01*
X0055750Y0059590D01*
X0055830Y0059605D01*
X0055911Y0059616D01*
X0055992Y0059623D01*
X0056074Y0059626D01*
X0056155Y0059625D01*
X0056236Y0059620D01*
X0056317Y0059611D01*
X0056398Y0059598D01*
X0056478Y0059581D01*
X0056556Y0059561D01*
X0056634Y0059536D01*
X0056711Y0059508D01*
X0056786Y0059476D01*
X0056859Y0059441D01*
X0056930Y0059402D01*
X0057000Y0059359D01*
X0057067Y0059314D01*
X0057133Y0059265D01*
X0057195Y0059213D01*
X0057255Y0059157D01*
X0057312Y0059099D01*
X0057367Y0059039D01*
X0057418Y0058975D01*
X0057466Y0058910D01*
X0057511Y0058842D01*
X0057553Y0058772D01*
X0057591Y0058700D01*
X0057626Y0058626D01*
X0057657Y0058551D01*
X0057684Y0058474D01*
X0057707Y0058396D01*
X0057727Y0058317D01*
X0057743Y0058237D01*
X0057755Y0058156D01*
X0057763Y0058075D01*
X0057767Y0057994D01*
X0057767Y0057912D01*
X0057763Y0057831D01*
X0057755Y0057750D01*
X0057743Y0057669D01*
X0057727Y0057589D01*
X0057707Y0057510D01*
X0057684Y0057432D01*
X0057657Y0057355D01*
X0057626Y0057280D01*
X0057591Y0057206D01*
X0057553Y0057134D01*
X0057511Y0057064D01*
X0057466Y0056996D01*
X0057418Y0056931D01*
X0057367Y0056867D01*
X0057312Y0056807D01*
X0057255Y0056749D01*
X0057195Y0056693D01*
X0057133Y0056641D01*
X0057067Y0056592D01*
X0057000Y0056547D01*
X0056931Y0056504D01*
X0056859Y0056465D01*
X0056786Y0056430D01*
X0056711Y0056398D01*
X0056634Y0056370D01*
X0056556Y0056345D01*
X0056478Y0056325D01*
X0056398Y0056308D01*
X0056317Y0056295D01*
X0056236Y0056286D01*
X0056155Y0056281D01*
X0056074Y0056280D01*
X0055992Y0056283D01*
X0055911Y0056290D01*
X0055830Y0056301D01*
X0055750Y0056316D01*
X0055671Y0056334D01*
X0055593Y0056357D01*
X0055515Y0056383D01*
X0055440Y0056413D01*
X0055365Y0056447D01*
X0055293Y0056484D01*
X0055222Y0056525D01*
X0055154Y0056569D01*
X0055088Y0056616D01*
X0055024Y0056667D01*
X0054962Y0056721D01*
X0054904Y0056777D01*
X0054848Y0056837D01*
X0054795Y0056899D01*
X0054745Y0056963D01*
X0054699Y0057030D01*
X0054655Y0057099D01*
X0054616Y0057170D01*
X0054579Y0057243D01*
X0054546Y0057317D01*
X0054517Y0057394D01*
X0054492Y0057471D01*
X0054470Y0057550D01*
X0054453Y0057629D01*
X0054439Y0057709D01*
X0054429Y0057790D01*
X0054423Y0057872D01*
X0054421Y0057953D01*
X0054421Y0072913D02*
X0054423Y0072994D01*
X0054429Y0073076D01*
X0054439Y0073157D01*
X0054453Y0073237D01*
X0054470Y0073316D01*
X0054492Y0073395D01*
X0054517Y0073472D01*
X0054546Y0073549D01*
X0054579Y0073623D01*
X0054616Y0073696D01*
X0054655Y0073767D01*
X0054699Y0073836D01*
X0054745Y0073903D01*
X0054795Y0073967D01*
X0054848Y0074029D01*
X0054904Y0074089D01*
X0054962Y0074145D01*
X0055024Y0074199D01*
X0055088Y0074250D01*
X0055154Y0074297D01*
X0055222Y0074341D01*
X0055293Y0074382D01*
X0055365Y0074419D01*
X0055440Y0074453D01*
X0055515Y0074483D01*
X0055593Y0074509D01*
X0055671Y0074532D01*
X0055750Y0074550D01*
X0055830Y0074565D01*
X0055911Y0074576D01*
X0055992Y0074583D01*
X0056074Y0074586D01*
X0056155Y0074585D01*
X0056236Y0074580D01*
X0056317Y0074571D01*
X0056398Y0074558D01*
X0056478Y0074541D01*
X0056556Y0074521D01*
X0056634Y0074496D01*
X0056711Y0074468D01*
X0056786Y0074436D01*
X0056859Y0074401D01*
X0056930Y0074362D01*
X0057000Y0074319D01*
X0057067Y0074274D01*
X0057133Y0074225D01*
X0057195Y0074173D01*
X0057255Y0074117D01*
X0057312Y0074059D01*
X0057367Y0073999D01*
X0057418Y0073935D01*
X0057466Y0073870D01*
X0057511Y0073802D01*
X0057553Y0073732D01*
X0057591Y0073660D01*
X0057626Y0073586D01*
X0057657Y0073511D01*
X0057684Y0073434D01*
X0057707Y0073356D01*
X0057727Y0073277D01*
X0057743Y0073197D01*
X0057755Y0073116D01*
X0057763Y0073035D01*
X0057767Y0072954D01*
X0057767Y0072872D01*
X0057763Y0072791D01*
X0057755Y0072710D01*
X0057743Y0072629D01*
X0057727Y0072549D01*
X0057707Y0072470D01*
X0057684Y0072392D01*
X0057657Y0072315D01*
X0057626Y0072240D01*
X0057591Y0072166D01*
X0057553Y0072094D01*
X0057511Y0072024D01*
X0057466Y0071956D01*
X0057418Y0071891D01*
X0057367Y0071827D01*
X0057312Y0071767D01*
X0057255Y0071709D01*
X0057195Y0071653D01*
X0057133Y0071601D01*
X0057067Y0071552D01*
X0057000Y0071507D01*
X0056931Y0071464D01*
X0056859Y0071425D01*
X0056786Y0071390D01*
X0056711Y0071358D01*
X0056634Y0071330D01*
X0056556Y0071305D01*
X0056478Y0071285D01*
X0056398Y0071268D01*
X0056317Y0071255D01*
X0056236Y0071246D01*
X0056155Y0071241D01*
X0056074Y0071240D01*
X0055992Y0071243D01*
X0055911Y0071250D01*
X0055830Y0071261D01*
X0055750Y0071276D01*
X0055671Y0071294D01*
X0055593Y0071317D01*
X0055515Y0071343D01*
X0055440Y0071373D01*
X0055365Y0071407D01*
X0055293Y0071444D01*
X0055222Y0071485D01*
X0055154Y0071529D01*
X0055088Y0071576D01*
X0055024Y0071627D01*
X0054962Y0071681D01*
X0054904Y0071737D01*
X0054848Y0071797D01*
X0054795Y0071859D01*
X0054745Y0071923D01*
X0054699Y0071990D01*
X0054655Y0072059D01*
X0054616Y0072130D01*
X0054579Y0072203D01*
X0054546Y0072277D01*
X0054517Y0072354D01*
X0054492Y0072431D01*
X0054470Y0072510D01*
X0054453Y0072589D01*
X0054439Y0072669D01*
X0054429Y0072750D01*
X0054423Y0072832D01*
X0054421Y0072913D01*
X0063161Y0071823D02*
X0063163Y0071907D01*
X0063169Y0071990D01*
X0063179Y0072073D01*
X0063193Y0072156D01*
X0063210Y0072238D01*
X0063232Y0072319D01*
X0063257Y0072398D01*
X0063286Y0072477D01*
X0063319Y0072554D01*
X0063355Y0072629D01*
X0063395Y0072703D01*
X0063438Y0072775D01*
X0063485Y0072844D01*
X0063535Y0072911D01*
X0063588Y0072976D01*
X0063644Y0073038D01*
X0063702Y0073098D01*
X0063764Y0073155D01*
X0063828Y0073208D01*
X0063895Y0073259D01*
X0063964Y0073306D01*
X0064035Y0073351D01*
X0064108Y0073391D01*
X0064183Y0073428D01*
X0064260Y0073462D01*
X0064338Y0073492D01*
X0064417Y0073518D01*
X0064498Y0073541D01*
X0064580Y0073559D01*
X0064662Y0073574D01*
X0064745Y0073585D01*
X0064828Y0073592D01*
X0064912Y0073595D01*
X0064996Y0073594D01*
X0065079Y0073589D01*
X0065163Y0073580D01*
X0065245Y0073567D01*
X0065327Y0073551D01*
X0065408Y0073530D01*
X0065489Y0073506D01*
X0065567Y0073478D01*
X0065645Y0073446D01*
X0065721Y0073410D01*
X0065795Y0073371D01*
X0065867Y0073329D01*
X0065937Y0073283D01*
X0066005Y0073234D01*
X0066070Y0073182D01*
X0066133Y0073127D01*
X0066193Y0073069D01*
X0066251Y0073008D01*
X0066305Y0072944D01*
X0066357Y0072878D01*
X0066405Y0072810D01*
X0066450Y0072739D01*
X0066491Y0072666D01*
X0066530Y0072592D01*
X0066564Y0072516D01*
X0066595Y0072438D01*
X0066622Y0072359D01*
X0066646Y0072278D01*
X0066665Y0072197D01*
X0066681Y0072115D01*
X0066693Y0072032D01*
X0066701Y0071948D01*
X0066705Y0071865D01*
X0066705Y0071781D01*
X0066701Y0071698D01*
X0066693Y0071614D01*
X0066681Y0071531D01*
X0066665Y0071449D01*
X0066646Y0071368D01*
X0066622Y0071287D01*
X0066595Y0071208D01*
X0066564Y0071130D01*
X0066530Y0071054D01*
X0066491Y0070980D01*
X0066450Y0070907D01*
X0066405Y0070836D01*
X0066357Y0070768D01*
X0066305Y0070702D01*
X0066251Y0070638D01*
X0066193Y0070577D01*
X0066133Y0070519D01*
X0066070Y0070464D01*
X0066005Y0070412D01*
X0065937Y0070363D01*
X0065867Y0070317D01*
X0065795Y0070275D01*
X0065721Y0070236D01*
X0065645Y0070200D01*
X0065567Y0070168D01*
X0065489Y0070140D01*
X0065408Y0070116D01*
X0065327Y0070095D01*
X0065245Y0070079D01*
X0065163Y0070066D01*
X0065079Y0070057D01*
X0064996Y0070052D01*
X0064912Y0070051D01*
X0064828Y0070054D01*
X0064745Y0070061D01*
X0064662Y0070072D01*
X0064580Y0070087D01*
X0064498Y0070105D01*
X0064417Y0070128D01*
X0064338Y0070154D01*
X0064260Y0070184D01*
X0064183Y0070218D01*
X0064108Y0070255D01*
X0064035Y0070295D01*
X0063964Y0070340D01*
X0063895Y0070387D01*
X0063828Y0070438D01*
X0063764Y0070491D01*
X0063702Y0070548D01*
X0063644Y0070608D01*
X0063588Y0070670D01*
X0063535Y0070735D01*
X0063485Y0070802D01*
X0063438Y0070871D01*
X0063395Y0070943D01*
X0063355Y0071017D01*
X0063319Y0071092D01*
X0063286Y0071169D01*
X0063257Y0071248D01*
X0063232Y0071327D01*
X0063210Y0071408D01*
X0063193Y0071490D01*
X0063179Y0071573D01*
X0063169Y0071656D01*
X0063163Y0071739D01*
X0063161Y0071823D01*
X0044433Y0041933D02*
X0044435Y0042010D01*
X0044441Y0042087D01*
X0044451Y0042164D01*
X0044465Y0042240D01*
X0044482Y0042315D01*
X0044504Y0042389D01*
X0044529Y0042462D01*
X0044559Y0042534D01*
X0044591Y0042604D01*
X0044628Y0042672D01*
X0044667Y0042738D01*
X0044710Y0042802D01*
X0044757Y0042864D01*
X0044806Y0042923D01*
X0044859Y0042980D01*
X0044914Y0043034D01*
X0044972Y0043085D01*
X0045033Y0043133D01*
X0045096Y0043178D01*
X0045161Y0043219D01*
X0045228Y0043257D01*
X0045297Y0043292D01*
X0045368Y0043322D01*
X0045440Y0043350D01*
X0045514Y0043373D01*
X0045588Y0043393D01*
X0045664Y0043409D01*
X0045740Y0043421D01*
X0045817Y0043429D01*
X0045894Y0043433D01*
X0045972Y0043433D01*
X0046049Y0043429D01*
X0046126Y0043421D01*
X0046202Y0043409D01*
X0046278Y0043393D01*
X0046352Y0043373D01*
X0046426Y0043350D01*
X0046498Y0043322D01*
X0046569Y0043292D01*
X0046638Y0043257D01*
X0046705Y0043219D01*
X0046770Y0043178D01*
X0046833Y0043133D01*
X0046894Y0043085D01*
X0046952Y0043034D01*
X0047007Y0042980D01*
X0047060Y0042923D01*
X0047109Y0042864D01*
X0047156Y0042802D01*
X0047199Y0042738D01*
X0047238Y0042672D01*
X0047275Y0042604D01*
X0047307Y0042534D01*
X0047337Y0042462D01*
X0047362Y0042389D01*
X0047384Y0042315D01*
X0047401Y0042240D01*
X0047415Y0042164D01*
X0047425Y0042087D01*
X0047431Y0042010D01*
X0047433Y0041933D01*
X0047431Y0041856D01*
X0047425Y0041779D01*
X0047415Y0041702D01*
X0047401Y0041626D01*
X0047384Y0041551D01*
X0047362Y0041477D01*
X0047337Y0041404D01*
X0047307Y0041332D01*
X0047275Y0041262D01*
X0047238Y0041194D01*
X0047199Y0041128D01*
X0047156Y0041064D01*
X0047109Y0041002D01*
X0047060Y0040943D01*
X0047007Y0040886D01*
X0046952Y0040832D01*
X0046894Y0040781D01*
X0046833Y0040733D01*
X0046770Y0040688D01*
X0046705Y0040647D01*
X0046638Y0040609D01*
X0046569Y0040574D01*
X0046498Y0040544D01*
X0046426Y0040516D01*
X0046352Y0040493D01*
X0046278Y0040473D01*
X0046202Y0040457D01*
X0046126Y0040445D01*
X0046049Y0040437D01*
X0045972Y0040433D01*
X0045894Y0040433D01*
X0045817Y0040437D01*
X0045740Y0040445D01*
X0045664Y0040457D01*
X0045588Y0040473D01*
X0045514Y0040493D01*
X0045440Y0040516D01*
X0045368Y0040544D01*
X0045297Y0040574D01*
X0045228Y0040609D01*
X0045161Y0040647D01*
X0045096Y0040688D01*
X0045033Y0040733D01*
X0044972Y0040781D01*
X0044914Y0040832D01*
X0044859Y0040886D01*
X0044806Y0040943D01*
X0044757Y0041002D01*
X0044710Y0041064D01*
X0044667Y0041128D01*
X0044628Y0041194D01*
X0044591Y0041262D01*
X0044559Y0041332D01*
X0044529Y0041404D01*
X0044504Y0041477D01*
X0044482Y0041551D01*
X0044465Y0041626D01*
X0044451Y0041702D01*
X0044441Y0041779D01*
X0044435Y0041856D01*
X0044433Y0041933D01*
X0171933Y0193433D02*
X0171935Y0193510D01*
X0171941Y0193587D01*
X0171951Y0193664D01*
X0171965Y0193740D01*
X0171982Y0193815D01*
X0172004Y0193889D01*
X0172029Y0193962D01*
X0172059Y0194034D01*
X0172091Y0194104D01*
X0172128Y0194172D01*
X0172167Y0194238D01*
X0172210Y0194302D01*
X0172257Y0194364D01*
X0172306Y0194423D01*
X0172359Y0194480D01*
X0172414Y0194534D01*
X0172472Y0194585D01*
X0172533Y0194633D01*
X0172596Y0194678D01*
X0172661Y0194719D01*
X0172728Y0194757D01*
X0172797Y0194792D01*
X0172868Y0194822D01*
X0172940Y0194850D01*
X0173014Y0194873D01*
X0173088Y0194893D01*
X0173164Y0194909D01*
X0173240Y0194921D01*
X0173317Y0194929D01*
X0173394Y0194933D01*
X0173472Y0194933D01*
X0173549Y0194929D01*
X0173626Y0194921D01*
X0173702Y0194909D01*
X0173778Y0194893D01*
X0173852Y0194873D01*
X0173926Y0194850D01*
X0173998Y0194822D01*
X0174069Y0194792D01*
X0174138Y0194757D01*
X0174205Y0194719D01*
X0174270Y0194678D01*
X0174333Y0194633D01*
X0174394Y0194585D01*
X0174452Y0194534D01*
X0174507Y0194480D01*
X0174560Y0194423D01*
X0174609Y0194364D01*
X0174656Y0194302D01*
X0174699Y0194238D01*
X0174738Y0194172D01*
X0174775Y0194104D01*
X0174807Y0194034D01*
X0174837Y0193962D01*
X0174862Y0193889D01*
X0174884Y0193815D01*
X0174901Y0193740D01*
X0174915Y0193664D01*
X0174925Y0193587D01*
X0174931Y0193510D01*
X0174933Y0193433D01*
X0174931Y0193356D01*
X0174925Y0193279D01*
X0174915Y0193202D01*
X0174901Y0193126D01*
X0174884Y0193051D01*
X0174862Y0192977D01*
X0174837Y0192904D01*
X0174807Y0192832D01*
X0174775Y0192762D01*
X0174738Y0192694D01*
X0174699Y0192628D01*
X0174656Y0192564D01*
X0174609Y0192502D01*
X0174560Y0192443D01*
X0174507Y0192386D01*
X0174452Y0192332D01*
X0174394Y0192281D01*
X0174333Y0192233D01*
X0174270Y0192188D01*
X0174205Y0192147D01*
X0174138Y0192109D01*
X0174069Y0192074D01*
X0173998Y0192044D01*
X0173926Y0192016D01*
X0173852Y0191993D01*
X0173778Y0191973D01*
X0173702Y0191957D01*
X0173626Y0191945D01*
X0173549Y0191937D01*
X0173472Y0191933D01*
X0173394Y0191933D01*
X0173317Y0191937D01*
X0173240Y0191945D01*
X0173164Y0191957D01*
X0173088Y0191973D01*
X0173014Y0191993D01*
X0172940Y0192016D01*
X0172868Y0192044D01*
X0172797Y0192074D01*
X0172728Y0192109D01*
X0172661Y0192147D01*
X0172596Y0192188D01*
X0172533Y0192233D01*
X0172472Y0192281D01*
X0172414Y0192332D01*
X0172359Y0192386D01*
X0172306Y0192443D01*
X0172257Y0192502D01*
X0172210Y0192564D01*
X0172167Y0192628D01*
X0172128Y0192694D01*
X0172091Y0192762D01*
X0172059Y0192832D01*
X0172029Y0192904D01*
X0172004Y0192977D01*
X0171982Y0193051D01*
X0171965Y0193126D01*
X0171951Y0193202D01*
X0171941Y0193279D01*
X0171935Y0193356D01*
X0171933Y0193433D01*
X0168933Y0196433D02*
X0168935Y0196510D01*
X0168941Y0196587D01*
X0168951Y0196664D01*
X0168965Y0196740D01*
X0168982Y0196815D01*
X0169004Y0196889D01*
X0169029Y0196962D01*
X0169059Y0197034D01*
X0169091Y0197104D01*
X0169128Y0197172D01*
X0169167Y0197238D01*
X0169210Y0197302D01*
X0169257Y0197364D01*
X0169306Y0197423D01*
X0169359Y0197480D01*
X0169414Y0197534D01*
X0169472Y0197585D01*
X0169533Y0197633D01*
X0169596Y0197678D01*
X0169661Y0197719D01*
X0169728Y0197757D01*
X0169797Y0197792D01*
X0169868Y0197822D01*
X0169940Y0197850D01*
X0170014Y0197873D01*
X0170088Y0197893D01*
X0170164Y0197909D01*
X0170240Y0197921D01*
X0170317Y0197929D01*
X0170394Y0197933D01*
X0170472Y0197933D01*
X0170549Y0197929D01*
X0170626Y0197921D01*
X0170702Y0197909D01*
X0170778Y0197893D01*
X0170852Y0197873D01*
X0170926Y0197850D01*
X0170998Y0197822D01*
X0171069Y0197792D01*
X0171138Y0197757D01*
X0171205Y0197719D01*
X0171270Y0197678D01*
X0171333Y0197633D01*
X0171394Y0197585D01*
X0171452Y0197534D01*
X0171507Y0197480D01*
X0171560Y0197423D01*
X0171609Y0197364D01*
X0171656Y0197302D01*
X0171699Y0197238D01*
X0171738Y0197172D01*
X0171775Y0197104D01*
X0171807Y0197034D01*
X0171837Y0196962D01*
X0171862Y0196889D01*
X0171884Y0196815D01*
X0171901Y0196740D01*
X0171915Y0196664D01*
X0171925Y0196587D01*
X0171931Y0196510D01*
X0171933Y0196433D01*
X0171931Y0196356D01*
X0171925Y0196279D01*
X0171915Y0196202D01*
X0171901Y0196126D01*
X0171884Y0196051D01*
X0171862Y0195977D01*
X0171837Y0195904D01*
X0171807Y0195832D01*
X0171775Y0195762D01*
X0171738Y0195694D01*
X0171699Y0195628D01*
X0171656Y0195564D01*
X0171609Y0195502D01*
X0171560Y0195443D01*
X0171507Y0195386D01*
X0171452Y0195332D01*
X0171394Y0195281D01*
X0171333Y0195233D01*
X0171270Y0195188D01*
X0171205Y0195147D01*
X0171138Y0195109D01*
X0171069Y0195074D01*
X0170998Y0195044D01*
X0170926Y0195016D01*
X0170852Y0194993D01*
X0170778Y0194973D01*
X0170702Y0194957D01*
X0170626Y0194945D01*
X0170549Y0194937D01*
X0170472Y0194933D01*
X0170394Y0194933D01*
X0170317Y0194937D01*
X0170240Y0194945D01*
X0170164Y0194957D01*
X0170088Y0194973D01*
X0170014Y0194993D01*
X0169940Y0195016D01*
X0169868Y0195044D01*
X0169797Y0195074D01*
X0169728Y0195109D01*
X0169661Y0195147D01*
X0169596Y0195188D01*
X0169533Y0195233D01*
X0169472Y0195281D01*
X0169414Y0195332D01*
X0169359Y0195386D01*
X0169306Y0195443D01*
X0169257Y0195502D01*
X0169210Y0195564D01*
X0169167Y0195628D01*
X0169128Y0195694D01*
X0169091Y0195762D01*
X0169059Y0195832D01*
X0169029Y0195904D01*
X0169004Y0195977D01*
X0168982Y0196051D01*
X0168965Y0196126D01*
X0168951Y0196202D01*
X0168941Y0196279D01*
X0168935Y0196356D01*
X0168933Y0196433D01*
X0165933Y0198933D02*
X0165935Y0199010D01*
X0165941Y0199087D01*
X0165951Y0199164D01*
X0165965Y0199240D01*
X0165982Y0199315D01*
X0166004Y0199389D01*
X0166029Y0199462D01*
X0166059Y0199534D01*
X0166091Y0199604D01*
X0166128Y0199672D01*
X0166167Y0199738D01*
X0166210Y0199802D01*
X0166257Y0199864D01*
X0166306Y0199923D01*
X0166359Y0199980D01*
X0166414Y0200034D01*
X0166472Y0200085D01*
X0166533Y0200133D01*
X0166596Y0200178D01*
X0166661Y0200219D01*
X0166728Y0200257D01*
X0166797Y0200292D01*
X0166868Y0200322D01*
X0166940Y0200350D01*
X0167014Y0200373D01*
X0167088Y0200393D01*
X0167164Y0200409D01*
X0167240Y0200421D01*
X0167317Y0200429D01*
X0167394Y0200433D01*
X0167472Y0200433D01*
X0167549Y0200429D01*
X0167626Y0200421D01*
X0167702Y0200409D01*
X0167778Y0200393D01*
X0167852Y0200373D01*
X0167926Y0200350D01*
X0167998Y0200322D01*
X0168069Y0200292D01*
X0168138Y0200257D01*
X0168205Y0200219D01*
X0168270Y0200178D01*
X0168333Y0200133D01*
X0168394Y0200085D01*
X0168452Y0200034D01*
X0168507Y0199980D01*
X0168560Y0199923D01*
X0168609Y0199864D01*
X0168656Y0199802D01*
X0168699Y0199738D01*
X0168738Y0199672D01*
X0168775Y0199604D01*
X0168807Y0199534D01*
X0168837Y0199462D01*
X0168862Y0199389D01*
X0168884Y0199315D01*
X0168901Y0199240D01*
X0168915Y0199164D01*
X0168925Y0199087D01*
X0168931Y0199010D01*
X0168933Y0198933D01*
X0168931Y0198856D01*
X0168925Y0198779D01*
X0168915Y0198702D01*
X0168901Y0198626D01*
X0168884Y0198551D01*
X0168862Y0198477D01*
X0168837Y0198404D01*
X0168807Y0198332D01*
X0168775Y0198262D01*
X0168738Y0198194D01*
X0168699Y0198128D01*
X0168656Y0198064D01*
X0168609Y0198002D01*
X0168560Y0197943D01*
X0168507Y0197886D01*
X0168452Y0197832D01*
X0168394Y0197781D01*
X0168333Y0197733D01*
X0168270Y0197688D01*
X0168205Y0197647D01*
X0168138Y0197609D01*
X0168069Y0197574D01*
X0167998Y0197544D01*
X0167926Y0197516D01*
X0167852Y0197493D01*
X0167778Y0197473D01*
X0167702Y0197457D01*
X0167626Y0197445D01*
X0167549Y0197437D01*
X0167472Y0197433D01*
X0167394Y0197433D01*
X0167317Y0197437D01*
X0167240Y0197445D01*
X0167164Y0197457D01*
X0167088Y0197473D01*
X0167014Y0197493D01*
X0166940Y0197516D01*
X0166868Y0197544D01*
X0166797Y0197574D01*
X0166728Y0197609D01*
X0166661Y0197647D01*
X0166596Y0197688D01*
X0166533Y0197733D01*
X0166472Y0197781D01*
X0166414Y0197832D01*
X0166359Y0197886D01*
X0166306Y0197943D01*
X0166257Y0198002D01*
X0166210Y0198064D01*
X0166167Y0198128D01*
X0166128Y0198194D01*
X0166091Y0198262D01*
X0166059Y0198332D01*
X0166029Y0198404D01*
X0166004Y0198477D01*
X0165982Y0198551D01*
X0165965Y0198626D01*
X0165951Y0198702D01*
X0165941Y0198779D01*
X0165935Y0198856D01*
X0165933Y0198933D01*
X0046433Y0200433D02*
X0046435Y0200510D01*
X0046441Y0200587D01*
X0046451Y0200664D01*
X0046465Y0200740D01*
X0046482Y0200815D01*
X0046504Y0200889D01*
X0046529Y0200962D01*
X0046559Y0201034D01*
X0046591Y0201104D01*
X0046628Y0201172D01*
X0046667Y0201238D01*
X0046710Y0201302D01*
X0046757Y0201364D01*
X0046806Y0201423D01*
X0046859Y0201480D01*
X0046914Y0201534D01*
X0046972Y0201585D01*
X0047033Y0201633D01*
X0047096Y0201678D01*
X0047161Y0201719D01*
X0047228Y0201757D01*
X0047297Y0201792D01*
X0047368Y0201822D01*
X0047440Y0201850D01*
X0047514Y0201873D01*
X0047588Y0201893D01*
X0047664Y0201909D01*
X0047740Y0201921D01*
X0047817Y0201929D01*
X0047894Y0201933D01*
X0047972Y0201933D01*
X0048049Y0201929D01*
X0048126Y0201921D01*
X0048202Y0201909D01*
X0048278Y0201893D01*
X0048352Y0201873D01*
X0048426Y0201850D01*
X0048498Y0201822D01*
X0048569Y0201792D01*
X0048638Y0201757D01*
X0048705Y0201719D01*
X0048770Y0201678D01*
X0048833Y0201633D01*
X0048894Y0201585D01*
X0048952Y0201534D01*
X0049007Y0201480D01*
X0049060Y0201423D01*
X0049109Y0201364D01*
X0049156Y0201302D01*
X0049199Y0201238D01*
X0049238Y0201172D01*
X0049275Y0201104D01*
X0049307Y0201034D01*
X0049337Y0200962D01*
X0049362Y0200889D01*
X0049384Y0200815D01*
X0049401Y0200740D01*
X0049415Y0200664D01*
X0049425Y0200587D01*
X0049431Y0200510D01*
X0049433Y0200433D01*
X0049431Y0200356D01*
X0049425Y0200279D01*
X0049415Y0200202D01*
X0049401Y0200126D01*
X0049384Y0200051D01*
X0049362Y0199977D01*
X0049337Y0199904D01*
X0049307Y0199832D01*
X0049275Y0199762D01*
X0049238Y0199694D01*
X0049199Y0199628D01*
X0049156Y0199564D01*
X0049109Y0199502D01*
X0049060Y0199443D01*
X0049007Y0199386D01*
X0048952Y0199332D01*
X0048894Y0199281D01*
X0048833Y0199233D01*
X0048770Y0199188D01*
X0048705Y0199147D01*
X0048638Y0199109D01*
X0048569Y0199074D01*
X0048498Y0199044D01*
X0048426Y0199016D01*
X0048352Y0198993D01*
X0048278Y0198973D01*
X0048202Y0198957D01*
X0048126Y0198945D01*
X0048049Y0198937D01*
X0047972Y0198933D01*
X0047894Y0198933D01*
X0047817Y0198937D01*
X0047740Y0198945D01*
X0047664Y0198957D01*
X0047588Y0198973D01*
X0047514Y0198993D01*
X0047440Y0199016D01*
X0047368Y0199044D01*
X0047297Y0199074D01*
X0047228Y0199109D01*
X0047161Y0199147D01*
X0047096Y0199188D01*
X0047033Y0199233D01*
X0046972Y0199281D01*
X0046914Y0199332D01*
X0046859Y0199386D01*
X0046806Y0199443D01*
X0046757Y0199502D01*
X0046710Y0199564D01*
X0046667Y0199628D01*
X0046628Y0199694D01*
X0046591Y0199762D01*
X0046559Y0199832D01*
X0046529Y0199904D01*
X0046504Y0199977D01*
X0046482Y0200051D01*
X0046465Y0200126D01*
X0046451Y0200202D01*
X0046441Y0200279D01*
X0046435Y0200356D01*
X0046433Y0200433D01*
D13*
X0049133Y0123833D02*
X0055133Y0123833D01*
X0055133Y0106033D02*
X0049133Y0106033D01*
X0074733Y0106033D02*
X0080733Y0106033D01*
X0080733Y0123833D02*
X0074733Y0123833D01*
X0088933Y0051933D02*
X0088933Y0045933D01*
X0098933Y0045933D02*
X0098933Y0051933D01*
X0108933Y0051933D02*
X0108933Y0045933D01*
X0118933Y0045933D02*
X0118933Y0051933D01*
X0128933Y0051933D02*
X0128933Y0045933D01*
X0138933Y0045933D02*
X0138933Y0051933D01*
X0148933Y0051933D02*
X0148933Y0045933D01*
X0169433Y0057933D02*
X0175433Y0057933D01*
X0175433Y0067933D02*
X0169433Y0067933D01*
X0169433Y0077933D02*
X0175433Y0077933D01*
X0175433Y0087933D02*
X0169433Y0087933D01*
X0169433Y0097933D02*
X0175433Y0097933D01*
X0175433Y0107933D02*
X0169433Y0107933D01*
D14*
X0162870Y0151933D03*
X0154996Y0151933D03*
X0156496Y0177933D03*
X0164370Y0177933D03*
X0082370Y0178433D03*
X0074496Y0178433D03*
X0074496Y0167933D03*
X0074496Y0160433D03*
X0082370Y0160433D03*
X0082370Y0167933D03*
X0082370Y0142933D03*
X0082370Y0135433D03*
X0074496Y0135433D03*
X0074496Y0142933D03*
D15*
X0050933Y0148799D03*
X0050933Y0157067D03*
X0050933Y0166299D03*
X0050933Y0174567D03*
D16*
X0152933Y0169933D03*
X0152933Y0159933D03*
D17*
X0059673Y0140433D03*
X0052193Y0140433D03*
X0052193Y0185433D03*
X0059673Y0185433D03*
D18*
X0090433Y0149933D03*
D19*
X0106874Y0134270D03*
X0110811Y0134270D03*
X0114748Y0134270D03*
X0118685Y0134270D03*
X0122622Y0134270D03*
X0126559Y0134270D03*
X0130496Y0134270D03*
X0134433Y0134270D03*
X0134433Y0181908D03*
X0130496Y0181908D03*
X0126559Y0181908D03*
X0122622Y0181908D03*
X0118685Y0181908D03*
X0114748Y0181908D03*
X0110811Y0181908D03*
X0106874Y0181908D03*
D20*
X0102150Y0181514D03*
X0102150Y0177577D03*
X0102150Y0173640D03*
X0102150Y0169703D03*
X0102150Y0165766D03*
X0102150Y0161829D03*
X0102150Y0157892D03*
X0102150Y0153955D03*
X0102150Y0150018D03*
X0102150Y0146081D03*
X0102150Y0142144D03*
X0102150Y0138207D03*
X0139157Y0138207D03*
X0139157Y0142144D03*
X0139157Y0146081D03*
X0139157Y0150018D03*
X0139157Y0153955D03*
X0139157Y0157892D03*
X0139157Y0161829D03*
X0139157Y0165766D03*
X0139157Y0169703D03*
X0139157Y0173640D03*
X0139157Y0177577D03*
X0139157Y0181514D03*
D21*
X0072807Y0081469D03*
X0051941Y0081469D03*
X0051941Y0048398D03*
X0072807Y0048398D03*
D22*
X0073791Y0058634D03*
X0073791Y0061783D03*
X0073791Y0064933D03*
X0073791Y0068083D03*
X0073791Y0071232D03*
D23*
X0091433Y0098733D02*
X0091433Y0104133D01*
X0101433Y0104133D02*
X0101433Y0098733D01*
D24*
X0118933Y0126433D03*
X0130433Y0124933D03*
X0147783Y0157933D03*
X0166433Y0128433D03*
X0084433Y0149933D03*
X0065433Y0167433D03*
X0058433Y0151933D03*
X0058933Y0132933D03*
X0066933Y0099433D03*
X0066933Y0095433D03*
D25*
X0080933Y0071433D03*
X0081767Y0059815D03*
X0128433Y0118933D03*
X0126494Y0122244D03*
D26*
X0102150Y0149933D02*
X0102150Y0150018D01*
X0102150Y0149933D02*
X0090433Y0149933D01*
D27*
X0082370Y0142933D02*
X0082370Y0135433D01*
X0079755Y0132818D01*
X0079755Y0131165D01*
X0077733Y0129143D01*
X0077733Y0123833D01*
X0089933Y0128933D02*
X0097087Y0136087D01*
X0097087Y0140703D01*
X0098669Y0142285D01*
X0101357Y0142285D01*
X0102150Y0143078D01*
X0102433Y0161933D02*
X0097433Y0161933D01*
X0102150Y0169703D02*
X0102203Y0169703D01*
X0107933Y0175433D01*
X0134266Y0175433D01*
X0135566Y0176733D01*
X0139157Y0176733D01*
X0139157Y0177577D01*
X0139157Y0181514D01*
X0147014Y0181514D01*
X0153433Y0187933D01*
X0161933Y0187933D01*
X0164933Y0187933D01*
X0164370Y0187370D01*
X0164370Y0177933D01*
X0161755Y0175318D01*
X0161755Y0173665D01*
X0161255Y0173165D01*
X0161255Y0155111D01*
X0163870Y0152496D01*
X0162870Y0151933D01*
X0143933Y0149933D02*
X0139433Y0149933D01*
X0126559Y0134270D02*
X0122622Y0134270D01*
X0139433Y0169433D02*
X0143933Y0169433D01*
X0143933Y0173433D02*
X0139433Y0173433D01*
X0139157Y0173640D02*
X0139157Y0176733D01*
X0139433Y0177433D02*
X0143933Y0177433D01*
X0139157Y0173640D02*
X0139157Y0169703D01*
X0164933Y0187933D02*
X0167933Y0187933D01*
X0102150Y0173640D02*
X0102150Y0169703D01*
X0100443Y0171933D02*
X0086370Y0171933D01*
X0082370Y0167933D01*
X0082370Y0160433D01*
X0074496Y0178433D02*
X0073496Y0179433D01*
X0067933Y0179433D01*
X0064433Y0179433D01*
X0052193Y0185433D02*
X0050933Y0185433D01*
X0050933Y0174567D01*
X0050933Y0148799D02*
X0050933Y0141693D01*
X0052193Y0140433D01*
X0100443Y0171933D02*
X0102150Y0173640D01*
D28*
X0067933Y0179433D03*
X0064433Y0179433D03*
X0089933Y0128933D03*
X0091433Y0124433D03*
X0161933Y0187933D03*
X0164933Y0187933D03*
X0167933Y0187933D03*
D29*
X0168320Y0183733D02*
X0169930Y0183733D01*
X0170941Y0184152D01*
X0171714Y0184925D01*
X0172133Y0185936D01*
X0172133Y0189371D01*
X0172588Y0189183D01*
X0174278Y0189183D01*
X0175840Y0189830D01*
X0177036Y0191026D01*
X0177683Y0192588D01*
X0177683Y0194278D01*
X0177036Y0195840D01*
X0175840Y0197036D01*
X0174565Y0197565D01*
X0174036Y0198840D01*
X0173263Y0199613D01*
X0174844Y0198538D01*
X0178541Y0194780D01*
X0181434Y0190372D01*
X0183411Y0185484D01*
X0184397Y0180305D01*
X0184504Y0177670D01*
X0184504Y0177654D01*
X0184499Y0177001D01*
X0184504Y0176988D01*
X0184504Y0053147D01*
X0172854Y0039783D01*
X0049643Y0039783D01*
X0050033Y0040726D01*
X0056819Y0040726D01*
X0057829Y0041145D01*
X0058603Y0041919D01*
X0059022Y0042929D01*
X0059022Y0048526D01*
X0063679Y0048526D01*
X0064411Y0049258D01*
X0064411Y0053522D01*
X0065726Y0053522D01*
X0065726Y0042929D01*
X0066145Y0041919D01*
X0066919Y0041145D01*
X0067929Y0040726D01*
X0077685Y0040726D01*
X0078696Y0041145D01*
X0079469Y0041919D01*
X0079888Y0042929D01*
X0079888Y0053866D01*
X0079469Y0054877D01*
X0079263Y0055083D01*
X0082099Y0055083D01*
X0083331Y0055593D01*
X0083996Y0056258D01*
X0084111Y0056306D01*
X0085276Y0057470D01*
X0085906Y0058992D01*
X0085906Y0060638D01*
X0085276Y0062159D01*
X0084111Y0063324D01*
X0082590Y0063954D01*
X0080943Y0063954D01*
X0080478Y0063761D01*
X0080478Y0066464D01*
X0080460Y0066508D01*
X0080478Y0066551D01*
X0080478Y0067294D01*
X0081756Y0067294D01*
X0083278Y0067924D01*
X0084442Y0069089D01*
X0085072Y0070610D01*
X0085072Y0072256D01*
X0084442Y0073778D01*
X0083278Y0074942D01*
X0081756Y0075572D01*
X0080110Y0075572D01*
X0079628Y0075372D01*
X0079888Y0076000D01*
X0079888Y0086937D01*
X0079469Y0087948D01*
X0078696Y0088721D01*
X0077685Y0089140D01*
X0067929Y0089140D01*
X0066919Y0088721D01*
X0066145Y0087948D01*
X0065726Y0086937D01*
X0065726Y0076344D01*
X0064411Y0076344D01*
X0064411Y0080608D01*
X0063679Y0081341D01*
X0059022Y0081341D01*
X0059022Y0086937D01*
X0058603Y0087948D01*
X0057829Y0088721D01*
X0056819Y0089140D01*
X0047063Y0089140D01*
X0046052Y0088721D01*
X0045279Y0087948D01*
X0044860Y0086937D01*
X0044860Y0081341D01*
X0043783Y0081341D01*
X0043783Y0103924D01*
X0044258Y0102776D01*
X0045876Y0101158D01*
X0047989Y0100283D01*
X0056277Y0100283D01*
X0058390Y0101158D01*
X0060008Y0102776D01*
X0060883Y0104889D01*
X0060883Y0107177D01*
X0060008Y0109290D01*
X0058390Y0110908D01*
X0056277Y0111783D01*
X0047989Y0111783D01*
X0045876Y0110908D01*
X0044258Y0109290D01*
X0043783Y0108142D01*
X0043783Y0121724D01*
X0044258Y0120576D01*
X0045876Y0118958D01*
X0047989Y0118083D01*
X0056277Y0118083D01*
X0058390Y0118958D01*
X0060008Y0120576D01*
X0060883Y0122689D01*
X0060883Y0124977D01*
X0060008Y0127090D01*
X0058390Y0128708D01*
X0056277Y0129583D01*
X0047989Y0129583D01*
X0045876Y0128708D01*
X0044258Y0127090D01*
X0043783Y0125942D01*
X0043783Y0199346D01*
X0044330Y0198026D01*
X0045526Y0196830D01*
X0047088Y0196183D01*
X0048778Y0196183D01*
X0050340Y0196830D01*
X0051536Y0198026D01*
X0052183Y0199588D01*
X0052183Y0201278D01*
X0051536Y0202840D01*
X0050340Y0204036D01*
X0048778Y0204683D01*
X0047088Y0204683D01*
X0045526Y0204036D01*
X0044330Y0202840D01*
X0043783Y0201520D01*
X0043783Y0204784D01*
X0067433Y0204784D01*
X0067433Y0185933D01*
X0103270Y0185933D01*
X0103165Y0185828D01*
X0103088Y0185642D01*
X0099240Y0185642D01*
X0098374Y0185283D01*
X0096167Y0185283D01*
X0094752Y0184697D01*
X0093669Y0183614D01*
X0093083Y0182199D01*
X0093083Y0180927D01*
X0087679Y0180927D01*
X0087679Y0182130D01*
X0087260Y0183140D01*
X0086487Y0183914D01*
X0085476Y0184333D01*
X0079264Y0184333D01*
X0078433Y0183988D01*
X0077602Y0184333D01*
X0071390Y0184333D01*
X0070379Y0183914D01*
X0070049Y0183584D01*
X0069930Y0183633D01*
X0064482Y0183633D01*
X0064482Y0185404D01*
X0059703Y0185404D01*
X0059703Y0185463D01*
X0059644Y0185463D01*
X0059644Y0190636D01*
X0056818Y0190636D01*
X0056481Y0190546D01*
X0056310Y0190717D01*
X0055299Y0191136D01*
X0049087Y0191136D01*
X0048076Y0190717D01*
X0047303Y0189944D01*
X0046884Y0188933D01*
X0046884Y0181933D01*
X0046983Y0181694D01*
X0046983Y0179230D01*
X0046240Y0178487D01*
X0045821Y0177476D01*
X0045821Y0171658D01*
X0046240Y0170647D01*
X0046453Y0170433D01*
X0046240Y0170219D01*
X0045821Y0169208D01*
X0045821Y0163390D01*
X0046240Y0162379D01*
X0046936Y0161683D01*
X0046240Y0160987D01*
X0045821Y0159976D01*
X0045821Y0154158D01*
X0046240Y0153147D01*
X0046453Y0152933D01*
X0046240Y0152719D01*
X0045821Y0151708D01*
X0045821Y0145890D01*
X0046240Y0144879D01*
X0046972Y0144146D01*
X0046884Y0143933D01*
X0046884Y0136933D01*
X0047303Y0135923D01*
X0048076Y0135149D01*
X0049087Y0134730D01*
X0055299Y0134730D01*
X0056310Y0135149D01*
X0056481Y0135321D01*
X0056818Y0135230D01*
X0059644Y0135230D01*
X0059644Y0140403D01*
X0059703Y0140403D01*
X0059703Y0135230D01*
X0062528Y0135230D01*
X0063101Y0135384D01*
X0063614Y0135680D01*
X0064033Y0136099D01*
X0064329Y0136612D01*
X0064482Y0137184D01*
X0064482Y0140404D01*
X0059703Y0140404D01*
X0059703Y0140463D01*
X0059644Y0140463D01*
X0059644Y0145636D01*
X0056818Y0145636D01*
X0056481Y0145546D01*
X0056310Y0145717D01*
X0056023Y0145836D01*
X0056045Y0145890D01*
X0056045Y0148381D01*
X0056054Y0148372D01*
X0057598Y0147733D01*
X0059269Y0147733D01*
X0060812Y0148372D01*
X0061994Y0149554D01*
X0062633Y0151098D01*
X0062633Y0151833D01*
X0080674Y0151833D01*
X0080233Y0150769D01*
X0080233Y0149098D01*
X0080343Y0148833D01*
X0079264Y0148833D01*
X0078253Y0148414D01*
X0077984Y0148145D01*
X0077924Y0148179D01*
X0077351Y0148333D01*
X0074526Y0148333D01*
X0074526Y0142963D01*
X0074467Y0142963D01*
X0074467Y0148333D01*
X0071641Y0148333D01*
X0071069Y0148179D01*
X0070555Y0147883D01*
X0070137Y0147464D01*
X0069840Y0146951D01*
X0069687Y0146379D01*
X0069687Y0142963D01*
X0074466Y0142963D01*
X0074466Y0142904D01*
X0069687Y0142904D01*
X0069687Y0139487D01*
X0069769Y0139183D01*
X0069687Y0138879D01*
X0069687Y0135463D01*
X0074466Y0135463D01*
X0074467Y0135463D02*
X0074467Y0140833D01*
X0074467Y0142903D01*
X0074526Y0142903D01*
X0074526Y0135463D01*
X0074467Y0135463D01*
X0074466Y0135463D02*
X0074466Y0135404D01*
X0069687Y0135404D01*
X0069687Y0131987D01*
X0069840Y0131415D01*
X0070137Y0130902D01*
X0070555Y0130483D01*
X0071069Y0130187D01*
X0071641Y0130033D01*
X0073826Y0130033D01*
X0073783Y0129929D01*
X0073783Y0129583D01*
X0073589Y0129583D01*
X0071476Y0128708D01*
X0069858Y0127090D01*
X0068983Y0124977D01*
X0068983Y0122689D01*
X0069858Y0120576D01*
X0071476Y0118958D01*
X0073589Y0118083D01*
X0081877Y0118083D01*
X0083990Y0118958D01*
X0085608Y0120576D01*
X0086483Y0122689D01*
X0086483Y0124977D01*
X0085608Y0127090D01*
X0083990Y0128708D01*
X0083156Y0129053D01*
X0083355Y0129533D01*
X0085476Y0129533D01*
X0086487Y0129952D01*
X0087260Y0130726D01*
X0087679Y0131736D01*
X0087679Y0139130D01*
X0087657Y0139183D01*
X0087679Y0139236D01*
X0087679Y0145391D01*
X0089389Y0144683D01*
X0091477Y0144683D01*
X0093407Y0145482D01*
X0094608Y0146683D01*
X0097537Y0146683D01*
X0097537Y0146081D01*
X0097537Y0144407D01*
X0097616Y0144113D01*
X0097537Y0143818D01*
X0097537Y0142144D01*
X0097537Y0141224D01*
X0097456Y0141143D01*
X0097037Y0140132D01*
X0097037Y0136282D01*
X0097456Y0135271D01*
X0098230Y0134498D01*
X0098583Y0134351D01*
X0098583Y0133767D01*
X0099093Y0132535D01*
X0100046Y0131582D01*
X0100046Y0124828D01*
X0100556Y0123597D01*
X0119760Y0104393D01*
X0119760Y0095821D01*
X0117035Y0093097D01*
X0116093Y0092154D01*
X0115583Y0090923D01*
X0115583Y0056715D01*
X0114058Y0055190D01*
X0113933Y0054887D01*
X0113808Y0055190D01*
X0112190Y0056808D01*
X0110077Y0057683D01*
X0107789Y0057683D01*
X0105676Y0056808D01*
X0104058Y0055190D01*
X0103658Y0054224D01*
X0103423Y0054685D01*
X0102938Y0055353D01*
X0102353Y0055938D01*
X0101685Y0056423D01*
X0100948Y0056798D01*
X0100162Y0057054D01*
X0099346Y0057183D01*
X0098933Y0057183D01*
X0098520Y0057183D01*
X0097783Y0057066D01*
X0097783Y0080099D01*
X0097273Y0081331D01*
X0096331Y0082273D01*
X0081083Y0097521D01*
X0081083Y0100283D01*
X0081877Y0100283D01*
X0083990Y0101158D01*
X0085608Y0102776D01*
X0085983Y0103682D01*
X0085983Y0097649D01*
X0086813Y0095646D01*
X0088346Y0094113D01*
X0090349Y0093283D01*
X0092517Y0093283D01*
X0094520Y0094113D01*
X0096053Y0095646D01*
X0096433Y0096563D01*
X0096813Y0095646D01*
X0098346Y0094113D01*
X0100349Y0093283D01*
X0102517Y0093283D01*
X0104520Y0094113D01*
X0106053Y0095646D01*
X0106883Y0097649D01*
X0106883Y0105217D01*
X0106053Y0107220D01*
X0104520Y0108753D01*
X0102517Y0109583D01*
X0100349Y0109583D01*
X0098346Y0108753D01*
X0096813Y0107220D01*
X0096433Y0106304D01*
X0096053Y0107220D01*
X0094520Y0108753D01*
X0092517Y0109583D01*
X0090349Y0109583D01*
X0088346Y0108753D01*
X0086813Y0107220D01*
X0086483Y0106424D01*
X0086483Y0107177D01*
X0085608Y0109290D01*
X0083990Y0110908D01*
X0081877Y0111783D01*
X0073589Y0111783D01*
X0071476Y0110908D01*
X0069858Y0109290D01*
X0068983Y0107177D01*
X0068983Y0104889D01*
X0069858Y0102776D01*
X0071476Y0101158D01*
X0073589Y0100283D01*
X0074383Y0100283D01*
X0074383Y0095467D01*
X0074893Y0094235D01*
X0091083Y0078045D01*
X0091083Y0058821D01*
X0089945Y0057683D01*
X0087789Y0057683D01*
X0085676Y0056808D01*
X0084058Y0055190D01*
X0083183Y0053077D01*
X0083183Y0044789D01*
X0084058Y0042676D01*
X0085676Y0041058D01*
X0087789Y0040183D01*
X0090077Y0040183D01*
X0092190Y0041058D01*
X0093808Y0042676D01*
X0094208Y0043642D01*
X0094443Y0043181D01*
X0094929Y0042513D01*
X0095513Y0041929D01*
X0096181Y0041443D01*
X0096918Y0041068D01*
X0097704Y0040812D01*
X0098520Y0040683D01*
X0098933Y0040683D01*
X0098933Y0048933D01*
X0098933Y0048933D01*
X0098933Y0040683D01*
X0099346Y0040683D01*
X0100162Y0040812D01*
X0100948Y0041068D01*
X0101685Y0041443D01*
X0102353Y0041929D01*
X0102938Y0042513D01*
X0103423Y0043181D01*
X0103658Y0043642D01*
X0104058Y0042676D01*
X0105676Y0041058D01*
X0107789Y0040183D01*
X0110077Y0040183D01*
X0112190Y0041058D01*
X0113808Y0042676D01*
X0113933Y0042979D01*
X0114058Y0042676D01*
X0115676Y0041058D01*
X0117789Y0040183D01*
X0120077Y0040183D01*
X0122190Y0041058D01*
X0123808Y0042676D01*
X0123933Y0042979D01*
X0124058Y0042676D01*
X0125676Y0041058D01*
X0127789Y0040183D01*
X0130077Y0040183D01*
X0132190Y0041058D01*
X0133808Y0042676D01*
X0133933Y0042979D01*
X0134058Y0042676D01*
X0135676Y0041058D01*
X0137789Y0040183D01*
X0140077Y0040183D01*
X0142190Y0041058D01*
X0143808Y0042676D01*
X0143933Y0042979D01*
X0144058Y0042676D01*
X0145676Y0041058D01*
X0147789Y0040183D01*
X0150077Y0040183D01*
X0152190Y0041058D01*
X0153559Y0042427D01*
X0153869Y0042117D01*
X0154917Y0041683D01*
X0159093Y0041683D01*
X0160141Y0042117D01*
X0160942Y0042919D01*
X0161376Y0043966D01*
X0161376Y0045100D01*
X0160942Y0046147D01*
X0160776Y0046314D01*
X0160776Y0046902D01*
X0160554Y0047436D01*
X0160342Y0047949D01*
X0159540Y0048751D01*
X0159373Y0048820D01*
X0158493Y0049185D01*
X0157359Y0049185D01*
X0156825Y0048963D01*
X0156705Y0048914D01*
X0156051Y0049185D01*
X0154917Y0049185D01*
X0154683Y0049088D01*
X0154683Y0053077D01*
X0153808Y0055190D01*
X0152283Y0056715D01*
X0152283Y0074133D01*
X0161323Y0065093D01*
X0162554Y0064583D01*
X0164651Y0064583D01*
X0166176Y0063058D01*
X0167142Y0062658D01*
X0166681Y0062423D01*
X0166013Y0061938D01*
X0165429Y0061353D01*
X0164943Y0060685D01*
X0164568Y0059948D01*
X0164312Y0059162D01*
X0164183Y0058346D01*
X0164183Y0057933D01*
X0164183Y0057520D01*
X0164312Y0056704D01*
X0164568Y0055918D01*
X0164943Y0055181D01*
X0165429Y0054513D01*
X0166013Y0053929D01*
X0166681Y0053443D01*
X0167418Y0053068D01*
X0168204Y0052812D01*
X0169020Y0052683D01*
X0172433Y0052683D01*
X0172433Y0057933D01*
X0172433Y0057933D01*
X0164183Y0057933D01*
X0172433Y0057933D01*
X0172433Y0057933D01*
X0172433Y0052683D01*
X0175846Y0052683D01*
X0176662Y0052812D01*
X0177448Y0053068D01*
X0178185Y0053443D01*
X0178853Y0053929D01*
X0179438Y0054513D01*
X0179923Y0055181D01*
X0180298Y0055918D01*
X0180554Y0056704D01*
X0180683Y0057520D01*
X0180683Y0057933D01*
X0172433Y0057933D01*
X0172433Y0057933D01*
X0180683Y0057933D01*
X0180683Y0058346D01*
X0180554Y0059162D01*
X0180298Y0059948D01*
X0179923Y0060685D01*
X0179438Y0061353D01*
X0178853Y0061938D01*
X0178185Y0062423D01*
X0177724Y0062658D01*
X0178690Y0063058D01*
X0180308Y0064676D01*
X0181183Y0066789D01*
X0181183Y0069077D01*
X0180308Y0071190D01*
X0178690Y0072808D01*
X0178387Y0072933D01*
X0178690Y0073058D01*
X0180308Y0074676D01*
X0181183Y0076789D01*
X0181183Y0079077D01*
X0180308Y0081190D01*
X0178690Y0082808D01*
X0178387Y0082933D01*
X0178690Y0083058D01*
X0180308Y0084676D01*
X0181183Y0086789D01*
X0181183Y0089077D01*
X0180308Y0091190D01*
X0178690Y0092808D01*
X0178387Y0092933D01*
X0178690Y0093058D01*
X0180308Y0094676D01*
X0181183Y0096789D01*
X0181183Y0099077D01*
X0180308Y0101190D01*
X0178690Y0102808D01*
X0178387Y0102933D01*
X0178690Y0103058D01*
X0180308Y0104676D01*
X0181183Y0106789D01*
X0181183Y0109077D01*
X0180308Y0111190D01*
X0178690Y0112808D01*
X0176577Y0113683D01*
X0168289Y0113683D01*
X0166176Y0112808D01*
X0164558Y0111190D01*
X0163683Y0109077D01*
X0163683Y0106789D01*
X0164558Y0104676D01*
X0166176Y0103058D01*
X0166479Y0102933D01*
X0166176Y0102808D01*
X0164651Y0101283D01*
X0149921Y0101283D01*
X0145883Y0105321D01*
X0145883Y0126636D01*
X0149160Y0129912D01*
X0149670Y0131144D01*
X0149670Y0142358D01*
X0149160Y0143590D01*
X0148217Y0144532D01*
X0146166Y0146583D01*
X0146171Y0146584D01*
X0146739Y0147153D01*
X0148678Y0144904D01*
X0148727Y0144786D01*
X0149111Y0144402D01*
X0149466Y0143991D01*
X0149579Y0143934D01*
X0149670Y0143843D01*
X0150171Y0143636D01*
X0150656Y0143392D01*
X0150783Y0143382D01*
X0150901Y0143333D01*
X0151444Y0143333D01*
X0151985Y0143293D01*
X0152106Y0143333D01*
X0163083Y0143333D01*
X0163083Y0131023D01*
X0162872Y0130812D01*
X0162233Y0129269D01*
X0162233Y0127598D01*
X0162872Y0126054D01*
X0164054Y0124872D01*
X0165598Y0124233D01*
X0167269Y0124233D01*
X0168812Y0124872D01*
X0169994Y0126054D01*
X0170633Y0127598D01*
X0170633Y0129269D01*
X0169994Y0130812D01*
X0169783Y0131023D01*
X0169783Y0147350D01*
X0169273Y0148581D01*
X0168331Y0149523D01*
X0168179Y0149586D01*
X0168179Y0155630D01*
X0167760Y0156640D01*
X0166987Y0157414D01*
X0165976Y0157833D01*
X0165205Y0157833D01*
X0165205Y0171672D01*
X0165355Y0172033D01*
X0167476Y0172033D01*
X0168487Y0172452D01*
X0169260Y0173226D01*
X0169679Y0174236D01*
X0169679Y0181630D01*
X0169260Y0182640D01*
X0168487Y0183414D01*
X0168320Y0183483D01*
X0168320Y0183733D01*
X0170201Y0183845D02*
X0183723Y0183845D01*
X0184198Y0181347D02*
X0169679Y0181347D01*
X0169679Y0178848D02*
X0184456Y0178848D01*
X0184504Y0176350D02*
X0169679Y0176350D01*
X0169520Y0173851D02*
X0184504Y0173851D01*
X0184504Y0171353D02*
X0165205Y0171353D01*
X0165205Y0168854D02*
X0184504Y0168854D01*
X0184504Y0166356D02*
X0165205Y0166356D01*
X0165205Y0163857D02*
X0184504Y0163857D01*
X0184504Y0161359D02*
X0165205Y0161359D01*
X0165205Y0158860D02*
X0184504Y0158860D01*
X0184504Y0156362D02*
X0167876Y0156362D01*
X0168179Y0153863D02*
X0184504Y0153863D01*
X0184504Y0151365D02*
X0168179Y0151365D01*
X0168988Y0148866D02*
X0184504Y0148866D01*
X0184504Y0146368D02*
X0169783Y0146368D01*
X0169783Y0143869D02*
X0184504Y0143869D01*
X0184504Y0141371D02*
X0169783Y0141371D01*
X0169783Y0138872D02*
X0184504Y0138872D01*
X0184504Y0136374D02*
X0169783Y0136374D01*
X0169783Y0133875D02*
X0184504Y0133875D01*
X0184504Y0131377D02*
X0169783Y0131377D01*
X0170633Y0128878D02*
X0184504Y0128878D01*
X0184504Y0126379D02*
X0170128Y0126379D01*
X0162738Y0126379D02*
X0145883Y0126379D01*
X0145883Y0123881D02*
X0184504Y0123881D01*
X0184504Y0121382D02*
X0145883Y0121382D01*
X0145883Y0118884D02*
X0184504Y0118884D01*
X0184504Y0116385D02*
X0145883Y0116385D01*
X0145883Y0113887D02*
X0184504Y0113887D01*
X0184504Y0111388D02*
X0180109Y0111388D01*
X0181183Y0108890D02*
X0184504Y0108890D01*
X0184504Y0106391D02*
X0181018Y0106391D01*
X0179525Y0103893D02*
X0184504Y0103893D01*
X0184504Y0101394D02*
X0180103Y0101394D01*
X0181183Y0098896D02*
X0184504Y0098896D01*
X0184504Y0096397D02*
X0181021Y0096397D01*
X0179531Y0093899D02*
X0184504Y0093899D01*
X0184504Y0091400D02*
X0180098Y0091400D01*
X0181183Y0088902D02*
X0184504Y0088902D01*
X0184504Y0086403D02*
X0181023Y0086403D01*
X0179537Y0083905D02*
X0184504Y0083905D01*
X0184504Y0081406D02*
X0180092Y0081406D01*
X0181183Y0078908D02*
X0184504Y0078908D01*
X0184504Y0076409D02*
X0181026Y0076409D01*
X0179542Y0073911D02*
X0184504Y0073911D01*
X0184504Y0071412D02*
X0180086Y0071412D01*
X0181183Y0068914D02*
X0184504Y0068914D01*
X0184504Y0066415D02*
X0181028Y0066415D01*
X0179548Y0063917D02*
X0184504Y0063917D01*
X0184504Y0061418D02*
X0179373Y0061418D01*
X0180592Y0058920D02*
X0184504Y0058920D01*
X0184504Y0056421D02*
X0180462Y0056421D01*
X0178845Y0053923D02*
X0184504Y0053923D01*
X0183002Y0051424D02*
X0154683Y0051424D01*
X0156676Y0048926D02*
X0156734Y0048926D01*
X0159118Y0048926D02*
X0180824Y0048926D01*
X0178646Y0046427D02*
X0160776Y0046427D01*
X0161361Y0043929D02*
X0176468Y0043929D01*
X0174289Y0041430D02*
X0152562Y0041430D01*
X0159540Y0048751D02*
X0159540Y0048751D01*
X0159540Y0048751D01*
X0154333Y0053923D02*
X0166021Y0053923D01*
X0164404Y0056421D02*
X0152577Y0056421D01*
X0152283Y0058920D02*
X0164274Y0058920D01*
X0165494Y0061418D02*
X0152283Y0061418D01*
X0152283Y0063917D02*
X0165318Y0063917D01*
X0160001Y0066415D02*
X0152283Y0066415D01*
X0152283Y0068914D02*
X0157502Y0068914D01*
X0155004Y0071412D02*
X0152283Y0071412D01*
X0152283Y0073911D02*
X0152505Y0073911D01*
X0172433Y0056421D02*
X0172433Y0056421D01*
X0172433Y0053923D02*
X0172433Y0053923D01*
X0145304Y0041430D02*
X0142562Y0041430D01*
X0135304Y0041430D02*
X0132562Y0041430D01*
X0125304Y0041430D02*
X0122562Y0041430D01*
X0115304Y0041430D02*
X0112562Y0041430D01*
X0105304Y0041430D02*
X0101660Y0041430D01*
X0098933Y0041430D02*
X0098933Y0041430D01*
X0098933Y0043929D02*
X0098933Y0043929D01*
X0098933Y0046427D02*
X0098933Y0046427D01*
X0098933Y0048926D02*
X0098933Y0048926D01*
X0098933Y0048933D02*
X0098933Y0057183D01*
X0098933Y0048933D01*
X0098933Y0048933D01*
X0098933Y0051424D02*
X0098933Y0051424D01*
X0098933Y0053923D02*
X0098933Y0053923D01*
X0098933Y0056421D02*
X0098933Y0056421D01*
X0097783Y0058920D02*
X0115583Y0058920D01*
X0115583Y0061418D02*
X0097783Y0061418D01*
X0097783Y0063917D02*
X0115583Y0063917D01*
X0115583Y0066415D02*
X0097783Y0066415D01*
X0097783Y0068914D02*
X0115583Y0068914D01*
X0115583Y0071412D02*
X0097783Y0071412D01*
X0097783Y0073911D02*
X0115583Y0073911D01*
X0115583Y0076409D02*
X0097783Y0076409D01*
X0097783Y0078908D02*
X0115583Y0078908D01*
X0115583Y0081406D02*
X0097197Y0081406D01*
X0094699Y0083905D02*
X0115583Y0083905D01*
X0115583Y0086403D02*
X0092200Y0086403D01*
X0089702Y0088902D02*
X0115583Y0088902D01*
X0115781Y0091400D02*
X0087203Y0091400D01*
X0088862Y0093899D02*
X0084705Y0093899D01*
X0086502Y0096397D02*
X0082206Y0096397D01*
X0081083Y0098896D02*
X0085983Y0098896D01*
X0085983Y0101394D02*
X0084226Y0101394D01*
X0085773Y0108890D02*
X0088676Y0108890D01*
X0094191Y0108890D02*
X0098676Y0108890D01*
X0096469Y0106391D02*
X0096397Y0106391D01*
X0104191Y0108890D02*
X0115263Y0108890D01*
X0112764Y0111388D02*
X0082830Y0111388D01*
X0083810Y0118884D02*
X0105269Y0118884D01*
X0102770Y0121382D02*
X0085942Y0121382D01*
X0086483Y0123881D02*
X0100438Y0123881D01*
X0100046Y0126379D02*
X0085902Y0126379D01*
X0083579Y0128878D02*
X0100046Y0128878D01*
X0100046Y0131377D02*
X0087530Y0131377D01*
X0087679Y0133875D02*
X0098583Y0133875D01*
X0097037Y0136374D02*
X0087679Y0136374D01*
X0087679Y0138872D02*
X0097037Y0138872D01*
X0097537Y0141371D02*
X0087679Y0141371D01*
X0087679Y0143869D02*
X0097551Y0143869D01*
X0097537Y0142144D02*
X0098780Y0142144D01*
X0098779Y0142144D01*
X0097537Y0142144D01*
X0097537Y0146081D02*
X0098780Y0146081D01*
X0098779Y0146081D01*
X0097537Y0146081D01*
X0097537Y0146368D02*
X0094292Y0146368D01*
X0102150Y0146081D02*
X0102150Y0143078D01*
X0102150Y0142144D01*
X0102150Y0142335D02*
X0102150Y0145890D01*
X0102150Y0142453D01*
X0102150Y0142335D01*
X0102150Y0142335D01*
X0102150Y0143869D02*
X0102150Y0143869D01*
X0102150Y0145890D02*
X0102150Y0145890D01*
X0118685Y0134270D02*
X0118685Y0126433D01*
X0118933Y0126433D01*
X0110266Y0113887D02*
X0043783Y0113887D01*
X0043783Y0116385D02*
X0107767Y0116385D01*
X0106397Y0106391D02*
X0117762Y0106391D01*
X0119760Y0103893D02*
X0106883Y0103893D01*
X0106883Y0101394D02*
X0119760Y0101394D01*
X0119760Y0098896D02*
X0106883Y0098896D01*
X0106365Y0096397D02*
X0119760Y0096397D01*
X0117838Y0093899D02*
X0104004Y0093899D01*
X0098862Y0093899D02*
X0094004Y0093899D01*
X0096365Y0096397D02*
X0096502Y0096397D01*
X0085224Y0083905D02*
X0079888Y0083905D01*
X0079888Y0086403D02*
X0082725Y0086403D01*
X0080227Y0088902D02*
X0078259Y0088902D01*
X0077728Y0091400D02*
X0043783Y0091400D01*
X0043783Y0088902D02*
X0046489Y0088902D01*
X0044860Y0086403D02*
X0043783Y0086403D01*
X0043783Y0083905D02*
X0044860Y0083905D01*
X0044860Y0081406D02*
X0043783Y0081406D01*
X0043783Y0093899D02*
X0075230Y0093899D01*
X0074383Y0096397D02*
X0043783Y0096397D01*
X0043783Y0098896D02*
X0074383Y0098896D01*
X0071240Y0101394D02*
X0058626Y0101394D01*
X0060470Y0103893D02*
X0069396Y0103893D01*
X0068983Y0106391D02*
X0060883Y0106391D01*
X0060173Y0108890D02*
X0069693Y0108890D01*
X0072637Y0111388D02*
X0057230Y0111388D01*
X0058210Y0118884D02*
X0071656Y0118884D01*
X0069524Y0121382D02*
X0060342Y0121382D01*
X0060883Y0123881D02*
X0068983Y0123881D01*
X0069564Y0126379D02*
X0060302Y0126379D01*
X0057979Y0128878D02*
X0071887Y0128878D01*
X0069863Y0131377D02*
X0043783Y0131377D01*
X0043783Y0133875D02*
X0069687Y0133875D01*
X0069687Y0136374D02*
X0064191Y0136374D01*
X0064482Y0138872D02*
X0069687Y0138872D01*
X0069687Y0141371D02*
X0064482Y0141371D01*
X0064482Y0140463D02*
X0064482Y0143682D01*
X0064329Y0144254D01*
X0064033Y0144767D01*
X0063614Y0145186D01*
X0063101Y0145482D01*
X0062528Y0145636D01*
X0059703Y0145636D01*
X0059703Y0140463D01*
X0064482Y0140463D01*
X0064432Y0143869D02*
X0069687Y0143869D01*
X0069687Y0146368D02*
X0056045Y0146368D01*
X0059644Y0143869D02*
X0059703Y0143869D01*
X0059644Y0141371D02*
X0059703Y0141371D01*
X0059644Y0138872D02*
X0059703Y0138872D01*
X0059644Y0136374D02*
X0059703Y0136374D01*
X0061306Y0148866D02*
X0080329Y0148866D01*
X0080480Y0151365D02*
X0062633Y0151365D01*
X0063436Y0158533D02*
X0056045Y0165925D01*
X0056045Y0169208D01*
X0055627Y0170219D01*
X0055413Y0170433D01*
X0055627Y0170647D01*
X0056045Y0171658D01*
X0056045Y0177476D01*
X0055627Y0178487D01*
X0054883Y0179230D01*
X0054883Y0179730D01*
X0055299Y0179730D01*
X0056310Y0180149D01*
X0056481Y0180321D01*
X0056818Y0180230D01*
X0059644Y0180230D01*
X0059644Y0185403D01*
X0059703Y0185403D01*
X0059703Y0180230D01*
X0060233Y0180230D01*
X0060233Y0177436D01*
X0060652Y0176425D01*
X0061425Y0175652D01*
X0062436Y0175233D01*
X0068380Y0175233D01*
X0068227Y0175080D01*
X0065501Y0172354D01*
X0065456Y0172334D01*
X0065031Y0171884D01*
X0064780Y0171633D01*
X0064598Y0171633D01*
X0063054Y0170994D01*
X0061872Y0169812D01*
X0061233Y0168269D01*
X0061233Y0166598D01*
X0061872Y0165054D01*
X0063054Y0163872D01*
X0064598Y0163233D01*
X0066269Y0163233D01*
X0067812Y0163872D01*
X0068994Y0165054D01*
X0069633Y0166598D01*
X0069633Y0166999D01*
X0069687Y0167056D01*
X0069687Y0164487D01*
X0069769Y0164183D01*
X0069687Y0163879D01*
X0069687Y0160463D01*
X0074466Y0160463D01*
X0074467Y0160463D02*
X0074467Y0165833D01*
X0074467Y0167903D01*
X0074526Y0167903D01*
X0074526Y0160463D01*
X0074467Y0160463D01*
X0074466Y0160463D02*
X0074466Y0160404D01*
X0069687Y0160404D01*
X0069687Y0158533D01*
X0063436Y0158533D01*
X0063110Y0158860D02*
X0069687Y0158860D01*
X0069687Y0161359D02*
X0060611Y0161359D01*
X0063091Y0163857D02*
X0058113Y0163857D01*
X0056045Y0166356D02*
X0061333Y0166356D01*
X0061476Y0168854D02*
X0056045Y0168854D01*
X0055919Y0171353D02*
X0063921Y0171353D01*
X0066998Y0173851D02*
X0056045Y0173851D01*
X0056045Y0176350D02*
X0060727Y0176350D01*
X0060233Y0178848D02*
X0055265Y0178848D01*
X0059644Y0181347D02*
X0059703Y0181347D01*
X0059644Y0183845D02*
X0059703Y0183845D01*
X0059703Y0185463D02*
X0064482Y0185463D01*
X0064482Y0188682D01*
X0064329Y0189254D01*
X0064033Y0189767D01*
X0063614Y0190186D01*
X0063101Y0190482D01*
X0062528Y0190636D01*
X0059703Y0190636D01*
X0059703Y0185463D01*
X0059703Y0186344D02*
X0059644Y0186344D01*
X0059644Y0188842D02*
X0059703Y0188842D01*
X0064439Y0188842D02*
X0067433Y0188842D01*
X0067433Y0186344D02*
X0064482Y0186344D01*
X0064482Y0183845D02*
X0070311Y0183845D01*
X0067433Y0191341D02*
X0043783Y0191341D01*
X0043783Y0193839D02*
X0067433Y0193839D01*
X0067433Y0196338D02*
X0049152Y0196338D01*
X0046714Y0196338D02*
X0043783Y0196338D01*
X0043783Y0198836D02*
X0043994Y0198836D01*
X0043783Y0203833D02*
X0045323Y0203833D01*
X0050543Y0203833D02*
X0067433Y0203833D01*
X0067433Y0201335D02*
X0052160Y0201335D01*
X0051872Y0198836D02*
X0067433Y0198836D01*
X0086556Y0183845D02*
X0093901Y0183845D01*
X0093083Y0181347D02*
X0087679Y0181347D01*
X0074526Y0166356D02*
X0074467Y0166356D01*
X0074467Y0163857D02*
X0074526Y0163857D01*
X0074467Y0161359D02*
X0074526Y0161359D01*
X0069687Y0163857D02*
X0067775Y0163857D01*
X0069533Y0166356D02*
X0069687Y0166356D01*
X0074467Y0146368D02*
X0074526Y0146368D01*
X0074467Y0143869D02*
X0074526Y0143869D01*
X0074467Y0141371D02*
X0074526Y0141371D01*
X0074467Y0138872D02*
X0074526Y0138872D01*
X0074467Y0136374D02*
X0074526Y0136374D01*
X0047116Y0136374D02*
X0043783Y0136374D01*
X0043783Y0138872D02*
X0046884Y0138872D01*
X0046884Y0141371D02*
X0043783Y0141371D01*
X0043783Y0143869D02*
X0046884Y0143869D01*
X0045821Y0146368D02*
X0043783Y0146368D01*
X0043783Y0148866D02*
X0045821Y0148866D01*
X0045821Y0151365D02*
X0043783Y0151365D01*
X0043783Y0153863D02*
X0045943Y0153863D01*
X0045821Y0156362D02*
X0043783Y0156362D01*
X0043783Y0158860D02*
X0045821Y0158860D01*
X0046611Y0161359D02*
X0043783Y0161359D01*
X0043783Y0163857D02*
X0045821Y0163857D01*
X0045821Y0166356D02*
X0043783Y0166356D01*
X0043783Y0168854D02*
X0045821Y0168854D01*
X0045947Y0171353D02*
X0043783Y0171353D01*
X0043783Y0173851D02*
X0045821Y0173851D01*
X0045821Y0176350D02*
X0043783Y0176350D01*
X0043783Y0178848D02*
X0046601Y0178848D01*
X0046983Y0181347D02*
X0043783Y0181347D01*
X0043783Y0183845D02*
X0046884Y0183845D01*
X0046884Y0186344D02*
X0043783Y0186344D01*
X0043783Y0188842D02*
X0046884Y0188842D01*
X0046287Y0128878D02*
X0043783Y0128878D01*
X0043783Y0126379D02*
X0043964Y0126379D01*
X0043924Y0121382D02*
X0043783Y0121382D01*
X0043783Y0118884D02*
X0046056Y0118884D01*
X0047037Y0111388D02*
X0043783Y0111388D01*
X0043783Y0108890D02*
X0044093Y0108890D01*
X0043796Y0103893D02*
X0043783Y0103893D01*
X0043783Y0101394D02*
X0045640Y0101394D01*
X0057393Y0088902D02*
X0067355Y0088902D01*
X0065726Y0086403D02*
X0059022Y0086403D01*
X0059022Y0083905D02*
X0065726Y0083905D01*
X0065726Y0081406D02*
X0059022Y0081406D01*
X0064411Y0078908D02*
X0065726Y0078908D01*
X0065726Y0076409D02*
X0064411Y0076409D01*
X0079888Y0076409D02*
X0091083Y0076409D01*
X0091083Y0073911D02*
X0084309Y0073911D01*
X0085072Y0071412D02*
X0091083Y0071412D01*
X0091083Y0068914D02*
X0084267Y0068914D01*
X0080478Y0066415D02*
X0091083Y0066415D01*
X0091083Y0063917D02*
X0082680Y0063917D01*
X0080854Y0063917D02*
X0080478Y0063917D01*
X0085583Y0061418D02*
X0091083Y0061418D01*
X0091083Y0058920D02*
X0085876Y0058920D01*
X0085289Y0056421D02*
X0084226Y0056421D01*
X0083533Y0053923D02*
X0079864Y0053923D01*
X0079888Y0051424D02*
X0083183Y0051424D01*
X0083183Y0048926D02*
X0079888Y0048926D01*
X0079888Y0046427D02*
X0083183Y0046427D01*
X0083540Y0043929D02*
X0079888Y0043929D01*
X0078981Y0041430D02*
X0085304Y0041430D01*
X0092562Y0041430D02*
X0096207Y0041430D01*
X0101688Y0056421D02*
X0105289Y0056421D01*
X0112577Y0056421D02*
X0115289Y0056421D01*
X0090221Y0078908D02*
X0079888Y0078908D01*
X0079888Y0081406D02*
X0087722Y0081406D01*
X0065726Y0051424D02*
X0064411Y0051424D01*
X0064079Y0048926D02*
X0065726Y0048926D01*
X0065726Y0046427D02*
X0059022Y0046427D01*
X0059022Y0043929D02*
X0065726Y0043929D01*
X0066634Y0041430D02*
X0058114Y0041430D01*
X0145883Y0106391D02*
X0163848Y0106391D01*
X0163683Y0108890D02*
X0145883Y0108890D01*
X0145883Y0111388D02*
X0164757Y0111388D01*
X0165342Y0103893D02*
X0147311Y0103893D01*
X0149809Y0101394D02*
X0164763Y0101394D01*
X0162233Y0128878D02*
X0148125Y0128878D01*
X0149670Y0131377D02*
X0163083Y0131377D01*
X0163083Y0133875D02*
X0149670Y0133875D01*
X0149670Y0136374D02*
X0163083Y0136374D01*
X0163083Y0138872D02*
X0149670Y0138872D01*
X0149670Y0141371D02*
X0163083Y0141371D01*
X0149644Y0143869D02*
X0148880Y0143869D01*
X0148217Y0144532D02*
X0148217Y0144532D01*
X0147416Y0146368D02*
X0146382Y0146368D01*
X0172133Y0186344D02*
X0183063Y0186344D01*
X0182052Y0188842D02*
X0172133Y0188842D01*
X0177167Y0191341D02*
X0180798Y0191341D01*
X0179158Y0193839D02*
X0177683Y0193839D01*
X0177008Y0196338D02*
X0176539Y0196338D01*
X0174406Y0198836D02*
X0174038Y0198836D01*
D30*
X0101433Y0181433D02*
X0096933Y0181433D01*
X0096933Y0165733D02*
X0102033Y0165733D01*
X0102433Y0153933D02*
X0096933Y0153933D01*
M02*
